<svg width="42" height="42" viewBox="0 0 42 42" fill="none" xmlns="http://www.w3.org/2000/svg">
<path d="M5.25 5.25C5.25 2.35051 7.60051 0 10.5 0H31.5C34.3995 0 36.75 2.35051 36.75 5.25V36.75C36.75 39.6495 34.3995 42 31.5 42H10.5C7.60051 42 5.25 39.6495 5.25 36.75V5.25ZM17.0625 5.25C16.3376 5.25 15.75 5.83763 15.75 6.5625C15.75 7.28737 16.3376 7.875 17.0625 7.875H24.9375C25.6624 7.875 26.25 7.28737 26.25 6.5625C26.25 5.83763 25.6624 5.25 24.9375 5.25H17.0625ZM21 28.875C25.3492 28.875 28.875 25.3492 28.875 21C28.875 16.6508 25.3492 13.125 21 13.125C16.6508 13.125 13.125 16.6508 13.125 21C13.125 25.3492 16.6508 28.875 21 28.875ZM34.125 36.1077C31.8821 33.6677 27.8863 31.5 21.0001 31.5C14.1137 31.5 10.1178 33.6679 7.875 36.108V36.75C7.875 38.1997 9.05025 39.375 10.5 39.375H31.5C32.9497 39.375 34.125 38.1997 34.125 36.75V36.1077Z" fill="#1F509A"/>
</svg>
