<svg width="44" height="44" viewBox="0 0 44 44" fill="none" xmlns="http://www.w3.org/2000/svg">
<path d="M22.5815 5.629C22.2129 5.457 21.7871 5.457 21.4185 5.629L0.793536 15.254C0.296763 15.4858 -0.0148364 15.9906 0.000544484 16.5386C0.0159252 17.0866 0.355347 17.5731 0.864341 17.7767L21.4893 26.0267C21.8172 26.1578 22.1829 26.1578 22.5107 26.0267L38.5 19.6309V35.75C36.9812 35.75 35.75 36.9812 35.75 38.5V44H44V38.5C44 36.9812 42.7688 35.75 41.25 35.75V18.5309L43.1357 17.7767C43.6447 17.5731 43.9841 17.0866 43.9995 16.5386C44.0148 15.9906 43.7032 15.4858 43.2065 15.254L22.5815 5.629Z" fill="#EC8306"/>
<path d="M11.4828 24.8375C11.1251 24.7034 10.7277 24.7241 10.3859 24.8948C10.0441 25.0654 9.78867 25.3705 9.68088 25.737L8.30588 30.412C8.10578 31.0923 8.45591 31.8133 9.11434 32.0766L21.4893 37.0266C21.8172 37.1578 22.1829 37.1578 22.5107 37.0266L34.8857 32.0766C35.5441 31.8133 35.8942 31.0923 35.6941 30.412L34.3191 25.737C34.2113 25.3705 33.9559 25.0654 33.6141 24.8948C33.2723 24.7241 32.8749 24.7034 32.5172 24.8375L22 28.7815L11.4828 24.8375Z" fill="#EC8306"/>
</svg>
