<svg width="44" height="44" viewBox="0 0 44 44" fill="none" xmlns="http://www.w3.org/2000/svg">
<path d="M17.875 2.75C15.5973 2.75 13.75 4.59571 13.75 6.87433V8.25H4.125C1.84683 8.25 0 10.0968 0 12.375V16.1814L20.9371 21.7646C21.6335 21.9503 22.3665 21.9503 23.0629 21.7646L44 16.1814V12.375C44 10.0968 42.1532 8.25 39.875 8.25H30.25V6.87433C30.25 4.59572 28.4027 2.75 26.125 2.75H17.875ZM17.875 5.5H26.125C26.8848 5.5 27.5 6.11774 27.5 6.87669V8.25H16.5V6.87433C16.5 6.11537 17.1152 5.5 17.875 5.5Z" fill="#0A8DA5"/>
<path d="M0 34.375C0 36.6532 1.84683 38.5 4.125 38.5H39.875C42.1532 38.5 44 36.6532 44 34.375V18.8353L22.3543 24.6075C22.1222 24.6694 21.8778 24.6694 21.6457 24.6075L0 18.8353V34.375Z" fill="#0A8DA5"/>
</svg>
