<svg xmlns="http://www.w3.org/2000/svg" xmlns:xlink="http://www.w3.org/1999/xlink" viewBox="0 0 610.98 570.55"><defs><style>.cls-1{fill:#1e519a;}.cls-15,.cls-2,.cls-39{fill:none;}.cls-3{fill:#26343b;}.cls-4{fill:#2f2d3f;}.cls-5{clip-path:url(#clip-path);}.cls-6{fill:#4e79bc;}.cls-7{fill:#a8c1e0;}.cls-37,.cls-38,.cls-45,.cls-8,.cls-9{fill:#fff;}.cls-9{font-size:30.61px;}.cls-30,.cls-37,.cls-38,.cls-9{font-family:MADECarvingSoftPERSONALUSE-SemiBold, MADE Carving Soft PERSONAL USE;font-weight:600;}.cls-10{clip-path:url(#clip-path-2);}.cls-11{fill:#ffe1b6;}.cls-12{fill:#839cb5;}.cls-13{fill:#bda787;}.cls-14{fill:#24333a;}.cls-15{stroke:#2f2d3f;stroke-width:0.31px;}.cls-15,.cls-39,.cls-40,.cls-45{stroke-miterlimit:10;}.cls-16{fill:#fdfbfd;}.cls-17{fill:#869bb6;}.cls-18{clip-path:url(#clip-path-3);}.cls-19{clip-path:url(#clip-path-4);}.cls-20{clip-path:url(#clip-path-5);}.cls-21{fill:#231f20;}.cls-22{clip-path:url(#clip-path-6);}.cls-23{clip-path:url(#clip-path-7);}.cls-24{fill:#397d6e;}.cls-25,.cls-30{fill:#fffffd;}.cls-26{clip-path:url(#clip-path-8);}.cls-27{clip-path:url(#clip-path-9);}.cls-28{clip-path:url(#clip-path-10);}.cls-29{clip-path:url(#clip-path-11);}.cls-30{font-size:7.15px;}.cls-31{letter-spacing:-0.01em;}.cls-32{letter-spacing:-0.03em;}.cls-33{letter-spacing:-0.09em;}.cls-34{letter-spacing:0em;}.cls-35{letter-spacing:0.01em;}.cls-36{letter-spacing:-0.06em;}.cls-37{font-size:4.05px;}.cls-38{font-size:2.51px;}.cls-39,.cls-40,.cls-45{stroke:#fff;stroke-width:0.25px;}.cls-40{fill:#606161;}.cls-41{letter-spacing:-0.03em;}.cls-42{letter-spacing:-0.05em;}.cls-43{letter-spacing:0em;}.cls-44{letter-spacing:-0.01em;}</style><clipPath id="clip-path" transform="translate(-1.25)"><polygon class="cls-1" points="502.54 304.46 533.97 534.82 605.17 534.51 607.73 303.54 502.54 304.46"/></clipPath><clipPath id="clip-path-2" transform="translate(-1.25)"><rect class="cls-2" x="395.55" y="146.98" width="16.23" height="20.69"/></clipPath><clipPath id="clip-path-3" transform="translate(-1.25)"><rect class="cls-4" x="2.24" y="320.36" width="447.7" height="11.19"/></clipPath><clipPath id="clip-path-4" transform="translate(-1.25)"><rect class="cls-1" x="2.24" y="306.55" width="447.7" height="16.06"/></clipPath><clipPath id="clip-path-5" transform="translate(-1.25)"><rect class="cls-2" y="318.13" width="447.7" height="6.72"/></clipPath><clipPath id="clip-path-6" transform="translate(-1.25)"><rect class="cls-4" x="398.13" y="326.72" width="22.02" height="243.82"/></clipPath><clipPath id="clip-path-7" transform="translate(-1.25)"><rect class="cls-4" x="31.97" y="326.72" width="24.78" height="243.82"/></clipPath><clipPath id="clip-path-8" transform="translate(-1.25)"><rect id="SVGID" class="cls-3" x="249.66" y="32.78" width="7.37" height="16.59"/></clipPath><clipPath id="clip-path-9" transform="translate(-1.25)"><rect id="SVGID-2" data-name="SVGID" class="cls-3" x="260.72" y="32.78" width="7.37" height="16.59"/></clipPath><clipPath id="clip-path-10" transform="translate(-1.25)"><rect id="SVGID-3" data-name="SVGID" class="cls-3" x="319.72" y="32.78" width="7.37" height="16.59"/></clipPath><clipPath id="clip-path-11" transform="translate(-1.25)"><rect id="SVGID-4" data-name="SVGID" class="cls-3" x="331.39" y="32.78" width="7.37" height="16.59"/></clipPath></defs><g id="Layer_2" data-name="Layer 2"><g id="Layer_1-2" data-name="Layer 1"><polygon class="cls-1" points="501.29 304.46 532.72 534.82 603.92 534.51 606.49 303.54 501.29 304.46"/><g class="cls-5"><path class="cls-6" d="M533.32,330.71l6.42,56.51,68.63.31V331.64Z" transform="translate(-1.25)"/><path class="cls-6" d="M542.3,400.19l6.42,51.57,57.09-.31,5.13-51.88Z" transform="translate(-1.25)"/><path class="cls-6" d="M551.93,464.11q1.61,22.84,3.2,45.7l50,1.23q2.88-24.39,5.77-48.78Z" transform="translate(-1.25)"/><path class="cls-6" d="M497.4,303.54q-1.61,7.88-3.2,15.75l118-3.09q-1.28-5.25-2.56-10.5Z" transform="translate(-1.25)"/></g><rect class="cls-7" x="485.89" y="289.64" width="124.44" height="16.06" rx="5.43"/><path class="cls-6" d="M90.74,229.5C70.37,242.92,62,267.33,60.92,291.84q-.91,21.69-1.74,43.38c-.31,8.28-.59,16.79,2.09,24.64,4.62,13.55,17.52,22.95,31.22,27.12s28.29,3.92,42.61,3.64l38.57-.78c4.05-.08,8.38-.26,11.63-2.67,5-3.73,5.31-11.48,2.61-17.14s-7.59-9.89-11.85-14.49c-15.58-16.83-22.94-40.69-20.48-63.41,2.1-19.32,15.61-47.14-2-63.09-13.32-12-36.44-11.31-52.12-5.09A58.19,58.19,0,0,0,90.74,229.5Z" transform="translate(-1.25)"/><path class="cls-6" d="M189.5,463.87,82.66,462.64q1.38-3.87,2.78-7.72l104.06.62Z" transform="translate(-1.25)"/><rect class="cls-6" x="78.88" y="381.01" width="8.73" height="151.92" rx="4.02" transform="translate(60.74 -7.03) rotate(7.7)"/><rect class="cls-6" x="187.26" y="382.25" width="8.73" height="151.92" rx="4.02" transform="translate(-56.17 27.06) rotate(-7.07)"/><polygon class="cls-7" points="430.31 0.62 431.55 241.47 596.13 241.47 595.82 0.62 430.31 0.62"/><rect class="cls-1" x="430.31" width="165.51" height="25.32"/><rect class="cls-1" x="457.79" y="59.9" width="30.26" height="7.41"/><rect class="cls-1" x="458.72" y="103.75" width="49.1" height="5.87"/><rect class="cls-8" x="459.95" y="69.48" width="106.22" height="24.7" rx="3.71"/><rect class="cls-8" x="459.65" y="110.85" width="106.22" height="24.7" rx="3.71"/><rect class="cls-1" x="386.77" y="145.44" width="86.77" height="24.7" rx="3.35"/><rect class="cls-1" x="518.62" y="142.66" width="62.07" height="17.29" rx="2.37"/><text class="cls-9" transform="translate(415.7 173.44)">*</text><text class="cls-9" transform="translate(433.61 173.44)">*</text><text class="cls-9" transform="translate(451.52 173.75)">*</text><g class="cls-10"><path class="cls-8" d="M409.59,154.39v-1.48c0-.1,0-.19,0-.29s0-.19,0-.29a2.89,2.89,0,0,0,0-.29,2.74,2.74,0,0,0,0-.28l-.06-.29c0-.09-.05-.18-.08-.28l-.09-.27-.1-.27-.12-.27c0-.09-.09-.17-.13-.26l-.15-.25-.15-.25-.17-.23-.18-.23a2,2,0,0,0-.19-.22l-.2-.21-.21-.2-.22-.19-.23-.18L407,148l-.25-.15-.25-.15-.26-.13-.27-.11-.27-.11-.27-.09-.28-.08-.29-.06-.28-.05-.29,0-.29,0h-.58l-.29,0-.29,0-.28.05-.29.06-.28.08-.27.09-.27.11-.27.11-.26.13-.25.15-.25.15-.23.17-.23.18-.22.19-.21.2-.2.21a2,2,0,0,0-.19.22l-.18.23-.17.23-.15.25-.15.25c0,.09-.08.17-.13.26s-.08.18-.11.27-.08.18-.11.27l-.09.27c0,.1-.05.19-.08.28l-.06.29a2.74,2.74,0,0,0-.05.28c0,.1,0,.19,0,.29a2.83,2.83,0,0,1,0,.29v1.77h-.22l-.21,0-.21.06-.21.07-.19.09-.19.11-.17.13-.16.15-.15.16-.13.17-.11.19-.09.2a1.18,1.18,0,0,0-.07.2,1.6,1.6,0,0,0,0,.21,1.7,1.7,0,0,0,0,.22c0,.07,0,.14,0,.21v8.86c0,.07,0,.14,0,.22a1.55,1.55,0,0,0,0,.21,1.6,1.6,0,0,0,0,.21,1.72,1.72,0,0,0,.07.21l.09.19.11.19.13.17.15.16.16.15a1.09,1.09,0,0,0,.17.13,1.18,1.18,0,0,0,.19.11l.19.09.21.08.21,0,.21,0H409.8l.22,0,.2,0,.21-.08.19-.09a1.18,1.18,0,0,0,.19-.11,1.09,1.09,0,0,0,.17-.13l.16-.15.15-.16.13-.17.11-.19.09-.19a1.72,1.72,0,0,0,.07-.21l.06-.21,0-.21c0-.08,0-.15,0-.22V156.6c0-.07,0-.14,0-.21l0-.22-.06-.21a1.18,1.18,0,0,0-.07-.2l-.09-.2-.11-.19-.13-.17-.15-.16-.16-.15-.17-.13-.19-.11-.19-.09-.21-.07a1.17,1.17,0,0,0-.2-.06l-.22,0Zm-10.35-1.51a1.7,1.7,0,0,1,0-.22c0-.07,0-.14,0-.21l0-.22a1.55,1.55,0,0,1,0-.21c0-.07,0-.14,0-.21l.06-.21c0-.07.05-.14.07-.21a1.19,1.19,0,0,1,.08-.2l.09-.2.09-.2.11-.18.12-.19.12-.18c.05-.05.09-.11.14-.17l.14-.16.15-.16.16-.15.16-.14.17-.13.18-.13.18-.12.19-.1.2-.1.2-.09.2-.08.2-.06a.83.83,0,0,1,.21-.06l.22-.05.21,0,.22,0,.21,0h.44l.22,0,.21,0,.21,0,.22.05a.83.83,0,0,1,.21.06l.2.06.21.08.19.09.2.1.19.1.18.12.18.13.17.13.17.14.15.15.15.16.15.16.13.17.12.18.12.19.11.18a1.86,1.86,0,0,0,.1.2,1.19,1.19,0,0,1,.08.2,1.19,1.19,0,0,1,.08.2,1.72,1.72,0,0,1,.07.21l.06.21c0,.07,0,.14,0,.21l0,.21,0,.22c0,.07,0,.14,0,.21v1.7h-8.86Zm5.17,8.68v.95a.71.71,0,0,1,0,.14.57.57,0,0,1,0,.14.54.54,0,0,1-.07.13l-.09.11a.47.47,0,0,1-.12.09l-.13.07-.13,0-.15,0-.14,0-.14,0-.13-.07a.31.31,0,0,1-.11-.09.52.52,0,0,1-.1-.11s-.05-.08-.07-.13a1.17,1.17,0,0,1-.05-.2v-1l-.14-.09-.12-.1-.12-.12-.1-.13-.08-.13a1,1,0,0,1-.07-.15.88.88,0,0,1-.05-.15.94.94,0,0,1,0-.16.88.88,0,0,1,0-.16.85.85,0,0,1,0-.16.81.81,0,0,1,0-.16.75.75,0,0,1,0-.16,1,1,0,0,1,.05-.16l.06-.14.09-.14.09-.13.11-.12.13-.11.13-.09.14-.07a.47.47,0,0,1,.15-.06l.16-.05.16,0h.32l.16,0,.16.05a.47.47,0,0,1,.15.06l.14.07.13.09.13.11.11.12a1.47,1.47,0,0,1,.1.13s0,.09.08.14a.59.59,0,0,1,.06.14l.06.16,0,.16a.81.81,0,0,1,0,.16.43.43,0,0,1,0,.16.88.88,0,0,1,0,.16l0,.16-.06.15a1,1,0,0,1-.07.15l-.08.13a1.47,1.47,0,0,1-.1.13l-.12.12-.12.1Z" transform="translate(-1.25)"/></g><path class="cls-11" d="M251.17,513.66l-.41-18.78-25.11.92-1.26,19.88,16.77,7.47Z" transform="translate(-1.25)"/><path class="cls-4" d="M224.61,513.37s15.68,4.19,27,.27c0,0,4.09,10.86,11.72,13s27.81,3.52,29.07,9.72a6.86,6.86,0,0,1-.47,4.6c-1.81,3.16-6.74,3.46-9.39,3.57-13.67.53-43.09-1.16-45.07-1.27l-17-.9S218.89,519.35,224.61,513.37Z" transform="translate(-1.25)"/><path class="cls-11" d="M331.26,498.33l-9.71-16.09-21.31,13.31,8.81,17.86,18.27-1.87Z" transform="translate(-1.25)"/><path class="cls-4" d="M309.05,513.41s15.21-5.46,22.23-15.08a16.13,16.13,0,0,0,5.69,3c5.63,1.58,10.69-.53,13.53-1.75,9.13-3.95,12-10.33,16-9a5.5,5.5,0,0,1,3,3c2.66,6.57-9.67,17.43-16,23a138.88,138.88,0,0,1-32.6,21.26S307.75,521.53,309.05,513.41Z" transform="translate(-1.25)"/><path class="cls-12" d="M86.53,319.86c-2.27,7.89-5.28,23.45,1.85,38.91,11.48,24.92,40.79,31.09,50,33,11.31,2.38,20.87,1.89,39.53.93a299,299,0,0,0,32.11-3.4A420.87,420.87,0,0,0,222.7,496.49l32.12,3.09-.93-81.52q22.55,41.06,45.08,82.13L330.16,486C324,471.5,314.39,448.64,303,420.22c-19.16-47.76-23.09-60.65-37.37-74.42-18.77-18.1-40.28-23.12-63-28.41C157.24,306.81,116.23,312.14,86.53,319.86Z" transform="translate(-1.25)"/><path class="cls-11" d="M150.83,159.39c-.49,7.67,1.46,12.69,4.61,15.81,9.09,9,27.17,2.45,27.61-1.29.16-1.37-2.09-1.92-3.81-6.28-.64-1.61-1.55-4.59-1.55-4.59h0s-.06-.17-.16-.42a15.07,15.07,0,0,1-.68-2.8c-.61-4.59,2.2-12.67,2.2-12.69-6.38-4.88-13.69-12-20.05-16.83l-1.9-.35C157,130.28,151,159,150.83,159.39Z" transform="translate(-1.25)"/><path class="cls-13" d="M159.63,154.53l.06.11c3.12,6.15,9.64,9.16,16.15,12.06.85.38,2.12.93,3.7,1.55l-2.16-5.87a13.25,13.25,0,0,1-3.75.59C165.8,163,160.52,155.79,159.63,154.53Z" transform="translate(-1.25)"/><path class="cls-11" d="M189.46,138.61c-1.07,12.14-4.19,24.56-15.82,24.36-8.14-.15-17.3-10.15-20.42-20.05-1.59-5.1-3-9.56-3.49-13-.35-2.71-.46-4.43-.46-4.43l1.14-6.18.69-3.62,4.82-5.14c3.18-3.41,9.23.06,9.32-.14s15.78-4.74,21.71,1l0,0a6.36,6.36,0,0,1,1.28,1.64,4.22,4.22,0,0,1,.48,1.48c.12,1,.28,2.47.49,4.35.07.79.16,1.65.23,2.56.11,1.54.22,3.23.28,5A98.3,98.3,0,0,1,189.46,138.61Z" transform="translate(-1.25)"/><path class="cls-14" d="M152.11,142.15c.08.56-16.05-20.17-12-31.41s12.66-9.27,12.66-9.27,6.49-22.76,27.61-7.06c0,0,12,2,14.29,11.62s-5.21,15.44-5.21,15.44-.64-8.16-6-7.83c-3.91.24-1.07,4.12-11.69,2.87-6.56-.76-8.76-5-12.27-2.57s-.31,3.9-2.1,15.21C156.23,136.1,151.37,136.84,152.11,142.15Z" transform="translate(-1.25)"/><path class="cls-8" d="M171.34,150.85l8.89.53S176.05,157.87,171.34,150.85Z" transform="translate(-1.25)"/><path class="cls-11" d="M153.24,131.77s-7.42-3.93-6.56,3.11,7.85,9.5,7.85,9.5Z" transform="translate(-1.25)"/><path class="cls-4" d="M151.73,134.2s-5.65-1.17.58,5.91Z" transform="translate(-1.25)"/><path class="cls-4" d="M183.85,133.54a.93.93,0,0,1,.7.67,3,3,0,0,1-.39,2.71.94.94,0,0,1-.86.44c-.31,0-.54-.27-.7-.67a2.78,2.78,0,0,1-.13-1.4A2.63,2.63,0,0,1,183,134,.92.92,0,0,1,183.85,133.54Z" transform="translate(-1.25)"/><path class="cls-4" d="M169.34,132.52c.31,0,.54.26.71.67a3,3,0,0,1-.4,2.7.91.91,0,0,1-.86.44c-.31,0-.54-.27-.7-.67a2.77,2.77,0,0,1-.13-1.4,2.72,2.72,0,0,1,.52-1.3A.91.91,0,0,1,169.34,132.52Z" transform="translate(-1.25)"/><path class="cls-4" d="M181.65,127.81s3.06-2.65,5.95-1.37Z" transform="translate(-1.25)"/><path class="cls-4" d="M164.06,125.11c.25,0,4.35-1.07,7,1.42Z" transform="translate(-1.25)"/><path class="cls-4" d="M177,145.21a5.93,5.93,0,0,1-1.27-.16.27.27,0,0,1-.2-.33.25.25,0,0,1,.32-.18c1.32.3,2.18.16,2.43-.45a2,2,0,0,0-1-2.13.26.26,0,0,1,.26-.44,2.53,2.53,0,0,1,1.23,2.76A1.73,1.73,0,0,1,177,145.21Z" transform="translate(-1.25)"/><path class="cls-4" d="M183.93,141.27a3.85,3.85,0,0,1-.48,0,6.06,6.06,0,1,1,.48,0Zm-5.55-6.52a5.56,5.56,0,1,0,6-5.12A5.55,5.55,0,0,0,178.38,134.75Z" transform="translate(-1.25)"/><path class="cls-4" d="M168.87,140.1a3.85,3.85,0,0,1-.48,0,6.09,6.09,0,1,1,6.54-5.6,6.1,6.1,0,0,1-6.06,5.62Zm-5.57-6.53a5.55,5.55,0,0,0,5.12,6,5.6,5.6,0,0,0,6-5.12,5.55,5.55,0,0,0-5.12-6A5.61,5.61,0,0,0,163.3,133.57Z" transform="translate(-1.25)"/><path class="cls-4" d="M178.79,133.27a.3.3,0,0,1-.14-.05c-2.45-1.6-4-.19-4.05-.13a.26.26,0,0,1-.37,0,.27.27,0,0,1,0-.37s1.9-1.76,4.7.07a.25.25,0,0,1,.08.36A.36.36,0,0,1,178.79,133.27Z" transform="translate(-1.25)"/><path class="cls-8" d="M102.5,194.55c5.74,34.12,15.19,58.35,22,73,8.75,18.83,14.14,24,18,27,14.44,11.18,31,10.12,33,19,1.23,5.39-3.73,10.77-5.6,12.8-19.65,21.29-74.94,4.31-83.68,1.54A469,469,0,0,1,96.1,221.05Q99,207.3,102.5,194.55Z" transform="translate(-1.25)"/><path class="cls-8" d="M162.5,178.55h13q5.5,56.49,11,113l-13-4q-8-2.49-16-5a98,98,0,0,1-11-32C141,215.41,156.76,187.66,162.5,178.55Z" transform="translate(-1.25)"/><path class="cls-11" d="M156.5,280.55l57,21q-4.06-7.73-8-16a433.29,433.29,0,0,1-19-47l27-7c1.59,4.83,9.81,29.88,14.66,50.83a44.17,44.17,0,0,1,1,17.72,42.2,42.2,0,0,1-5.56,15.13c-19.08,1.75-44.52,1-69.13-9.68-11.45-5-16.73-9-20-13-5.32-6.47-7.78-14.06-11-24a146.47,146.47,0,0,1-4-15l29-4Q152.51,265,156.5,280.55Z" transform="translate(-1.25)"/><path class="cls-8" d="M101.66,203.76c1,5.94,2.64,15.23,4.47,26.71,2.2,13.75,2.83,18.67,4,23.42a24.69,24.69,0,0,0,1.09,3.9,25.18,25.18,0,0,0,3.27,5.76c2.61,3.32,18.78,5.16,40,0a141.88,141.88,0,0,1,.11-22.89c.9-10.33,2.84-17.52,3.89-23.11,1.86-10,4.2-24.24,6-42.05a23.05,23.05,0,0,1-5-3.17,19.83,19.83,0,0,1-3.21-3.47,50.38,50.38,0,0,0-5.81-6.31,29.74,29.74,0,0,1-10,6,50.19,50.19,0,0,1-9.66,2c-3,.43-4.6.44-5.87.62-8,1.15-14.54,7.16-15,7.57C100.24,188,101.48,202.08,101.66,203.76Z" transform="translate(-1.25)"/><path class="cls-15" d="M137.17,202.52a156.09,156.09,0,0,0,15.33,62" transform="translate(-1.25)"/><path class="cls-8" d="M178.5,177.55l7-1,3,4a27.34,27.34,0,0,1,12,9,23.74,23.74,0,0,1,2.78,4.94c4.66,11.72,16.14,49.39,17.25,53.06l-29,6-7-15q5,28,10,56l-13-5-6-113Z" transform="translate(-1.25)"/><path class="cls-15" d="M103.5,194.55a168.29,168.29,0,0,0,20,71" transform="translate(-1.25)"/><path class="cls-16" d="M166.5,176.55l13-9,6,9-15,8Z" transform="translate(-1.25)"/><path class="cls-16" d="M166.5,176.55l-17-16-7,7,19,17Q164,180.55,166.5,176.55Z" transform="translate(-1.25)"/><polygon class="cls-17" points="165.01 176.55 160.58 183.94 162.06 186.89 156.14 237.16 165.01 244.55 175.36 238.63 167.97 186.89 169.45 183.94 165.01 176.55"/><path class="cls-1" d="M311.15,367.37H134.31V345H311.15v22.38" transform="translate(-1.25)"/><path class="cls-4" d="M65,536.32H84.28V364.65H65V536.32" transform="translate(-1.25)"/><path class="cls-4" d="M367.85,536.32h19.27V364.65H367.85V536.32" transform="translate(-1.25)"/><path class="cls-1" d="M420.16,428.29H34.73V336.24H420.16v92.05" transform="translate(-1.25)"/><rect class="cls-4" x="0.99" y="320.36" width="447.7" height="11.19"/><g class="cls-18"><path class="cls-4" d="M447.7,329.32H2.24V322.6H449.93v6.72" transform="translate(-1.25)"/></g><rect class="cls-1" x="0.99" y="306.55" width="447.7" height="16.06"/><g class="cls-19"><path class="cls-1" d="M382.78,307.39H67.71L1.25,322.6H448.77L382.3,307.39" transform="translate(-1.25)"/></g><g class="cls-20"><path class="cls-21" d="M4.48,324.84H444.23c2.47.43,2.49-3.41,0-4.48H4.63c-2.47,1.07-2.47,4.91,0,4.91" transform="translate(-1.25)"/></g><rect class="cls-4" x="396.88" y="326.72" width="22.02" height="243.82"/><g class="cls-22"><path class="cls-4" d="M400.88,568.06h19.28V326.72H400.88V568.06" transform="translate(-1.25)"/></g><rect class="cls-4" x="30.73" y="326.72" width="24.78" height="243.82"/><g class="cls-23"><path class="cls-4" d="M34.73,568.06H54V326.72H34.73V568.06" transform="translate(-1.25)"/></g><path class="cls-21" d="M398.13,334.19v56.22c-.2,2.74,4.53,2.74,5.51,0V335.35c-1-2.75-5.71-2.75-5.71,0" transform="translate(-1.25)"/><path class="cls-21" d="M48.49,331.7v60.88c.27,2.76,5,2.76,5.51,0v-60.5c-.5-2.75-5.24-2.76-5.24,0" transform="translate(-1.25)"/><path class="cls-7" d="M329.63,311.23l-103.44-.93c6-43,10.16-72.35,10.49-75.65a4.83,4.83,0,0,1,1.55-3.4,4.33,4.33,0,0,1,3.09-.61c3.1.36,45.47.41,105.29.3a6.23,6.23,0,0,1,4,4.95c-9.69,38.64-16.28,65.43-16.68,68.85a8.39,8.39,0,0,1-1.85,4.64A7.41,7.41,0,0,1,329.63,311.23Z" transform="translate(-1.25)"/><path class="cls-6" d="M167.52,310.92a8.38,8.38,0,0,1,1.85-5.25c2.07-2.38,5.31-2.67,7.1-2.78,6.14-.37,22.54-.25,44.47.62,1.69-8.4,13.4-66.3,16.05-70.4a6.44,6.44,0,0,1,1.86-1.86c2.1-1.26,4.65-.77,6.17-.31q-8.64,40-17.29,80Z" transform="translate(-1.25)"/><ellipse class="cls-6" cx="292.1" cy="275.1" rx="7.87" ry="7.41"/><path class="cls-24" d="M280.78,151a2.44,2.44,0,0,0,.91,1.28c1.36,1,3.6.74,5.18.7,2.56-.08,5.13-.23,7.7-.24,2.82,0,5.63.11,8.45.18,1.2,0,2.63-.18,3.34-1.24a5.55,5.55,0,0,0,.49-3.53c-.32-5.55-.8-11.09-.64-16.65.07-2.13.52-4.22.6-6.34a6.72,6.72,0,0,0-.67-4c-1.27-1.92-3.9-1.71-5.94-1.58s-4.38.13-6.57.12h-2.18c-1.66,0-3.32,0-5,0-1.51,0-3.28,0-4.47,1.13s-1.16,2.63-1.05,4.16.24,3.28.3,4.92q.25,6.41,0,12.8a44.85,44.85,0,0,1-.39,4.78,8.46,8.46,0,0,0-.06,3.51" transform="translate(-1.25)"/><rect class="cls-1" x="231.73" y="46.28" width="121.54" height="122.38" rx="10.27"/><rect class="cls-25" x="238.48" y="52.19" width="107.19" height="110.57" rx="10.45"/><path class="cls-14" d="M337.19,70.35a3.78,3.78,0,0,1-.7,1.42c-1.41,1.62-8.16.93-11.39.71-8.8-.58-17.6-.26-26.4,0-5.07.13-10.17,0-15.24-.14-4.11-.07-8.22.07-12.33.12-3.92,0-7.84-.36-11.75-.11-2.7.17-6.83,1-8.83-1.42-3.16-3.86-1-7.86,3.73-9.24,3.9-1.14,8.08-.36,12-.11,15.42,1,31.13.31,46.58.4,3.77,0,7.56.12,11.33-.09,3.22-.19,7.05-.86,10.18.63,2.49,1.19,3.62,4.94,2.77,7.87" transform="translate(-1.25)"/><path class="cls-7" d="M337.19,69.71a3.73,3.73,0,0,1-.7,1.41c-1.41,1.63-8.16.93-11.39.72-8.8-.58-17.6-.26-26.4,0-5.07.12-10.17,0-15.24-.14-4.11-.07-8.22.06-12.33.12-3.92,0-7.84-.36-11.75-.11-2.7.17-6.83,1-8.83-1.42-3.16-3.87-1-7.87,3.73-9.24,3.9-1.14,8.08-.36,12-.11,15.42,1,31.13.31,46.58.4,3.77,0,7.56.12,11.33-.09,3.22-.19,7.05-.86,10.18.62,2.49,1.19,3.62,5,2.77,7.88" transform="translate(-1.25)"/><rect id="SVGID-5" data-name="SVGID" class="cls-3" x="248.41" y="32.78" width="7.37" height="16.59"/><g class="cls-26"><path class="cls-3" d="M254.6,49.37h-3.12a1.83,1.83,0,0,1-1.82-1.82V34.6a1.83,1.83,0,0,1,1.82-1.82h3.12a1.82,1.82,0,0,1,1.82,1.82V47.54A1.83,1.83,0,0,1,254.6,49.37Z" transform="translate(-1.25)"/></g><rect id="SVGID-6" data-name="SVGID" class="cls-3" x="259.47" y="32.78" width="7.37" height="16.59"/><g class="cls-27"><path class="cls-3" d="M266.27,49.37h-3.11a1.82,1.82,0,0,1-1.82-1.82V34.6a1.83,1.83,0,0,1,1.82-1.82h3.12a1.82,1.82,0,0,1,1.82,1.82V47.54A1.83,1.83,0,0,1,266.27,49.37Z" transform="translate(-1.25)"/></g><rect id="SVGID-7" data-name="SVGID" class="cls-3" x="318.47" y="32.78" width="7.37" height="16.59"/><g class="cls-28"><path class="cls-3" d="M324.65,49.37h-3.11a1.82,1.82,0,0,1-1.82-1.82V34.6a1.83,1.83,0,0,1,1.82-1.82h3.12a1.82,1.82,0,0,1,1.82,1.81V47.54A1.83,1.83,0,0,1,324.65,49.37Z" transform="translate(-1.25)"/></g><rect id="SVGID-8" data-name="SVGID" class="cls-3" x="330.15" y="32.78" width="7.37" height="16.59"/><g class="cls-29"><path class="cls-3" d="M336.3,49.37h-3.05a1.86,1.86,0,0,1-1.86-1.85V34.62a1.85,1.85,0,0,1,1.86-1.84h3.05a1.84,1.84,0,0,1,1.85,1.84v12.9A1.85,1.85,0,0,1,336.3,49.37Z" transform="translate(-1.25)"/></g><text class="cls-30" transform="translate(259.28 69.54)"><tspan class="cls-31">J</tspan><tspan x="3.9" y="0">A</tspan><tspan class="cls-32" x="8.86" y="0">D</tspan><tspan class="cls-33" x="13.77" y="0">W</tspan><tspan class="cls-34" x="20.29" y="0">AL </tspan><tspan class="cls-35" x="31.34" y="0">S</tspan><tspan x="35.61" y="0">E</tspan><tspan class="cls-36" x="39.64" y="0">K</tspan><tspan x="43.68" y="0">OLAH</tspan></text><path class="cls-3" d="M276.31,114a2.48,2.48,0,0,1-.9,1.28c-1.37,1-3.61.74-5.19.69-2.57-.07-5.13-.22-7.7-.23-2.82,0-5.63.11-8.45.18a3.83,3.83,0,0,1-3.34-1.24,5.56,5.56,0,0,1-.5-3.53c.33-5.55.81-11.09.65-16.65-.07-2.13-.52-4.22-.61-6.34a6.87,6.87,0,0,1,.67-4c1.28-1.93,3.91-1.71,5.95-1.58,2.91.17,5.84.11,8.75.12,1.66,0,3.33,0,5,0s3.28.05,4.47,1.13,1.16,2.63,1,4.16-.24,3.28-.3,4.92q-.25,6.4,0,12.8a44.85,44.85,0,0,0,.39,4.78,8.46,8.46,0,0,1,.06,3.51" transform="translate(-1.25)"/><path class="cls-7" d="M275.82,113.63a2.39,2.39,0,0,1-.9,1.28c-1.37,1-3.61.74-5.18.7-2.57-.08-5.14-.23-7.71-.24-2.82,0-5.63.11-8.45.18a3.81,3.81,0,0,1-3.34-1.23,5.59,5.59,0,0,1-.49-3.54c.32-5.54.8-11.09.65-16.65-.07-2.13-.52-4.22-.61-6.34a6.72,6.72,0,0,1,.67-4.05c1.27-1.92,3.9-1.71,5.94-1.58,2.91.18,5.84.11,8.75.13,1.66,0,3.33,0,5,0s3.28,0,4.48,1.13,1.15,2.64,1,4.16-.23,3.28-.3,4.92q-.25,6.4,0,12.8a47.62,47.62,0,0,0,.39,4.78,8.29,8.29,0,0,1,.06,3.51" transform="translate(-1.25)"/><text class="cls-37" transform="translate(255.8 88.49)">Senin</text><text class="cls-38" transform="translate(251.35 92.91)">1.</text><text class="cls-38" transform="translate(251.35 96.96)">2.</text><text class="cls-38" transform="translate(251.35 101)">3.</text><text class="cls-38" transform="translate(251.35 105.72)">4.</text><text class="cls-38" transform="translate(251.35 109.77)">5.</text><line class="cls-39" x1="254.41" y1="91.95" x2="267.9" y2="91.95"/><line class="cls-39" x1="254.75" y1="96.34" x2="268.23" y2="96.34"/><line class="cls-39" x1="254.75" y1="100.05" x2="268.23" y2="100.05"/><line class="cls-39" x1="255.08" y1="105.1" x2="268.57" y2="105.1"/><line class="cls-39" x1="254.75" y1="109.15" x2="268.23" y2="109.15"/><path class="cls-3" d="M306.66,114a2.44,2.44,0,0,1-.91,1.28c-1.37,1-3.6.74-5.18.69-2.57-.07-5.13-.22-7.7-.23-2.82,0-5.63.11-8.45.18-1.2,0-2.63-.19-3.34-1.24a5.5,5.5,0,0,1-.5-3.53c.33-5.55.81-11.09.65-16.65-.07-2.13-.52-4.22-.61-6.34a6.87,6.87,0,0,1,.67-4c1.28-1.93,3.91-1.71,5.95-1.58,2.9.17,5.83.11,8.75.12,1.66,0,3.32,0,5,0,1.51,0,3.28.05,4.47,1.13s1.16,2.63,1.05,4.16-.24,3.28-.3,4.92q-.26,6.4,0,12.8a42.39,42.39,0,0,0,.39,4.78,8.46,8.46,0,0,1,.06,3.51" transform="translate(-1.25)"/><path class="cls-7" d="M306.17,113.63a2.41,2.41,0,0,1-.91,1.28c-1.36,1-3.6.74-5.18.7-2.56-.08-5.13-.23-7.7-.24-2.82,0-5.63.11-8.45.18a3.8,3.8,0,0,1-3.34-1.23,5.52,5.52,0,0,1-.49-3.54c.32-5.54.8-11.09.64-16.65-.06-2.13-.52-4.22-.6-6.34a6.72,6.72,0,0,1,.67-4.05c1.27-1.92,3.9-1.71,5.94-1.58,2.91.18,5.84.11,8.75.13,1.66,0,3.33,0,5,0s3.28,0,4.47,1.13,1.16,2.64,1.05,4.16-.24,3.28-.3,4.92q-.25,6.4,0,12.8a47.62,47.62,0,0,0,.39,4.78,8.46,8.46,0,0,1,.06,3.51" transform="translate(-1.25)"/><text class="cls-37" transform="translate(285.81 88.49)">Selasa</text><text class="cls-38" transform="translate(281.7 92.91)">1.</text><text class="cls-38" transform="translate(281.7 96.96)">2.</text><text class="cls-38" transform="translate(281.7 101)">3.</text><text class="cls-38" transform="translate(281.7 105.72)">4.</text><text class="cls-38" transform="translate(281.7 109.77)">5.</text><line class="cls-40" x1="284.76" y1="91.95" x2="298.24" y2="91.95"/><line class="cls-40" x1="285.09" y1="96.34" x2="298.58" y2="96.34"/><line class="cls-40" x1="285.09" y1="100.05" x2="298.58" y2="100.05"/><line class="cls-40" x1="285.43" y1="105.1" x2="298.92" y2="105.1"/><line class="cls-40" x1="285.09" y1="109.15" x2="298.58" y2="109.15"/><path class="cls-3" d="M336.67,114a2.44,2.44,0,0,1-.91,1.28c-1.37,1-3.6.74-5.18.69-2.57-.07-5.13-.22-7.7-.23-2.82,0-5.63.11-8.45.18-1.2,0-2.63-.19-3.34-1.24a5.5,5.5,0,0,1-.5-3.53c.33-5.55.81-11.09.65-16.65-.07-2.13-.52-4.22-.61-6.34a6.87,6.87,0,0,1,.67-4c1.28-1.93,3.91-1.71,5.95-1.58,2.9.17,5.83.11,8.75.12,1.66,0,3.32,0,5,0,1.51,0,3.28.05,4.47,1.13s1.16,2.63,1.05,4.16-.24,3.28-.3,4.92q-.25,6.4,0,12.8a42.39,42.39,0,0,0,.39,4.78,8.46,8.46,0,0,1,.06,3.51" transform="translate(-1.25)"/><path class="cls-7" d="M336.18,113.63a2.41,2.41,0,0,1-.91,1.28c-1.36,1-3.6.74-5.18.7-2.56-.08-5.13-.23-7.7-.24-2.82,0-5.63.11-8.45.18a3.8,3.8,0,0,1-3.34-1.23,5.52,5.52,0,0,1-.49-3.54c.32-5.54.8-11.09.64-16.65-.06-2.13-.52-4.22-.6-6.34a6.72,6.72,0,0,1,.67-4.05c1.27-1.92,3.9-1.71,5.94-1.58,2.91.18,5.84.11,8.75.13,1.66,0,3.33,0,5,0s3.28,0,4.47,1.13,1.16,2.64,1,4.16-.24,3.28-.3,4.92q-.25,6.4,0,12.8a47.62,47.62,0,0,0,.39,4.78,8.46,8.46,0,0,1,.06,3.51" transform="translate(-1.25)"/><text class="cls-37" transform="translate(316.83 88.49)"><tspan class="cls-41">R</tspan><tspan x="2.4" y="0">abu</tspan></text><text class="cls-38" transform="translate(311.71 92.91)">1.</text><text class="cls-38" transform="translate(311.71 96.96)">2.</text><text class="cls-38" transform="translate(311.71 101)">3.</text><text class="cls-38" transform="translate(311.71 105.72)">4.</text><text class="cls-38" transform="translate(311.71 109.77)">5.</text><line class="cls-40" x1="314.77" y1="91.95" x2="328.26" y2="91.95"/><line class="cls-40" x1="315.1" y1="96.34" x2="328.59" y2="96.34"/><line class="cls-40" x1="315.1" y1="100.05" x2="328.59" y2="100.05"/><line class="cls-40" x1="315.44" y1="105.1" x2="328.93" y2="105.1"/><line class="cls-40" x1="315.1" y1="109.15" x2="328.59" y2="109.15"/><path class="cls-3" d="M290.47,151.77a2.39,2.39,0,0,1-.9,1.28c-1.37,1-3.61.75-5.19.7-2.56-.08-5.13-.23-7.7-.23-2.82,0-5.63.1-8.45.17a3.81,3.81,0,0,1-3.34-1.23,5.56,5.56,0,0,1-.49-3.53c.32-5.55.8-11.09.64-16.66-.06-2.12-.52-4.22-.6-6.34a6.73,6.73,0,0,1,.67-4.05c1.27-1.92,3.9-1.71,5.94-1.58,2.91.18,5.84.11,8.75.13,1.66,0,3.33,0,5,0s3.28,0,4.47,1.12,1.16,2.64,1.05,4.16-.23,3.28-.3,4.93q-.25,6.39,0,12.8c.07,1.59.16,3.19.39,4.78a8.41,8.41,0,0,1,.06,3.5" transform="translate(-1.25)"/><path class="cls-7" d="M290,151.39a2.36,2.36,0,0,1-.9,1.29c-1.37,1-3.6.74-5.18.69-2.57-.07-5.14-.22-7.7-.23-2.82,0-5.64.11-8.45.17a3.82,3.82,0,0,1-3.35-1.23,5.55,5.55,0,0,1-.49-3.53c.32-5.55.8-11.09.65-16.65-.07-2.13-.52-4.22-.61-6.34a6.71,6.71,0,0,1,.67-4c1.28-1.92,3.9-1.71,5.94-1.59,2.91.18,5.84.12,8.75.13,1.67,0,3.33,0,5,0s3.29.05,4.48,1.13,1.15,2.63,1.05,4.16-.24,3.28-.31,4.92q-.25,6.41,0,12.8a47.86,47.86,0,0,0,.39,4.78,8.09,8.09,0,0,1,.06,3.5" transform="translate(-1.25)"/><text class="cls-37" transform="translate(269.96 126.25)"><tspan class="cls-42">K</tspan><tspan class="cls-43" x="2.32" y="0">am</tspan><tspan class="cls-44" x="8.32" y="0">i</tspan><tspan x="9.33" y="0">s</tspan></text><text class="cls-38" transform="translate(265.52 130.68)">1.</text><text class="cls-38" transform="translate(265.52 134.72)">2.</text><text class="cls-38" transform="translate(265.52 138.77)">3.</text><text class="cls-38" transform="translate(265.52 143.49)">4.</text><text class="cls-38" transform="translate(265.52 147.54)">5.</text><line class="cls-40" x1="268.57" y1="129.72" x2="282.06" y2="129.72"/><line class="cls-40" x1="268.91" y1="134.1" x2="282.4" y2="134.1"/><line class="cls-40" x1="268.91" y1="137.81" x2="282.4" y2="137.81"/><line class="cls-40" x1="269.25" y1="142.87" x2="282.73" y2="142.87"/><line class="cls-40" x1="268.91" y1="146.92" x2="282.4" y2="146.92"/><path class="cls-3" d="M322.84,150.76a2.39,2.39,0,0,1-.9,1.28c-1.37,1-3.6.75-5.19.7-2.56-.08-5.13-.23-7.7-.24-2.81,0-5.63.11-8.45.18a3.81,3.81,0,0,1-3.34-1.23,5.57,5.57,0,0,1-.49-3.53c.32-5.55.8-11.1.64-16.66-.06-2.12-.52-4.22-.6-6.34a6.73,6.73,0,0,1,.67-4c1.27-1.92,3.9-1.71,5.94-1.58,2.91.18,5.84.11,8.75.13,1.67,0,3.33,0,5,0s3.28,0,4.47,1.12,1.16,2.64,1.05,4.16-.23,3.28-.3,4.92q-.25,6.41,0,12.81a47.66,47.66,0,0,0,.39,4.77,8.46,8.46,0,0,1,.06,3.51" transform="translate(-1.25)"/><path class="cls-7" d="M322.35,150.38a2.3,2.3,0,0,1-.9,1.28c-1.37,1-3.6.75-5.18.7-2.57-.07-5.13-.22-7.7-.23-2.82,0-5.64.1-8.45.17-1.2,0-2.63-.18-3.34-1.23a5.5,5.5,0,0,1-.5-3.53c.33-5.55.8-11.09.65-16.66-.07-2.12-.52-4.21-.61-6.33a6.71,6.71,0,0,1,.67-4c1.28-1.93,3.9-1.72,5.94-1.59,2.91.18,5.84.12,8.75.13,1.67,0,3.33,0,5,0s3.29,0,4.48,1.13,1.15,2.63,1.05,4.15-.24,3.29-.31,4.93q-.24,6.39,0,12.8c.07,1.59.16,3.19.39,4.78a8.09,8.09,0,0,1,.06,3.5" transform="translate(-1.25)"/><text class="cls-37" transform="translate(301.65 125.24)">Jum<tspan class="cls-44" x="8.04" y="0">a</tspan><tspan x="10.56" y="0">t</tspan></text><text class="cls-38" transform="translate(297.89 129.66)">1.</text><text class="cls-38" transform="translate(297.89 133.71)">2.</text><text class="cls-38" transform="translate(297.89 137.76)">3.</text><text class="cls-38" transform="translate(297.89 142.48)">4.</text><text class="cls-38" transform="translate(297.89 146.52)">5.</text><line class="cls-45" x1="300.94" y1="128.71" x2="314.43" y2="128.71"/><line class="cls-45" x1="301.28" y1="133.09" x2="314.77" y2="133.09"/><line class="cls-45" x1="301.28" y1="136.8" x2="314.77" y2="136.8"/><line class="cls-45" x1="301.62" y1="141.86" x2="315.1" y2="141.86"/><line class="cls-45" x1="301.28" y1="145.9" x2="314.77" y2="145.9"/></g></g></svg>