<svg xmlns="http://www.w3.org/2000/svg" viewBox="0 0 765.23 570"><defs><style>.cls-1{fill:#e8eaf6;}.cls-2{fill:none;stroke-width:1.26px;}.cls-19,.cls-2{stroke:#2b296b;}.cls-19,.cls-2,.cls-3{stroke-miterlimit:10;}.cls-10,.cls-20,.cls-23,.cls-3{fill:#fff;}.cls-3{stroke:#2a2b6a;stroke-width:4.28px;}.cls-4{fill:#273256;}.cls-5{font-size:31.68px;fill:#231f20;}.cls-20,.cls-23,.cls-5{font-family:MADECarvingSoftPERSONALUSE-SemiBold, MADE Carving Soft PERSONAL USE;font-weight:600;}.cls-6{letter-spacing:-0.05em;}.cls-7{letter-spacing:-0.01em;}.cls-8{fill:#ffe1b6;}.cls-9{fill:#5a71b6;}.cls-11,.cls-21{fill:#2f2d3f;}.cls-12{fill:#2b2867;isolation:isolate;}.cls-13{fill:#1f3765;}.cls-14{fill:#2e5181;}.cls-15{fill:#1e3768;}.cls-16{fill:#bda787;}.cls-17{fill:#bea788;}.cls-18{fill:#f8f4f7;}.cls-19{fill:#2b296b;stroke-width:0.32px;}.cls-20{font-size:40.77px;}.cls-21,.cls-22{fill-rule:evenodd;}.cls-22{fill:#ededf0;}.cls-23{font-size:29.3px;}.cls-24{letter-spacing:-0.01em;}</style></defs><g id="Layer_2" data-name="Layer 2"><g id="Layer_1-2" data-name="Layer 1"><path class="cls-1" d="M304.86,387.75c-65.09,10.39-142.94,22.82-210.09-22.57C84.5,358.24,8.1,305,10.86,228.41,12.75,176,50.59,142.45,104.1,95c24.75-22,91.1-79.29,192.06-92.28a306.74,306.74,0,0,1,60.91-2C503.54,12.28,598,138.93,649.83,208.49c55.24,74.09,97.92,131.33,79.56,186.57-21.27,64-109.29,79.38-119.34,81-77.23,12.4-138.68-38.91-161.6-57.76a281,281,0,0,1-51-55.1A477.42,477.42,0,0,1,304.86,387.75Z"/><path class="cls-2" d="M294.7,399c-65.09,10.39-142.94,22.82-210.09-22.57C74.34,369.46-2.06,316.22.7,239.64c1.89-52.37,39.73-86,93.24-133.45C118.69,84.22,185,26.9,286,13.91a306,306,0,0,1,60.92-2C493.38,23.5,587.81,150.16,639.67,219.72c55.24,74.09,97.92,131.33,79.56,186.56-21.27,64-109.29,79.39-119.34,81-77.23,12.4-138.68-38.91-161.6-57.76a281,281,0,0,1-51-55.1A478.14,478.14,0,0,1,294.7,399Z"/><rect class="cls-3" x="358.35" y="56.68" width="376.44" height="352.37" rx="34.24"/><rect class="cls-4" x="401.66" y="218.7" width="299.44" height="48.66" rx="6.42"/><text class="cls-5" transform="translate(418.47 189.39)"><tspan class="cls-6">K</tspan><tspan class="cls-7" x="18.18" y="0">at</tspan><tspan x="49.61" y="0">a Sandi Salah!</tspan></text><path class="cls-8" d="M318.78,244.36a204,204,0,0,1,1.61,49.2c-1.18,2-13,21.31-36.37,23.52-17.43,1.65-34.57-6.84-44.38-21.92q1.08-15.24,2.14-30.48c2.16-4.9,4.42-12.23,2.68-20.32-.91-4.19-2-4.48-4.82-11.76-5.23-13.52-3.76-18.5-8-20.86s-7.18,2.12-13.9.54c-7.37-1.74-13.59-9.45-14.44-17.65-.16-1.54-.9-10,5.35-15,5.32-4.19,13.62-4.13,20.32.54q-2.14-25.93-4.28-51.87a127.69,127.69,0,0,1,103.74-10.16,104,104,0,0,1,10.16,40.64c.63,17.6-3.46,36.86-3.21,36.89s.4-7.43,5.34-13.9c1.43-1.86,4.42-5.77,7.49-5.35,4.48.63,7.22,10.25,6.95,17.65-.06,1.59-.57,15.73-10.16,19.25-4.35,1.6-8.61.29-10.69-.54Z"/><path class="cls-9" d="M242.32,263.61c-1.08,13.61,4,21.44,5.88,24.06,15.24,20.83,50.77,10.14,52.4,9.63,9.49-3,13.23-7.11,14.44-8.56,7.65-9.16,5.84-21.27,5.35-24.06a404.19,404.19,0,0,1,41.7,4.81c16.73,2.82,25.1,4.22,31.55,7.49,11.25,5.7,20.59,16.38,34.76,55.61a517.13,517.13,0,0,1,21.38,78.07,83.23,83.23,0,0,1-58.28,19.78q2.14,69.78,4.28,139.56l-219.23-2.14c2.49-29.1,4-60.95,3.74-95.18-.22-33.42-2-64.55-4.81-93L131.1,366.81A39,39,0,0,0,148.21,362c13.4-7.54,17.83-21.24,19.78-27.27,10-30.89-13.19-61.58-16-65.24Z"/><path class="cls-10" d="M249.27,289.28q-3.75,139.29-7.49,278.58l98.92,1.61Q327.88,429.37,315,289.28A56.1,56.1,0,0,1,285.63,300,56.82,56.82,0,0,1,249.27,289.28Z"/><path class="cls-11" d="M309.21,178.89a2.69,2.69,0,0,1,2.17,1.73,7.43,7.43,0,0,1,.77,3.93A7.68,7.68,0,0,1,311,188.4a2.39,2.39,0,0,1-4.51-.2,7.93,7.93,0,0,1-.75-3.93,7.53,7.53,0,0,1,1.11-3.86A2.67,2.67,0,0,1,309.21,178.89Z"/><path class="cls-11" d="M262.64,178.12a2.72,2.72,0,0,1,2.12,1.78,7.74,7.74,0,0,1,.61,4,7.59,7.59,0,0,1-1.24,3.81,2.38,2.38,0,0,1-4.49-.35,8.63,8.63,0,0,1,.62-7.78A2.63,2.63,0,0,1,262.64,178.12Z"/><path class="cls-11" d="M307.15,200.47a14.15,14.15,0,0,1-1.46-.05,18.68,18.68,0,1,1,1.46.05ZM290.2,180.56a17,17,0,1,0,18.22-15.64A17,17,0,0,0,290.2,180.56Z"/><path class="cls-11" d="M260,199.76a14.25,14.25,0,0,1-1.46,0,18.79,18.79,0,1,1,1.46,0Zm-17-19.94a17,17,0,0,0,15.64,18.25,17.05,17.05,0,0,0,18.28-15.67,17,17,0,0,0-15.64-18.23A17.13,17.13,0,0,0,243,179.82Z"/><path class="cls-11" d="M290.31,178.9a.79.79,0,0,1-.44-.16c-7.46-4.88-12.17-.58-12.37-.38a.81.81,0,0,1-1.13-.05.79.79,0,0,1,.06-1.12c.05-.06,5.8-5.37,14.36.2a.79.79,0,0,1,.26,1.12A1.2,1.2,0,0,1,290.31,178.9Z"/><path class="cls-11" d="M288.91,214.36a18.22,18.22,0,0,1-3.77.95.79.79,0,0,1-.9-.71.77.77,0,0,1,.7-.87c4.06-.6,6.34-1.95,6.36-3.94s-2.6-4.53-5.14-4.91a.71.71,0,0,1-.64-.86.75.75,0,0,1,.89-.67c3,.43,6.49,3.35,6.49,6.45C292.83,211.08,292.19,213.09,288.91,214.36Z"/><path class="cls-11" d="M269.59,236.34a15.35,15.35,0,0,1,4.81-7,16.24,16.24,0,0,1,11.76-3.21,14.36,14.36,0,0,1,8.56,3.21,13.74,13.74,0,0,1,4.28,7Z"/><path class="cls-12" d="M335.36,194.63c-1.87-20.83-2.75-37.49-3.21-49.19-.4-10.17-.59-19.33-5.88-21.92-4.27-2.1-8.81,1.59-19.79,5.88a152.14,152.14,0,0,1-26.2,6.95c-25.84,4.57-36-8.39-44.91-2.14-15.41,10.77,2.54,57.71-2.68,59.35-2.85.9-10.51-12.38-15-26.2-4.18-13-12-37.16.54-59.35,10.27-18.17,28.4-24.73,36.89-27.8,30.85-11.16,57.43.88,68.44,5.88,6.69,3,22.27,10.09,22.46,19.78.11,5.36-4.5,10.83-1.6,15,1.73,2.48,4.49,2.13,6.41,5.35,1.61,2.69,1.26,5.56,1.07,7.49-.71,7.45.69,15,.54,22.46-.24,11.68-.37,17.54-.54,18.18C350.67,179,347.15,187,335.36,194.63Z"/><rect class="cls-13" x="253.01" y="324.03" width="66.3" height="83.41" rx="6.71"/><rect class="cls-14" x="262.1" y="338.47" width="20.85" height="21.92"/><circle class="cls-15" cx="268.52" cy="345.96" r="3.74"/><circle class="cls-15" cx="268.52" cy="355.58" r="3.74"/><circle class="cls-15" cx="277.07" cy="350.23" r="3.74"/><path class="cls-8" d="M147.67,362a167.56,167.56,0,0,1-35.82-10.16c-17.15-7-27.33-11.16-32.08-21.39-5.44-11.69-.61-24.47,2.67-33.15,8.13-21.51,23.12-34.35,27.27-38,18.61-16.2,43.84-42.16,80.21-87.15.65-8.42.93-15.25,1.07-19.79.28-9.61.9-17.63,2.13-33.68.53-6.79,1-11.84,4.28-13.37,2.63-1.22,5.92.32,8,1.6,5.71-6.75,10.86-12.31,15-16.57C231.33,79,237.25,74.51,244.46,73.79c4.77-.48,6.46,1.08,6.95,1.6,2,2.13,1.9,6.08,0,10.16a23.2,23.2,0,0,1,7-4.81c2.24-1,5.1-2.27,8.55-1.6,1.38.26,3.7.72,4.82,2.67s.66,4.65-1.07,7c.71-.13,4.82-.84,7.48,1.61,3.16,2.9,3.34,9.37-1.07,14.43,1.81.15,3.82.64,4.82,2.14,3.05,4.6-5.95,15-6.42,15.51-6.89,7.81-10.79,5.79-17.11,12.83-3.34,3.72-2.48,4.54-9.09,17.11,0,0-4.35,8.27-10.16,17.65a243.07,243.07,0,0,1-15,21.39c-13.69,18-16.65,34-27.81,57.21a245.22,245.22,0,0,1-32.08,49.73,31.11,31.11,0,0,1,2.67,4.28c7.48,14.38,1.74,30.44,0,35.29a43.9,43.9,0,0,1-11.23,18.18A40.48,40.48,0,0,1,147.67,362Z"/><path class="cls-8" d="M442.3,416A260.91,260.91,0,0,1,461,477.5c3,17.28,2.76,27.27-2.67,36.36-1,1.64-7.28,11.85-19.25,15.5-6.66,2-17.94,2.91-44.38-13.9-31.1-19.76-54-48.12-54-48.12-9.45-11.7-14.31-20.13-26.2-24.6-7.63-2.87-10.46-1.22-26.73-5.35-12.61-3.2-19-4.89-24.6-9.62-1.28-1.09-12-10.45-12.83-23-.2-3,.34-3.89,0-9.09-.46-6.89-1.71-9.83,0-13.9,1-2.51,2-2.46,2.14-4.28.38-4.26-4.6-6.08-4.28-9.62.25-2.82,3.76-5.5,7-5.88,5.26-.63,9.4,5.06,14.44,10.69,13.55,15.15,27.89,23.47,28.34,23s-6.19-8.62-15-17.11c-5.4-5.21-9.33-8.28-10.16-13.9-.12-.79-.91-6.12,2.13-8.55,1-.77,3.07-1.86,8-.54,8.34,2.22,12.87,8.07,26.2,21.92,0,0,9.91,10.31,10.69,9.63.61-.53-6.41-6.56-6.42-15,0-.88.12-9.63,6.42-12.3,4.63-2,10.42.29,12.83,3.74,1.9,2.71.64,4.62,2.68,8,2.22,3.72,5.82,4.95,7.48,5.88,4,2.26,8,9.09,7,29.95l38,24.06c3.24,0,6.63-.17,10.16-.53A108.7,108.7,0,0,0,442.3,416Z"/><path class="cls-13" d="M131.1,366.81l-.54-8.55c3.14.73,6.35,1.45,9.63,2.13q4.06.86,8,1.61a37.7,37.7,0,0,1-17.11,4.81Z"/><path class="cls-16" d="M245.53,241.69c2.24,2.43,15.44,16.23,36.89,16.57a52.25,52.25,0,0,0,35.29-13.36,28.47,28.47,0,0,1-3.74,7.48c-7.71,10.95-21.07,13-25.67,13.37-12.87,1.13-22.37-4.72-26.73-7.49A49.94,49.94,0,0,1,245.53,241.69Z"/><path class="cls-17" d="M253.55,139.56a233.84,233.84,0,0,1-10,23.57,147.24,147.24,0,0,1-13,22.16c-2.49,3.5-5.1,6.86-7.48,10.3a106.68,106.68,0,0,0-6.51,10.75c-1,1.84-1.92,3.73-2.87,5.61s-1.78,3.79-2.57,5.73A120.71,120.71,0,0,0,207,229.55c-1.27,4-2.61,8.19-4.31,12.19a110,110,0,0,1-5.79,11.6,248.72,248.72,0,0,1-14.18,21.41c-4.92,6.95-10,13.83-15.38,20.46-2.71,3.3-5.49,6.55-8.43,9.66s-6,6-9.08,9L154,309c1.38-1.62,2.81-3.18,4.14-4.84q4-4.94,7.76-10.09c5-6.85,9.71-13.91,14.42-21s9.52-14.07,13.5-21.48a114,114,0,0,0,5.5-11.28c1.61-3.85,2.87-7.82,4.12-11.9a128.25,128.25,0,0,1,4.38-12.17,116.89,116.89,0,0,1,5.71-11.62,111.46,111.46,0,0,1,6.94-10.94c2.51-3.51,5.25-6.79,7.82-10.14A166.31,166.31,0,0,0,242,162.29C246.13,154.88,249.93,147.28,253.55,139.56Z"/><path class="cls-16" d="M350.33,408.52c14.52,7.74,30,16.75,46,27.27,13.65,9,26.12,18,37.43,26.73"/><path class="cls-16" d="M256.49,378.84a67.7,67.7,0,0,0,9.62,15.51,68.56,68.56,0,0,0,23.53,18.18"/><path class="cls-16" d="M251.14,400.23A56.32,56.32,0,0,0,287.5,425.9"/><path class="cls-16" d="M214.78,120a60.78,60.78,0,0,1,8-12.83A63.71,63.71,0,0,1,250.07,88"/><path class="cls-16" d="M225.47,125.39a122.47,122.47,0,0,1,44.92-34.22"/><path class="cls-16" d="M242.05,132.34a73.94,73.94,0,0,1,33.15-26.2"/><ellipse class="cls-4" cx="584.26" cy="434.45" rx="57.48" ry="59.62"/><path class="cls-18" d="M536.41,457.71a85.94,85.94,0,0,1,27.27-6.42,73.82,73.82,0,0,1,31,3.75A71.38,71.38,0,0,1,622,472.68c14.24-17.58,18.34-40.79,10.16-60.42-1.39-3.34-11.65-26.82-36.89-32.08-28.65-6-49.2,17.46-50.27,18.71C531.47,414.81,528.26,437.53,536.41,457.71Z"/><ellipse class="cls-4" cx="587.47" cy="414.93" rx="16.31" ry="16.04"/><rect class="cls-4" x="451.39" y="290.88" width="194.1" height="55.61" rx="6.67"/><path class="cls-19" d="M86.33,504.49l-8.5,9.68,6.78,11.17,12.48-3.07a43,43,0,0,0,10.4,7.64l.84,12.8,12.69,3.1,6.64-11a42.91,42.91,0,0,0,12.76-2l9.65,8.47,11.17-6.78L158.16,522a42.46,42.46,0,0,0,7.56-10.36l12.89-.84,3.1-12.69-11.08-6.71a43,43,0,0,0-2-12.58l8.57-9.76-6.78-11.17L157.79,461a42.48,42.48,0,0,0-10.21-7.47l-.84-13-12.7-3.1-6.75,11.16a43,43,0,0,0-12.51,1.92l-9.79-8.6-11.17,6.79,3.11,12.61a42.75,42.75,0,0,0-7.54,10.26l-12.94.84-3.1,12.69,11.05,6.69A42.67,42.67,0,0,0,86.33,504.49Zm13.41-19.55a28.59,28.59,0,1,1,21,34.55A28.59,28.59,0,0,1,99.74,484.94Z"/><path class="cls-12" d="M27.35,422.14l-6.29,7.17,5,8.27,9.24-2.27A31.71,31.71,0,0,0,43,441l.62,9.48,9.4,2.3L58,444.62a31.78,31.78,0,0,0,9.44-1.47l7.15,6.28,8.28-5-2.28-9.26a31.72,31.72,0,0,0,5.6-7.67l9.54-.63,2.3-9.4-8.21-5a31.52,31.52,0,0,0-1.46-9.31l6.35-7.23-5-8.28L80.28,390a31.62,31.62,0,0,0-7.56-5.54l-.62-9.64-9.41-2.29-5,8.26a31.88,31.88,0,0,0-9.26,1.43l-7.25-6.37-8.28,5,2.3,9.35a31.47,31.47,0,0,0-5.58,7.59l-9.58.62-2.3,9.4,8.18,5A31.7,31.7,0,0,0,27.35,422.14Zm9.93-14.48a21.17,21.17,0,1,1,15.55,25.59A21.18,21.18,0,0,1,37.28,407.66Z"/><path class="cls-11" d="M740.71,34.65l-1.63-8.09c-.11-.53-.23-1.06-.36-1.58s-.28-1.05-.44-1.57-.33-1-.51-1.53-.38-1-.59-1.51-.43-1-.66-1.48-.48-1-.73-1.45-.53-.94-.81-1.41-.57-.91-.87-1.36-.61-.89-.94-1.33-.65-.85-1-1.27-.7-.83-1.06-1.22-.74-.8-1.12-1.18-.78-.75-1.18-1.11-.81-.71-1.23-1.05-.84-.68-1.28-1-.88-.63-1.33-.93-.9-.58-1.37-.86-.93-.54-1.41-.8-1-.49-1.45-.72-1-.45-1.48-.65-1-.4-1.52-.58-1-.35-1.54-.51L714.64,1c-.53-.13-1-.25-1.58-.36S712,.49,711.46.41s-1.07-.14-1.61-.19L708.23.1q-.81,0-1.62,0c-.54,0-1.08,0-1.62,0s-1.08.07-1.61.13-1.08.12-1.61.2-1.07.18-1.6.28-1,.23-1.58.36-1,.28-1.56.44-1,.33-1.54.51-1,.38-1.51.59-1,.43-1.48.66-1,.48-1.44.73-.95.53-1.41.81-.92.57-1.37.87-.89.61-1.32.93-.86.66-1.27,1-.83.7-1.23,1.07-.79.73-1.17,1.12-.75.77-1.11,1.17-.72.82-1.06,1.23-.67.85-1,1.29-.63.87-.93,1.32-.59.91-.86,1.37-.55.94-.8,1.42-.49,1-.72,1.45-.45,1-.66,1.48-.4,1-.58,1.52-.34,1-.5,1.54-.3,1-.43,1.56-.24,1.05-.35,1.58-.19,1.06-.27,1.6-.14,1.07-.19,1.61-.09,1.08-.12,1.61,0,1.08,0,1.63,0,1.08,0,1.62.07,1.07.12,1.61.13,1.08.21,1.61.17,1.07.28,1.6L676,47.72q-.59.12-1.17.3a11.75,11.75,0,0,0-1.13.41c-.37.16-.74.33-1.09.52a10.91,10.91,0,0,0-1,.63,9.74,9.74,0,0,0-1,.72,11.52,11.52,0,0,0-.89.82,11.75,11.75,0,0,0-.81.9,11.5,11.5,0,0,0-.71,1c-.22.34-.43.69-.62,1a12.11,12.11,0,0,0-.51,1.1,11,11,0,0,0-.4,1.14,11.94,11.94,0,0,0-.29,1.18,9.9,9.9,0,0,0-.17,1.2,12.1,12.1,0,0,0-.06,1.21,9.82,9.82,0,0,0,.07,1.21q.06.6.18,1.2l9.78,48.45a12,12,0,0,0,.3,1.18,11,11,0,0,0,.41,1.14c.15.37.33.74.52,1.1s.4.7.62,1,.47.66.73,1a9.71,9.71,0,0,0,.81.89,10.07,10.07,0,0,0,.9.82c.31.25.63.49,1,.72a11.89,11.89,0,0,0,1,.62,10.81,10.81,0,0,0,1.09.51,11.82,11.82,0,0,0,2.31.7,11.77,11.77,0,0,0,1.19.18,12.1,12.1,0,0,0,1.21.06c.4,0,.8,0,1.2-.07s.8-.1,1.2-.18l64.73-13.07a9.09,9.09,0,0,0,1.17-.29c.39-.12.77-.26,1.14-.41s.73-.33,1.09-.52.7-.4,1-.63.65-.47,1-.72.6-.53.89-.82.55-.59.8-.9a10.8,10.8,0,0,0,1.33-2c.19-.35.36-.72.52-1.09s.28-.76.4-1.14.21-.78.29-1.18.13-.8.17-1.2a9.8,9.8,0,0,0,.05-1.21,12.1,12.1,0,0,0-.06-1.21,12,12,0,0,0-.18-1.2l-9.78-48.46q-.12-.59-.3-1.17c-.12-.39-.26-.77-.41-1.14s-.33-.74-.52-1.1-.4-.7-.63-1a11.05,11.05,0,0,0-.72-1q-.39-.46-.81-.9t-.9-.81c-.31-.25-.64-.49-1-.72s-.68-.43-1-.62-.72-.36-1.09-.52a11.86,11.86,0,0,0-1.14-.4,10,10,0,0,0-1.17-.29q-.6-.12-1.2-.18t-1.2-.06c-.4,0-.81,0-1.21.06S741.11,34.57,740.71,34.65Zm-58.28,3.17c-.08-.39-.15-.79-.21-1.19s-.11-.8-.15-1.21-.07-.8-.09-1.2,0-.81,0-1.22,0-.81,0-1.21,0-.81.09-1.21.08-.81.14-1.2.13-.8.21-1.2.16-.79.26-1.18.2-.79.32-1.18.24-.77.38-1.15.28-.76.43-1.13.32-.75.49-1.11.35-.73.54-1.09.39-.71.6-1.05.42-.69.65-1,.45-.67.69-1,.49-.64.75-1,.52-.63.79-.92.54-.6.83-.89.58-.56.88-.83.6-.54.91-.8.63-.51,1-.75.65-.47,1-.7.68-.44,1-.65.7-.41,1.06-.6.72-.38,1.08-.55.74-.34,1.11-.5l1.13-.44c.38-.14.76-.26,1.15-.38L700.6,9c.39-.1.79-.19,1.18-.27s.8-.15,1.2-.21l1.2-.15,1.21-.09c.41,0,.81,0,1.22,0s.81,0,1.21,0l1.21.08c.4,0,.81.09,1.21.15l1.19.2c.4.08.8.17,1.19.27s.78.2,1.17.32.77.24,1.15.37.76.28,1.14.44l1.11.48c.36.18.73.36,1.08.55s.71.39,1.06.59.69.42,1,.65.67.45,1,.69.65.49,1,.75.62.52.92.79.6.54.88.83.57.58.84.88.54.6.8.91.51.63.75,1,.47.65.7,1,.44.67.65,1,.41.7.6,1.05.38.72.55,1.08.34.74.5,1.11.3.75.44,1.13.26.77.38,1.15.23.78.33,1.17.19.79.27,1.18l1.63,8.08L684.06,45.9Zm37.89,41.77,1,5.19a3.71,3.71,0,0,1,.08.81,4.43,4.43,0,0,1-.07.81,5.81,5.81,0,0,1-.24.78,3.72,3.72,0,0,1-.38.71A4.07,4.07,0,0,1,719.62,89a4.9,4.9,0,0,1-.71.39,4.6,4.6,0,0,1-.78.23,3.9,3.9,0,0,1-1.62,0,3.52,3.52,0,0,1-.78-.24,4.14,4.14,0,0,1-.72-.38,5,5,0,0,1-.63-.51,3.9,3.9,0,0,1-.51-.63,4,4,0,0,1-.51-1,4.21,4.21,0,0,1-.12-.48l-1-5.17a7.62,7.62,0,0,1-1.64-.76,6.19,6.19,0,0,1-.75-.51,7.56,7.56,0,0,1-.69-.58c-.21-.21-.42-.43-.62-.66s-.37-.47-.54-.72a9.15,9.15,0,0,1-.84-1.6,8.84,8.84,0,0,1-.47-1.74,6.86,6.86,0,0,1-.09-.9c0-.3,0-.6,0-.91a9,9,0,0,1,.31-1.77c.09-.29.19-.58.3-.86s.25-.55.39-.81a7.54,7.54,0,0,1,.47-.77c.18-.25.36-.49.56-.72s.41-.44.63-.64a7.69,7.69,0,0,1,.7-.58c.24-.18.49-.34.75-.5s.53-.28.81-.41.56-.22.84-.32a8.7,8.7,0,0,1,.88-.22,6.58,6.58,0,0,1,.89-.13,9.1,9.1,0,0,1,.91,0c.3,0,.6,0,.9.07s.59.09.89.16.58.16.86.26a7.7,7.7,0,0,1,.83.36,6.69,6.69,0,0,1,.79.44,7.57,7.57,0,0,1,.74.52,8.63,8.63,0,0,1,1.81,2,8.62,8.62,0,0,1,.44.78,6.85,6.85,0,0,1,.36.84,8.57,8.57,0,0,1,.27.86,8.74,8.74,0,0,1,.17.89c0,.3.06.6.07.9s0,.6,0,.9-.07.6-.12.9a9.89,9.89,0,0,1-.54,1.72,7.68,7.68,0,0,1-.41.81,8.9,8.9,0,0,1-.49.76c-.18.24-.37.47-.57.7S720.55,79.39,720.32,79.59Z"/><text class="cls-20" transform="translate(446.69 264.15)">*</text><text class="cls-20" transform="translate(469.15 264.69)">*</text><text class="cls-20" transform="translate(491.61 263.08)">*</text><text class="cls-20" transform="translate(516.2 263.08)">*</text><text class="cls-20" transform="translate(538.13 263.08)">*</text><text class="cls-20" transform="translate(561.12 263.62)">*</text><text class="cls-20" transform="translate(585.18 263.08)">*</text><text class="cls-20" transform="translate(608.71 261.48)">*</text><text class="cls-20" transform="translate(630.63 262.55)">*</text><path class="cls-4" d="M157.81,98.37l-.18-.24c-3.23-4.26-3.08-8.87-.65-14.53,3-7.16,3.05-9.88.5-13.25-2.4-3.17-6.64-3.47-10.16-.8a8.15,8.15,0,0,0-3.2,9.2,8,8,0,0,1-3.21,8.47c-3.68,2.78-7.75,2.3-10.38-1.25a12,12,0,0,1-2.34-5.62c-1.11-6.92,2.88-15.24,11.77-22,11.86-9,24.34-8.72,31.54.79,4.36,5.75,4.69,11.79,1.45,19.47-2.88,6.81-3,9.12-1.81,12.26l.18.49a6.94,6.94,0,0,1-2.58,8.55C165,102.79,160.63,102.09,157.81,98.37Zm12,18a9.3,9.3,0,1,1,12.73,1.43A9,9,0,0,1,169.83,116.36Z"/><path class="cls-4" d="M132.84,138.73l-.13-.18c-2.42-3.19-2.31-6.65-.49-10.89,2.21-5.37,2.28-7.41.37-9.93s-5-2.6-7.61-.6a6.1,6.1,0,0,0-2.4,6.89,6,6,0,0,1-2.4,6.35c-2.76,2.09-5.81,1.72-7.78-.94a8.86,8.86,0,0,1-1.76-4.21c-.83-5.18,2.16-11.42,8.82-16.47,8.9-6.74,18.25-6.53,23.65.6,3.26,4.31,3.51,8.83,1.08,14.59-2.16,5.11-2.23,6.84-1.36,9.19,0,.12.09.24.14.37a5.19,5.19,0,0,1-1.93,6.4A5.53,5.53,0,0,1,132.84,138.73Zm9,13.49a7,7,0,1,1,9.55,1.07A6.75,6.75,0,0,1,141.85,152.22Z"/><path class="cls-4" d="M194.15,73.7l0-.21c-.66-4,1-7,4.61-9.89,4.45-3.74,5.45-5.51,4.93-8.63-.5-2.94-3.21-4.61-6.48-4.06a6.12,6.12,0,0,0-5.32,5,6,6,0,0,1-5.06,4.51c-3.42.58-5.95-1.16-6.47-4.43a8.89,8.89,0,0,1,.39-4.54c1.66-5,7.2-9.13,15.44-10.52,11-1.87,19.2,2.65,20.69,11.46.91,5.33-1,9.46-5.79,13.44-4.27,3.53-5.13,5-5.45,7.52,0,.13,0,.26,0,.39a5.2,5.2,0,0,1-4.68,4.79A5.53,5.53,0,0,1,194.15,73.7Zm1.75,16.13a7,7,0,1,1,8,5.37A6.75,6.75,0,0,1,195.9,89.83Z"/><path class="cls-21" d="M545.66,1.36l.25.25,1.25,0,.49.44h.25l.5,0,.5.25.5.26.49.26.25.5.24.25.5.26.24.51.25.25.49.51,29.83,53.5,29.52,53.18.24.5.49,1,.37.51,0,1.25.12.5-.13.75,0,1-.38.5-.06.5v.5l-.45.25-.25.24-.26.5-.26.25-.25.25-.25.24-.26.5-.25.25-.5.24-.51.24-.5.25-.25.24-.51.32h-.5l-.5.43-1-.45-.5.43-61-.83L483,120.89l-1.75,0-.51.43h-.5l-.49-.76-.24-.25L479,120l-1-.51-.5-.51-.24-.25-.24-.51-.25-.25-.24-.51-.25-.25-.21-.26v-.49l-.43-.26v-.5l.44-.25v-1l-.77-.76.79-.49V112l0-1v-.51l.48-.49L507.6,57.6,538.86,5.17l.26-.5.51-.49.25-.5.26-.24.5-.5.26-.25.5-.24.25-.24.76-.25.5-.39h.5l.5.44h1.24l.51-.24"/><path class="cls-22" d="M546.11,5.52l.25-.25.5.26.49.44h.25l.25.33.74.76,59.34,106.43.48.51v.5l.43.25v1l-.43.74-.25.5-.26.5-1,1-.5.24-.51.24-.75.1-122.8-1.66-.26.43h-.5l-.24-.87h-.25l-.25-.18-.49-.26-.5-.51-.23-.75-.25-.5-.17-.76v-.5l.19-.75.26-.49v-.53h.24L542.2,7V6.72l.15-.25.25-.24.51-.5.25-.25h.25l.25-.43h.75l.25.44Zm49.77,104.75-104-1.41,53.25-89.63,50.81,91"/><path class="cls-22" d="M536.34,44.21l.16-.5V43l.44-.5v-.75l.44-.24v-.25l.49-1.25.52-1,1-.74.76-.74,1.25-.48,1-.49,1.25-.26,1,0,1.25.29,1,.26,1.25.27.74.76,1,.51.74.76.74,1,.33.76v.5l.4.26,0,.5v.5l.42.51v1.25l-3.41,32.95-.26,1-.26.75-.76.74-.51.74-.76.49-.75.24-.75,0-1.75,0-1-.08-.74-.25-1.49-1-.49-.76-.49-1-.23-1Zm7.57,42.57,1.75.28,1.49.52,1.24.77,1.24,1,1,1.26.73,1.26.48,1.51.23,1.76-.27,1.5-.52,1.49-.77,1.5-1,1.23-1.26,1-1.26.73-1.51.48-3.25,0-1.49-.52-1.49-.77-1.23-1-1-1.27L536.27,98l-.48-1.51,0-3.25.52-1.5.77-1.24,1-1.24,1.27-1,1.5-.73,1.51-.49,1.5-.23"/><text class="cls-23" transform="translate(498.06 328.16)">M<tspan class="cls-24" x="25.44" y="0">A</tspan><tspan x="45.48" y="0">SUK</tspan></text></g></g></svg>