<svg xmlns="http://www.w3.org/2000/svg" xmlns:xlink="http://www.w3.org/1999/xlink" viewBox="0 0 340.73 245.94"><defs><style>.cls-1,.cls-10,.cls-11,.cls-12,.cls-13,.cls-14,.cls-21,.cls-22,.cls-8,.cls-9{fill:none;}.cls-2{fill:#ffe1b6;}.cls-3{fill:#2b296b;}.cls-4{fill:#babddf;}.cls-5{fill:#5a71b6;}.cls-6{fill:#dfdfed;}.cls-7{fill:#2a2b6a;}.cls-21,.cls-8{stroke:#f8f5f9;}.cls-10,.cls-11,.cls-12,.cls-13,.cls-14,.cls-21,.cls-22,.cls-8,.cls-9{stroke-linecap:round;stroke-miterlimit:10;}.cls-8{stroke-width:7.82px;}.cls-13,.cls-22,.cls-9{stroke:#435aa8;}.cls-9{stroke-width:6.95px;}.cls-10,.cls-12{stroke:#babddf;}.cls-10{stroke-width:9.18px;}.cls-11,.cls-14{stroke:#2a2b6a;}.cls-11{stroke-width:8.95px;}.cls-12,.cls-13,.cls-14,.cls-21{stroke-width:2.32px;}.cls-15{fill:#1a1449;}.cls-16{fill:#263238;}.cls-17{clip-path:url(#clip-path);}.cls-18{fill:#dbe1f1;}.cls-19{fill:#435aa8;}.cls-20{fill:#fbf6fa;}.cls-22{stroke-width:2.66px;}.cls-23{clip-path:url(#clip-path-2);}.cls-24{fill:#bda787;}.cls-25{fill:#231e55;}.cls-26{clip-path:url(#clip-path-3);}</style><clipPath id="clip-path"><ellipse class="cls-1" cx="136.5" cy="32.01" rx="21.15" ry="21.29"/></clipPath><clipPath id="clip-path-2"><path class="cls-2" d="M92.18,32.16a7.18,7.18,0,0,1,3.47,3.76A7,7,0,0,1,95.94,40l2.9,3.18a1.69,1.69,0,0,1,.29,1.16,1.82,1.82,0,0,1-1.45,1.45l1.45,7.82A4.34,4.34,0,0,1,98,55c-2.13,1.72-5.16.66-5.44.56l-1.11,2.2-13.15-.73L78,51.85l9.27-19.12Z"/></clipPath><clipPath id="clip-path-3"><path class="cls-2" d="M96.81,57.65a6,6,0,0,1,2.61,2.6,49.45,49.45,0,0,1,3.48,4.35c4.26,6.1,5.8,17.9,13.32,23.46,4.31,3.19,10.15,4,14.49,2.32,1-.37,4-1.55,4.63-4,.25-.93.37-2.76-4.63-9-3.06-3.8-4.55-5.73-7.25-7.83-3.67-2.85-5.88-3.64-9.84-7.24A28,28,0,0,1,110.4,59c-1.39-1.71-1.44-2.21-3-4-2.57-3-3.69-3-4-3a3.5,3.5,0,0,1-1.66-.15A5.14,5.14,0,0,1,100.4,51c-.42-.39-.53-.63-.69-.59s-.42.87-.31,1.59.29.76,1,2a15.81,15.81,0,0,1,1,2,2.58,2.58,0,0,1,.34,1.65c0,.1-.19.8-.58.87s-.78-1.22-2-2A3.66,3.66,0,0,0,96.4,56c-.54.12-1.34.44-1.32.78S96,57.23,96.81,57.65Z"/></clipPath></defs><g id="Layer_2" data-name="Layer 2"><polygon class="cls-3" points="217.03 108.63 217.03 166.86 209.79 166.86 209.79 108.34 217.03 108.63"/><polygon class="cls-4" points="207.18 104.58 202.26 172.07 206.03 172.36 211.24 104.87 207.18 104.58"/><polygon class="cls-5" points="195.89 163.96 195.89 224.8 197.91 230.3 201.1 231.75 225.43 231.75 228.91 229.14 228.91 223.06 228.91 164.25 195.89 163.96"/><rect class="cls-6" x="37.14" width="63.15" height="64.31" rx="10.12"/><path class="cls-5" d="M54.81,18.25v29a4.73,4.73,0,0,0,7.24,3.19L89,37.66a4.63,4.63,0,0,0,2-3.48,4.43,4.43,0,0,0-2.32-4.05L60.31,15.64a5.24,5.24,0,0,0-5.5,2.61Z"/><path class="cls-3" d="M41.48,197.57V195a9,9,0,0,1-2.6-1.45,9.83,9.83,0,0,1-2.9-4.06c-1-2.33-1.76-2.32-8.11-10.13-3.44-4.24-5.92-7.58-7.82-10.14-2.22-3-4.34-5.86-7-9.85-1.56-2.39-3-4.55-4.63-7.53a97.18,97.18,0,0,1-4.64-9.56L.35,134.12c-.23-.61-.46-1.35-.29-1.44s.8.6,1.45,1.44a43.82,43.82,0,0,1,4.34,7c1.64,3.26,1.43,3.29,2.32,4.63a23.73,23.73,0,0,0,3.48,4.06c2.74,2.7,3.83,3.22,6.08,5.21,1.77,1.57,3.6,3.75,7.24,8.11,1.78,2.14,3.09,3.78,4.93,6.09,2.29,2.89,3.26,4.17,5.21,6.66,1.64,2.09,4,5.07,7,8.69v-5.79c-.33-1.75-.82-4.25-1.45-7.25-1.37-6.54-1.79-7.76-2-8.4a25.69,25.69,0,0,0-5.51-8.69,62.76,62.76,0,0,1-3.76-6.08,53.15,53.15,0,0,1-2.9-6.08,51.13,51.13,0,0,1-2.32-7.54c-.66-2.8-1.27-5.9-1.74-9.27s-.74-6.63-.86-9.56L20.05,98.78a78.68,78.68,0,0,0,2.89,11.59c1.73,5.17,3.11,7.46,5.22,13.33,1.58,4.4,2.59,8.06,3.18,10.42.74,2.93,1.18,5.32,1.45,7,.45,2.71.59,4.43,1.74,6.66a12.36,12.36,0,0,0,1.74,2.61c1.57,1.8,2.66,1.94,3.77,3.18a7.6,7.6,0,0,1,1.73,4.93l.58,5.5.58,4.35.87-10.72L45,148.32a11.16,11.16,0,0,0,0-3.19,13,13,0,0,0-1.74-4.63c-.62-1.18-.42-1.1-2.32-7.82-.65-2.31-.24-.8-2.89-9.85-.87-3-1.57-5.38-2-7l-2-9L32.5,99.36a102.23,102.23,0,0,1-.87-11.59c-.07-4.5-.1-7,.58-10.42.13-.65.2-.87,1.23-5.33.59-2.53,1.07-4.61,1.38-6,.56,2.69,1.06,5.6,1.45,8.69a111.58,111.58,0,0,1,.87,11.88l1.45,16.51a14.84,14.84,0,0,0,2.31,7,7.55,7.55,0,0,1,3.77,3.77,7.35,7.35,0,0,1,.58,3.47l-.87,5.51-.58,6.08a27.88,27.88,0,0,0,.58,8.69,27.21,27.21,0,0,0,1.16,3.77l.58-6.38,1.16-9.85.87-7.82,2-33.89a44.23,44.23,0,0,1-.29-8.11c.36-6.28,2-10.82,4.06-16.51A110.57,110.57,0,0,1,60.6,44a113.23,113.23,0,0,1-1.74,18,113.69,113.69,0,0,1-2.6,11.3l-6.2,41.14-3.07,31a16.59,16.59,0,0,0,2-4.34c1.35-4.6-.13-7.35.57-12.46a22.81,22.81,0,0,1,2-6.66,45.24,45.24,0,0,0,8.11-16.22c1-3.72,1-6,2.32-11.3A81.52,81.52,0,0,1,66.4,81.69a18,18,0,0,1,2.31,3.77c2.42,5.29,1.58,10.32.87,14.19a40.11,40.11,0,0,1-7.24,16.51L50.75,141.08l-4,8.11-1.45,20-.58,6.37,3.19-12.46a28.84,28.84,0,0,1,2.6-9.85c2.69-5.69,6.07-7.73,11.3-14.48a77.72,77.72,0,0,0,6.66-10.14,26.71,26.71,0,0,1-.58,13.91A29.25,29.25,0,0,1,65,148.61,35.82,35.82,0,0,1,60,154.69c-3.72,4-5,4.34-7.24,7.24a27.54,27.54,0,0,0-3.47,5.8l-1.45,7-1.74,4.93-2,2.31v4.93l.29.87,2-2.32,22.3-25.78-2.6,18-3.77,2-9.56,5.5-4.63,4.63-2.61,3.77-2,1.45v2.61Z"/><polygon class="cls-5" points="23.23 195.83 62.26 195.83 53.94 233.78 31.05 233.78 23.23 195.83"/><path class="cls-3" d="M294.09,197v-2.9s-1.45-1.16-2.32-2-4.63-5.79-4.63-5.79h0c-7.24-4.74-8.16-5.34-9.27-6.09-3.46-2.31-8.23-5.65-13.91-10.13l1.16-9.85,8.4,3.76,20,22.89V179.9a22.81,22.81,0,0,1-2.61-3.48c-2.74-4.54-2.34-7.65-3.76-11.88-1.14-3.37-3-5.62-6.67-10.14a61.82,61.82,0,0,0-10.13-9.85q-.3-9.12-.58-18.25c4.5,6.06,8.1,10.84,10.42,13.91,5,6.62,5.86,7.65,7,10.14.78,1.77,1.77,6.1,3.76,14.77l2,9h0l-2-28.68-16.8-34.18-3.76-10.72,4.92-8.69s3.77,15.35,5.21,17.38c1.66,2.32,4.82,5.3,6.38,10.72a27.66,27.66,0,0,1,.87,5.21,151.67,151.67,0,0,0,2.6,15.94l-6.66-64.6S277,53,276.71,49.54s-.58-15.07-.58-15.07,8.4,15.65,9.85,23.47.87,19.7.87,19.7l.29,13.9,4.63,45.77a42.6,42.6,0,0,0,1.74-16.51c-.39-3.85-1.24-6.46-.29-10.43,1-4.35,3.17-5.77,4.93-9,3.33-6.07.07-8.89.57-21.44,0,0,.1-2.3,4.06-23.75h0a109,109,0,0,1,2.61,24.33c0,2.06-.1,3.71-.87,18.54h0c0,.07-2.5,12.74-6.66,26.07-.23.72-5.51,16.23-5.51,16.23h0L295,166c-1.09-8.91,1-13.73,3.19-16.51,1.54-1.94,3.36-3.15,5.21-6.38a23.59,23.59,0,0,0,2.9-9.27c1.92-15.32,12.45-40.55,12.45-40.55h0s-1.45,29-3.76,37.08a87.18,87.18,0,0,1-6.67,15.93h0c-7.14,10.41-7.43,10.77-8.11,12.17-1.1,2.28-4.63,18-4.63,18h0l.29,6.08,20.86-25.78c1.51-1.73,3.86-4.31,6.95-7.24,5.16-4.92,5.49-4.28,7.24-6.66,3.27-4.47,2.67-7.47,6.66-11.88a22.05,22.05,0,0,1,3.19-2.9,158.41,158.41,0,0,1-11,23.18c-5.25,9.07-8.28,14.31-13.9,20.27-4.44,4.72-10.32,9.7-12.17,14.2a22.69,22.69,0,0,1-3.77,5.79,6.06,6.06,0,0,1-2,1.74,5.65,5.65,0,0,1-1.74.58v3.48Z"/><polygon class="cls-5" points="282.96 233.28 305.97 233.28 314.66 196.7 268.6 196.7 282.96 233.28"/><rect class="cls-6" x="109.41" y="73.44" width="118.19" height="36.21" rx="6.43"/><rect class="cls-7" x="119.7" y="80.82" width="22.02" height="21.73" rx="4.63"/><rect class="cls-5" x="157.07" y="80.82" width="22.02" height="21.73" rx="4.63"/><rect class="cls-4" x="194.15" y="80.82" width="22.02" height="21.73" rx="4.63"/><rect class="cls-6" x="236.15" y="0.29" width="63.44" height="63.73" rx="9.14"/><line class="cls-8" x1="246.58" y1="23.17" x2="246.58" y2="48.96"/><line class="cls-9" x1="274.54" y1="32.01" x2="274.54" y2="50.41"/><line class="cls-10" x1="289.31" y1="13.47" x2="289.31" y2="48.96"/><line class="cls-11" x1="260.34" y1="15.21" x2="260.34" y2="48.96"/><rect class="cls-6" x="111.01" y="118.48" width="118.19" height="10.72" rx="2.92"/><line class="cls-12" x1="115.93" y1="123.7" x2="130.42" y2="123.7"/><line class="cls-13" x1="138.82" y1="123.7" x2="153.3" y2="123.7"/><line class="cls-14" x1="161.41" y1="123.7" x2="175.9" y2="123.7"/><line class="cls-13" x1="184.59" y1="123.7" x2="199.07" y2="123.7"/><line class="cls-12" x1="206.31" y1="123.7" x2="220.8" y2="123.7"/><path class="cls-2" d="M251.51,66.63a5.38,5.38,0,0,0-2-2.61A10.85,10.85,0,0,0,247.19,63a1.44,1.44,0,0,1-.57-.31,1.15,1.15,0,0,1-.25-.67,17.22,17.22,0,0,1,0-3.29c0-1,.09-2.11.13-3.16,0-.36,0-.71,0-1.06,0-.19,0-.38,0-.57a1.68,1.68,0,0,0,0-.59L246,51.85l1.91-2.44a.48.48,0,0,0,.08-.16.25.25,0,0,0,0-.12,9.74,9.74,0,0,1-.19-3.09,6.85,6.85,0,0,1,.55-1.89,3.33,3.33,0,0,1,.48-.89c.1-.1.13-.09.26-.09l1.79.1,3.53.18,10.72,14.78.29,4.05Z"/><path class="cls-15" d="M252.66,52.43c.18-.06-.43-1.25,0-2.6.11-.34.42-1.31,1.16-1.45a1.79,1.79,0,0,1,1.74,1.16l2.61,9L259,60a9.46,9.46,0,0,0,2,1.15,9.9,9.9,0,0,0,5.5.58,5.74,5.74,0,0,0,1.16-1.16,6.27,6.27,0,0,0,1.16-2.6l2.31-2.32a5.33,5.33,0,0,0,1.45-3.19,5.19,5.19,0,0,0-.58-2.89c.19-.52,1.51-4.24,0-7.25a8.93,8.93,0,0,0-1.44-2A7.8,7.8,0,0,0,268,38.53a8,8,0,0,0-11.59-2.9,8,8,0,0,0-6.08,2.9,6.23,6.23,0,0,0-1.45,4.63c.33,1.76,1.52,1.78,2,4.06a17.67,17.67,0,0,0,.58,3.19C251.93,51.61,252.51,52.49,252.66,52.43Z"/><path class="cls-2" d="M238.76,103.42a78.16,78.16,0,0,0-2.9,8.11A84.59,84.59,0,0,0,233,126a108.31,108.31,0,0,0-.87,14.78L235,152.37a7.78,7.78,0,0,0,1.45,1.74,8,8,0,0,0,3.19,1.74l-1.74-17.38a84.63,84.63,0,0,0,7-13.62,77.83,77.83,0,0,0,4.64-16.22c.3-1.9.48-3.51.58-4.63Z"/><path class="cls-5" d="M281.92,230c.08.21,1.21,3.39-.58,5.5a6.07,6.07,0,0,1-4,1.74c-1.36.2-2.66.4-3.77-.29-1.8-1.1-.83-3.11-2.61-4.92s-3.46-.61-5.5-2.61a5.37,5.37,0,0,1-1.74-4.34,4.8,4.8,0,0,1,1.74-2.9l5.79.87Z"/><path class="cls-16" d="M237.89,139.05a114.16,114.16,0,0,0-1.45,18.83c.07,9.92,1.36,12.8,2.32,25.49.51,6.8.54,13.32.58,26.36,0,9.7-.11,18.2-.29,25.21a10.09,10.09,0,0,0,5.79,3.18,9.9,9.9,0,0,0,5.22-.58,63.79,63.79,0,0,0,3.18-36.21c-.13-4.23-.26-9.82-.29-16.51,0-4.93,0-8.5,1.74-12.75a24.69,24.69,0,0,1,2.9-5.21,22.79,22.79,0,0,0,.87,5.21,22.43,22.43,0,0,0,2.61,5.8c2.55,7.07,4.31,13.13,5.5,17.67,2.73,10.4,2.92,14.48,2.9,17.09a46.74,46.74,0,0,1-1.45,11c0,.29,1,5.53,5.79,7.53a9.88,9.88,0,0,0,7.82-.29,135,135,0,0,0-.87-25.49A116.63,116.63,0,0,0,277,186.27c-2.15-7.36-3.3-8.34-3.77-13.33-.43-4.59.42-5.22.58-15.64a80.46,80.46,0,0,0-.29-10.43,58.33,58.33,0,0,0-2.32-11Z"/><path class="cls-2" d="M241.66,78.5,227.75,58.23a7.35,7.35,0,0,1-2.61-.58,8,8,0,0,1-4-4.35l2.61-10.14a8.77,8.77,0,0,1,3.76,2.32A9.58,9.58,0,0,1,229.78,53l13,11.88L249.48,71Z"/><rect class="cls-6" x="110.43" y="0.29" width="114.86" height="64.17" rx="9.28"/><g class="cls-17"><path class="cls-5" d="M118.68,19.84l5.8,4.06c5.26-6.56,14-8.23,20-4.64,6.59,4,6.8,12.41,6.8,12.9h6.67c-.34-8.12-4.66-15.45-11.45-19C137.61,8.56,125.82,11.12,118.68,19.84Z"/><path class="cls-4" d="M151.27,32.16h6.67a21.61,21.61,0,0,1-7,15.93A21.22,21.22,0,0,1,136.5,53.3V46.64a14.35,14.35,0,0,0,14.77-14.48Z"/><path class="cls-7" d="M124.62,23.75l-6.08-4.34a22.6,22.6,0,0,0,.29,24.33c6.06,8.93,16.52,9.52,17.67,9.56V46.35c-.73,0-7.73-.08-11.88-5.79A14.83,14.83,0,0,1,124.62,23.75Z"/><circle class="cls-18" cx="136.65" cy="32.01" r="14.92"/><circle class="cls-19" cx="136.5" cy="32.44" r="8.4"/></g><circle class="cls-19" cx="171.55" cy="20.57" r="2.61"/><circle class="cls-20" cx="171.55" cy="33.31" r="2.61"/><circle class="cls-19" cx="171.55" cy="46.06" r="2.61"/><line class="cls-21" x1="181.4" y1="18.25" x2="220.22" y2="18.25"/><line class="cls-14" x1="181.4" y1="25.78" x2="220.22" y2="25.78"/><line class="cls-13" x1="181.4" y1="33.02" x2="220.22" y2="33.02"/><line class="cls-22" x1="169.24" y1="55.62" x2="220.22" y2="55.62"/><line class="cls-12" x1="181.4" y1="40.56" x2="220.22" y2="40.56"/><line class="cls-21" x1="181.11" y1="47.8" x2="219.93" y2="47.8"/><path class="cls-5" d="M265.41,62.57a14.53,14.53,0,0,0-8.11.58,14.34,14.34,0,0,0-4.64,2.9l-9.56,9.27a31.87,31.87,0,0,0-6.37,22.88q-.14,5.07-.29,10.14l12.17,3.19c-5.11,13.58-8.8,23.34-10.14,26.36-.24.53-.92,2-.29,3.19.5.92,1.53,1.08,3.19,1.74,2,.79,2.37,1.4,4.34,2.31,4.21,2,6.66,3.09,9.85,3.48,5.69.69,10.79-1.35,15.35-3.19.87-.34,1.57-.65,2-.87a111.54,111.54,0,0,1-2-14.19c-.58-7.56-1.1-14.23.58-22.31,1.61-7.72,3.54-8.59,4.35-16.51.78-7.65-.55-11.31-1.16-12.75a21.7,21.7,0,0,0-4.63-7.53,14.88,14.88,0,0,1-3.48-4.05A10.9,10.9,0,0,1,265.41,62.57Z"/><path class="cls-2" d="M92.18,32.16a7.18,7.18,0,0,1,3.47,3.76A7,7,0,0,1,95.94,40l2.9,3.18a1.69,1.69,0,0,1,.29,1.16,1.82,1.82,0,0,1-1.45,1.45l1.45,7.82A4.34,4.34,0,0,1,98,55c-2.13,1.72-5.16.66-5.44.56l-1.11,2.2-13.15-.73L78,51.85l9.27-19.12Z"/><g class="cls-23"><path class="cls-24" d="M92.53,55.6a11.17,11.17,0,0,1-6.25-4.78l4,11.39Z"/></g><path class="cls-25" d="M89.86,44.32c.22,0,.44-1.28.58-5.5A11.06,11.06,0,0,0,91,37.08a10.92,10.92,0,0,0,.29-3.19,10.29,10.29,0,0,0,2.32-3.18c.51-1.12.92-2,.58-2.9-.62-1.56-3.07-1.73-3.19-1.74a3.19,3.19,0,0,0-6.08-1.16l-5.51-.58c-.48.12-5.65,1.45-7.24,6.09a8.64,8.64,0,0,0-.29,4.34A4.23,4.23,0,0,0,70.16,40c-1.6,3.07-1.37,4.79-.87,5.79.62,1.22,1.56,1.21,2.32,2.9.69,1.53.26,2.31,1.16,3.47a4.76,4.76,0,0,0,2,1.45,6.42,6.42,0,0,0,4,.29,4.88,4.88,0,0,0,4.06-1.16,4.38,4.38,0,0,0,1.16-2,2.48,2.48,0,0,0,1.45-1.16c.5-1-.32-2,0-3.48a4,4,0,0,1,.86-1.74,2.7,2.7,0,0,1-.86-3.47A2.11,2.11,0,0,1,87.83,40C89.56,40.59,89.48,44.34,89.86,44.32Z"/><path class="cls-5" d="M63.21,233.2a12.53,12.53,0,0,0-.87,4.05c-.06,1.42-.12,2.92.87,4.06a3.62,3.62,0,0,0,1.16.87,4.6,4.6,0,0,0,3.19,0,5.77,5.77,0,0,0,2.89-1.45A5.16,5.16,0,0,0,71.61,239a5.56,5.56,0,0,0,.29-3.19,9.37,9.37,0,0,0,3.48-2.89,8.49,8.49,0,0,0,1.45-3.19c.18-.93.64-3.25-.58-4.05-1.06-.7-2.68.16-2.9.29Z"/><path class="cls-16" d="M65.24,139.63c.32,9.57.21,17.64,0,23.75-.2,5.91-.39,10.88-1.16,17.38-1.06,8.89-2.48,14.35-3.19,18-1.54,7.83-2.22,19.47,2,35.64.86,2.27,2.7,3.93,4.64,4,2.81.18,6-2.89,5.79-7.24a92.67,92.67,0,0,1-.87-23.47,96.25,96.25,0,0,1,1.74-11.29c1.56-7.57,4.56-20.83,10.14-40a25,25,0,0,1,2.89,6.66,29.45,29.45,0,0,1,.58,10.72c0,.29.28,5.7.87,16.51.8,14.62,1.2,21.93,2.32,30.13a202,202,0,0,0,3.77,20,14,14,0,0,0,5.79-.58,13.63,13.63,0,0,0,4.34-2.32l-.86-33.6a131.47,131.47,0,0,1,0-22.89c.65-7.54,1.61-11.15,2.6-19.12a195.72,195.72,0,0,0,1.45-26.36Z"/><path class="cls-2" d="M96.81,57.65a6,6,0,0,1,2.61,2.6,49.45,49.45,0,0,1,3.48,4.35c4.26,6.1,5.8,17.9,13.32,23.46,4.31,3.19,10.15,4,14.49,2.32,1-.37,4-1.55,4.63-4,.25-.93.37-2.76-4.63-9-3.06-3.8-4.55-5.73-7.25-7.83-3.67-2.85-5.88-3.64-9.84-7.24A28,28,0,0,1,110.4,59c-1.39-1.71-1.44-2.21-3-4-2.57-3-3.69-3-4-3a3.5,3.5,0,0,1-1.66-.15A5.14,5.14,0,0,1,100.4,51c-.42-.39-.53-.63-.69-.59s-.42.87-.31,1.59.29.76,1,2a15.81,15.81,0,0,1,1,2,2.58,2.58,0,0,1,.34,1.65c0,.1-.19.8-.58.87s-.78-1.22-2-2A3.66,3.66,0,0,0,96.4,56c-.54.12-1.34.44-1.32.78S96,57.23,96.81,57.65Z"/><g class="cls-26"><path class="cls-24" d="M105.21,63.44c2.19,1.53,4,2.74,5.19,3.56l6,4,3,2a66,66,0,0,0,6,4c.84.46,1.55.79,2,1L122,77.64Z"/></g><path class="cls-2" d="M50.17,89.22l-6.08,14.2a5.54,5.54,0,0,0,0,2.32,5.69,5.69,0,0,0,2,3.18A125.21,125.21,0,0,0,67,132.1q.13-7.39.29-14.78a46.48,46.48,0,0,1-11-15.06l5.5-7.53Z"/><path class="cls-5" d="M79.14,55a4.72,4.72,0,0,0-2,1.16c-.88.88-.91,1.69-1.73,2.9a8,8,0,0,1-2,2l-8.11,4.35a38.35,38.35,0,0,0-7.82,7A39.48,39.48,0,0,0,49,89.22a18.31,18.31,0,0,0,3.47,2.9,19,19,0,0,0,6.37,2.61c.68,1.83,1.36,3.67,2,5.5a54.11,54.11,0,0,1,2.9,11.3c.66,4.66.05,4.93.87,11.3.54,4.18,1,6,.87,9.27a28.42,28.42,0,0,1-1.16,6.66,6.55,6.55,0,0,0,.58,3.77A6.93,6.93,0,0,0,69.29,146c10,1.52,17.64,1.35,20.57.58a23.66,23.66,0,0,0,4.06-1.45c1.75-.86,1.73-1.21,3.47-2,2.2-1,2.79-.74,4.06-1.73s1.12-1.5,2-2.32,2.5-1.63,5.5-1.45a5.27,5.27,0,0,0,1.16-1.74,5.7,5.7,0,0,0,0-4.05,129.25,129.25,0,0,1-2-44.9,3.38,3.38,0,0,1,2,0c1,.33,1.3,1,2.61,1.73a6.76,6.76,0,0,0,1.44.58,15.28,15.28,0,0,0,6.38-3.76,15.63,15.63,0,0,0,4.34-8.4,82.54,82.54,0,0,1-7.24-4.35,79.85,79.85,0,0,1-10.43-8.4,27.21,27.21,0,0,0-5.79-2c-3.74-.84-6.11-.5-8.11-2.31a6.78,6.78,0,0,1-1.74-2.61A31.1,31.1,0,0,0,79.14,55Z"/><path class="cls-5" d="M94.35,237.25a6.11,6.11,0,0,0-1,5.51,5.78,5.78,0,0,0,2.9,3.18c1.41-.26,2.85-.55,4.3-.87a131.87,131.87,0,0,0,14.54-4A3.48,3.48,0,0,0,117,237a3.15,3.15,0,0,0-3-2.31,25.94,25.94,0,0,1-3.77.29,25.18,25.18,0,0,1-5.32-.58,16.59,16.59,0,0,1-10.57,2.89Z"/></g></svg>