<svg xmlns="http://www.w3.org/2000/svg" xmlns:xlink="http://www.w3.org/1999/xlink" viewBox="0 0 411.98 316.13"><defs><style>.cls-1{fill:#5e67b0;}.cls-2{fill:#5f67b0;}.cls-21,.cls-28,.cls-29,.cls-3,.cls-30,.cls-5{fill:none;}.cls-4{fill:#e8eaf6;}.cls-12,.cls-5,.cls-6{stroke:#2b296b;}.cls-11,.cls-12,.cls-15,.cls-21,.cls-28,.cls-29,.cls-30,.cls-5,.cls-6{stroke-miterlimit:10;}.cls-5{stroke-width:0.43px;}.cls-12,.cls-6{fill:#2b296b;}.cls-6{stroke-width:1.51px;}.cls-6,.cls-7{fill-rule:evenodd;}.cls-7,.cls-8{fill:#273256;}.cls-9{fill:#fffffd;}.cls-10,.cls-31{fill:#8b8fc6;}.cls-11{fill:#d35850;stroke-width:0.36px;}.cls-11,.cls-15{stroke:#231f20;}.cls-12{stroke-width:0.84px;}.cls-13{clip-path:url(#clip-path);}.cls-14{clip-path:url(#clip-path-2);}.cls-15{fill:#ef4930;}.cls-15,.cls-21{stroke-width:1.09px;}.cls-16{clip-path:url(#clip-path-3);}.cls-17,.cls-18{fill:#fff;}.cls-18{font-size:18.01px;font-family:MADECarvingSoftPERSONALUSE-SemiBold, MADE Carving Soft PERSONAL USE;font-weight:600;}.cls-19{clip-path:url(#clip-path-4);}.cls-20{clip-path:url(#clip-path-5);}.cls-21{stroke:#8b8fc6;}.cls-22{fill:#ffe1b6;}.cls-23{fill:#2f2d3f;}.cls-24{fill:#24333a;}.cls-25{fill:#bda787;}.cls-26{fill:#2b2867;isolation:isolate;}.cls-27{fill:#5a71b6;}.cls-28{stroke:#ffe1b6;}.cls-28,.cls-29{stroke-width:0.18px;}.cls-29{stroke:#2f2d3f;}.cls-30{stroke:#375caa;stroke-width:1.82px;}.cls-31{opacity:0.4;}</style><clipPath id="clip-path"><path class="cls-1" d="M276.8,164.55c-3.44,3.87-4.78,8.15-3.27,10.9,1.07,1.94,3.21,2.48,7.09,3.45,2.7.68,9.54,2.3,16.71-.73,2-.84,3.37-1.44,4.18-2.9,2.28-4.15-2.67-10.25-2.91-10.54Z"/></clipPath><clipPath id="clip-path-2"><path class="cls-1" d="M251.37,161.28l16.89.36q-1.17,9.18-2.36,18.35l-12.53.18Q252.36,170.72,251.37,161.28Z"/></clipPath><clipPath id="clip-path-3"><polygon class="cls-2" points="347.45 179.99 365.94 315.52 407.83 315.34 409.34 179.45 347.45 179.99"/></clipPath><clipPath id="clip-path-4"><rect class="cls-3" x="284.5" y="87.34" width="9.55" height="12.17"/></clipPath><clipPath id="clip-path-5"><path class="cls-1" d="M141.09,22.48l.36,18.35-28.16.91q.18-9.63.37-19.26l13.8,12.35Z"/></clipPath></defs><g id="Layer_2" data-name="Layer 2"><g id="Layer_1-2" data-name="Layer 1"><path class="cls-4" d="M56.51,54.27C84.76,46,99.17,82.59,135.07,79c35.41-3.56,40.5-40.05,78.21-61.95,50.64-29.42,142-22,180,36.33,30.92,47.47,15.76,111.85-10,150.07-43.92,65.16-124.76,69.39-153.38,70.85-87.65,4.47-202-37.75-218-113.36C2.61,117.23,26.38,63.12,56.51,54.27Z"/><path class="cls-5" d="M46.88,54.27C75.13,46,89.54,82.59,125.44,79c35.41-3.56,40.5-40.05,78.21-61.95,50.64-29.42,142-22,180,36.33,30.92,47.47,15.76,111.85-10,150.07-43.92,65.16-124.76,69.39-153.38,70.85-87.65,4.47-202-37.75-218-113.36C-7,117.23,16.75,63.12,46.88,54.27Z"/><path class="cls-6" d="M13.52,235.44c-6.11,9.26,5.72,45.36,5.72,45.36,11.72,4.89,24.26,5,37.76-.57,0,0,10.69-34.53,5.85-43.33C57.33,226.86,17.37,229.58,13.52,235.44Z"/><path class="cls-1" d="M58.29,238.17a.5.5,0,0,1-.1.27,1.08,1.08,0,0,1-.29.26,3.51,3.51,0,0,1-.48.25,5.61,5.61,0,0,1-.67.25c-.25.08-.53.16-.85.24l-1,.23-1.18.21-1.33.19-1.47.18-1.59.16-1.69.13-1.79.11c-.61,0-1.24.07-1.87.09l-1.92.07-2,0h-4l-2,0-1.92-.07q-.95,0-1.86-.09l-1.79-.11-1.7-.13-1.59-.16-1.47-.18c-.46-.06-.91-.12-1.32-.19l-1.18-.21c-.37-.08-.71-.15-1-.23l-.85-.24a5.41,5.41,0,0,1-.66-.25,2.62,2.62,0,0,1-.48-.25,1.33,1.33,0,0,1-.3-.26.44.44,0,0,1,0-.53,1.33,1.33,0,0,1,.3-.26,2.12,2.12,0,0,1,.48-.25,5.41,5.41,0,0,1,.66-.25l.85-.24c.31-.08.65-.15,1-.23l1.18-.21c.41-.07.86-.13,1.32-.19s1-.12,1.47-.18l1.59-.16,1.7-.13,1.79-.12,1.86-.08,1.92-.07,2,0h4l2,0,1.92.07,1.87.08,1.79.12,1.69.13,1.59.16c.51.06,1,.11,1.47.18l1.33.19,1.18.21,1,.23c.32.08.6.16.85.24a5.61,5.61,0,0,1,.67.25,2.66,2.66,0,0,1,.48.25,1.08,1.08,0,0,1,.29.26A.5.5,0,0,1,58.29,238.17Z"/><path class="cls-7" d="M32,238.28c-.1,0,2.26-4.62,2.42-5a39.94,39.94,0,0,0,3-14.61c-.16-10.27-3.14-20.92-2.11-31.16.46-4.63,2.23-9,3.65-13.35a98.35,98.35,0,0,0,2.31-10S24,151.63,26.42,144.27c.42-1.27,9.17-4.7,14.79,4.34,5.52,8.87,2.2,16,2.2,16s-.84,6-1.68,9.84c-1.29,5.86-1.37,11.81-1.54,17.78a79.06,79.06,0,0,0,.63,13.32c1,7.1,8.38,38.58-7.14,34.16"/><path class="cls-7" d="M40,175.72c1.1-5.3,7.65-9.26,12.64-10.27,2.24-.45,13.54-3.2,9.19,1.67a21.61,21.61,0,0,1-10.28,6.69C48.52,174.61,43.07,176.5,40,175.72Z"/><path class="cls-7" d="M37.93,178.1c.52-1.45-.41-4-.91-4.78-2.85-4.6-9.34-6.15-14.41-6.53C10.45,165.88,26.65,183.06,37.93,178.1Z"/><path class="cls-7" d="M36.83,191.23c-1.81-.87-4.64-5.4-8.81-7.23-9.4-4.1-18.88,5.41-9.22,8.82C22.93,194.28,29.78,196.89,36.83,191.23Z"/><path class="cls-7" d="M39.28,206.59c-.1,0-4.72-4.32-5.5-4.76a22.24,22.24,0,0,0-12.09-2.6C7.56,200,14.71,217.53,39.28,206.59Z"/><path class="cls-7" d="M40.37,221.93c-1.32-.23-3.5-2.44-4.6-3.17a26.06,26.06,0,0,0-7.62-3.39,21.61,21.61,0,0,0-13.19.41C3.24,220.33,31.69,233,40.37,221.93Z"/><path class="cls-7" d="M48.18,223.08c-8.69-1.68-8.4-8.47-8.26-8.63,1.77-2,7.46-2.66,10-3.21,3.56-.78,15.5-1.37,17.41,2.57S57.16,224.81,48.18,223.08Z"/><path class="cls-7" d="M39.57,203.35c-2.24-3.48,8.79-16.57,24.54-8.83.72.35-3.36,5.52-9.18,9C49.34,206.79,39.25,204.84,39.57,203.35Z"/><path class="cls-7" d="M38.78,186.11c-.44-.93,4.48-7,8.49-8.47,7.4-2.64,18.31-1.11,18.46.88C66.05,182.71,46,189.88,38.78,186.11Z"/><rect class="cls-8" x="167.25" y="29.93" width="91.93" height="56.14" rx="2.18"/><rect class="cls-9" x="166.71" y="36.29" width="92.47" height="50.14" rx="2.18"/><circle class="cls-10" cx="248.64" cy="33.02" r="1.27"/><circle class="cls-10" cx="252.09" cy="33.2" r="1.27"/><circle class="cls-10" cx="255.73" cy="33.2" r="1.27"/><rect class="cls-10" x="242.46" y="45.91" width="2.36" height="2.54"/><rect class="cls-10" x="242.46" y="50.27" width="2.36" height="2.54"/><rect class="cls-10" x="242.65" y="54.27" width="2.36" height="2.54"/><rect class="cls-8" x="229.93" y="50.64" width="5.27" height="28.89"/><rect class="cls-8" x="221.57" y="57.36" width="5.27" height="22.35"/><rect class="cls-8" x="212.85" y="63.36" width="5.09" height="16.35"/><path class="cls-1" d="M212.67,58.63l9.27-9.45,2.36,2.55,7.45-7.09L230.29,43l4.36-.18-.36,4-1.45-.91q-4.09,4.19-8.18,8.36l-2.72-2-8,7.82Z"/><path class="cls-8" d="M172.7,52.27a16.25,16.25,0,0,1,14.35-9.81q.47,8.17.91,16.35Z"/><path class="cls-1" d="M174.52,55.18l14.71,6,12.36,11.26a16.28,16.28,0,0,1-27.07-17.26Z"/><path class="cls-10" d="M188.87,45l.55,16.17,12,10.9c.32-.38,6.17-7.38,3.45-15.81A16.75,16.75,0,0,0,188.87,45Z"/><line class="cls-11" x1="246.1" y1="47.19" x2="254.27" y2="47.19"/><line class="cls-11" x1="246.28" y1="51.37" x2="254.46" y2="51.37"/><line class="cls-11" x1="246.46" y1="55.36" x2="254.64" y2="55.36"/><line class="cls-11" x1="242.83" y1="62.99" x2="253.91" y2="62.99"/><line class="cls-11" x1="242.83" y1="65.54" x2="253.91" y2="65.54"/><line class="cls-11" x1="243.01" y1="67.72" x2="254.09" y2="67.72"/><line class="cls-11" x1="243.01" y1="69.9" x2="254.09" y2="69.9"/><line class="cls-11" x1="242.83" y1="72.26" x2="253.91" y2="72.26"/><line class="cls-11" x1="242.83" y1="74.62" x2="253.91" y2="74.62"/><line class="cls-11" x1="243.01" y1="76.98" x2="254.09" y2="76.98"/><rect class="cls-12" x="274.44" y="160.92" width="26.34" height="3.82"/><path class="cls-1" d="M276.8,164.55c-3.44,3.87-4.78,8.15-3.27,10.9,1.07,1.94,3.21,2.48,7.09,3.45,2.7.68,9.54,2.3,16.71-.73,2-.84,3.37-1.44,4.18-2.9,2.28-4.15-2.67-10.25-2.91-10.54Z"/><g class="cls-13"><path class="cls-1" d="M301.51,167.82c-2-.07-4.9-.11-8.36,0-4.52.15-5.87.43-6.9.73-1.34.38-7,2-7.27,5.08-.22,2.66,3.73,4.85,4.18,5.09,3.13,1.69,6.22,1.18,11.26.36,3.58-.58,5.4-.9,6.54-2.18C303.7,173.85,301.75,168.47,301.51,167.82Z"/></g><path class="cls-8" d="M281.23,160.57a2.88,2.88,0,0,1-.84-.72,26.34,26.34,0,0,1-4.73-7.57,5.76,5.76,0,0,1-.53-3.63,2.29,2.29,0,0,1,2.82-1.71c.82.33,1.67,1.29,2.36.74.45-.35.33-1.06.16-1.6a79.73,79.73,0,0,0-3.7-9.68c-.6-1.3-1.24-2.73-.82-4.09a3,3,0,0,1,4.32-1.5c.94.65,1.44,1.82,2.43,2.38l.26-7.54a13.12,13.12,0,0,1,.64-4.37c1-2.58,4.45-4.5,6.67-2.12a6.55,6.55,0,0,1,1.49,3.6c.42,2.93-.09,5.91-.32,8.87,0,.33,0,.75.31.86s.61-.17.84-.42a4.91,4.91,0,0,1,3.45-1.7,3.53,3.53,0,0,1,3.24,1.9c.8,1.72-.16,3.71-1.06,5.38q-2.4,4.48-4.36,9.19a1,1,0,0,0-.09.81c.22.48.94.33,1.43.13a13.73,13.73,0,0,1,3.14-.83,1.87,1.87,0,0,1,.88,0c.75.27.89,1.28.84,2.08A17.9,17.9,0,0,1,295.4,160a2.94,2.94,0,0,1-1.13.85,3.08,3.08,0,0,1-1,.1l-10.91-.14a3,3,0,0,1-.94-.12Z"/><path class="cls-1" d="M251.37,161.28l16.89.36q-1.17,9.18-2.36,18.35l-12.53.18Q252.36,170.72,251.37,161.28Z"/><g class="cls-14"><line class="cls-15" x1="250.64" y1="163.1" x2="268.81" y2="163.1"/><line class="cls-15" x1="250.82" y1="166.37" x2="268.99" y2="166.37"/><line class="cls-15" x1="250.64" y1="169.27" x2="268.81" y2="169.27"/><line class="cls-15" x1="250.46" y1="172.18" x2="268.63" y2="172.18"/><line class="cls-15" x1="250.46" y1="174.9" x2="268.63" y2="174.9"/></g><polygon class="cls-2" points="347.45 179.99 365.94 315.52 407.83 315.34 409.34 179.45 347.45 179.99"/><g class="cls-16"><path class="cls-8" d="M365.56,195.43l3.78,33.25,40.38.18V196Z"/><path class="cls-8" d="M370.85,236.31l3.77,30.34,33.59-.18q1.5-15.27,3-30.52Z"/><path class="cls-8" d="M376.51,273.92q.94,13.44,1.88,26.89l29.44.72q1.69-14.36,3.4-28.7Z"/><path class="cls-8" d="M344.43,179.45l-1.89,9.26L412,186.89q-.75-3.07-1.51-6.17Z"/></g><rect class="cls-2" x="338.39" y="171.27" width="73.22" height="9.45" rx="3.2"/><path class="cls-10" d="M100.61,135.29c-12,7.9-16.94,22.26-17.55,36.69q-.54,12.75-1,25.52c-.18,4.87-.35,9.88,1.23,14.49,2.72,8,10.31,13.51,18.37,16s16.64,2.31,25.07,2.14l22.69-.46c2.38,0,4.93-.15,6.84-1.56,3-2.2,3.13-6.76,1.54-10.09s-4.47-5.82-7-8.53a48,48,0,0,1-12.05-37.3c1.23-11.37,9.18-27.74-1.2-37.12-7.84-7.09-21.44-6.66-30.67-3A34.77,34.77,0,0,0,100.61,135.29Z"/><path class="cls-10" d="M158.71,273.19l-62.86-.73c.55-1.51,1.09-3,1.64-4.54l61.22.37Z"/><rect class="cls-10" x="93.63" y="224.44" width="5.14" height="89.38" rx="2.37" transform="translate(36.93 -10.46) rotate(7.7)"/><rect class="cls-10" x="157.4" y="225.17" width="5.14" height="89.38" rx="2.37" transform="translate(-31.99 21.73) rotate(-7.07)"/><polygon class="cls-1" points="305.69 1.22 306.41 142.93 403.25 142.93 403.07 1.22 305.69 1.22"/><rect class="cls-12" x="305.69" y="0.86" width="97.38" height="14.9"/><rect class="cls-12" x="321.86" y="36.1" width="17.8" height="4.36"/><rect class="cls-12" x="322.4" y="61.9" width="28.89" height="3.45"/><rect class="cls-17" x="323.13" y="41.74" width="62.5" height="14.53" rx="2.18"/><rect class="cls-17" x="322.95" y="66.08" width="62.5" height="14.53" rx="2.18"/><rect class="cls-12" x="280.07" y="86.43" width="51.05" height="14.53" rx="1.97"/><rect class="cls-12" x="357.65" y="84.79" width="36.52" height="10.17" rx="1.39"/><text class="cls-18" transform="translate(297.09 102.9)">*</text><text class="cls-18" transform="translate(307.63 102.9)">*</text><text class="cls-18" transform="translate(318.16 103.08)">*</text><g class="cls-19"><path class="cls-17" d="M292.76,91.7v-1c0-.05,0-.11,0-.17a1.11,1.11,0,0,0,0-.17l0-.16,0-.17-.05-.17s0-.1-.05-.16l-.06-.16a1,1,0,0,1-.07-.15s-.05-.11-.08-.16l-.09-.14a.6.6,0,0,0-.09-.15l-.09-.14-.11-.13-.11-.13-.12-.13-.12-.11-.13-.12-.14-.1-.14-.1-.14-.09-.15-.08-.15-.08-.16-.07-.16-.06-.16-.06-.16,0-.17,0-.17,0-.17,0h-.68l-.17,0-.17,0-.17,0-.16,0-.16.06-.16.06-.16.07-.15.08-.15.08-.14.09-.14.1-.14.1-.13.12-.12.11-.12.13-.11.13-.11.13-.09.14a.6.6,0,0,0-.09.15l-.09.14s0,.11-.08.16a1,1,0,0,1-.07.15l-.06.16c0,.06,0,.11-.05.16l-.05.17,0,.17,0,.16a1.11,1.11,0,0,0,0,.17c0,.06,0,.12,0,.17v1h-.13l-.12,0-.13,0-.12,0-.11.06-.11.06L285,92l-.1.09-.08.09-.08.1-.06.11-.06.12s0,.08,0,.12l0,.12a.69.69,0,0,0,0,.13s0,.08,0,.13v5.21s0,.08,0,.12a.51.51,0,0,0,0,.13l0,.12s0,.09,0,.13l.06.11.06.11.08.1.08.1.1.08.1.08.11.07.11,0,.12,0a.31.31,0,0,0,.13,0l.12,0h7.22l.12,0a.31.31,0,0,0,.13,0l.12,0,.11,0,.11-.07.1-.08.1-.08.08-.1.08-.1.06-.11.06-.11s0-.08,0-.13l0-.12a.51.51,0,0,0,0-.13s0-.08,0-.12V93s0-.09,0-.13a.69.69,0,0,0,0-.13l0-.12s0-.08,0-.12l-.06-.12-.06-.11-.08-.1-.08-.09-.1-.09-.1-.08-.11-.06-.11-.06-.12,0-.13,0-.12,0Zm-6.09-.89a.53.53,0,0,1,0-.13.57.57,0,0,1,0-.13s0-.08,0-.12a.69.69,0,0,0,0-.13l0-.13a323599920290.35,323599920290.35,0,0,0,.08-.24s0-.08,0-.12a.61.61,0,0,0,.05-.12l.06-.11.06-.11.07-.11.08-.1a.76.76,0,0,1,.08-.11l.08-.09.09-.09.09-.09.1-.09.1-.07.1-.08.11-.07.11-.06.12-.06.11,0,.12-.05.12,0,.13,0,.12,0,.13,0h.76l.13,0,.12,0,.13,0,.12,0,.12.05.11,0,.12.06.11.06.11.07.1.08.1.07.1.09.09.09.09.09.08.09a.76.76,0,0,1,.08.11l.08.1.07.11.06.11.06.11a.61.61,0,0,0,.05.12s0,.08,0,.12a329667418801.31,329667418801.31,0,0,0,.08.24l0,.13a.69.69,0,0,0,0,.13s0,.08,0,.12a.57.57,0,0,1,0,.13.53.53,0,0,1,0,.13v.87h-5.22Zm3.05,5.1v.56s0,.06,0,.08l0,.09a.25.25,0,0,1,0,.07.26.26,0,0,1-.12.12l-.07,0-.08,0h-.18l-.08,0-.07,0a.26.26,0,0,1-.12-.12.25.25,0,0,1,0-.07.27.27,0,0,1,0-.12.09.09,0,0,1,0,0v-.56l-.08,0-.07-.06a.46.46,0,0,1-.07-.07l-.06-.07a.22.22,0,0,0-.05-.08.36.36,0,0,0,0-.09l0-.09s0-.06,0-.09a.34.34,0,0,1,0-.1v-.09a.34.34,0,0,1,0-.1.29.29,0,0,1,0-.09.16.16,0,0,1,0-.09.36.36,0,0,1,0-.09s0,0,0-.08l.06-.08.07-.07.07-.06.08,0,.08,0,.09,0,.09,0h.38l.09,0,.09,0,.08,0,.08,0,.07.06.07.07.06.08a.35.35,0,0,0,.05.08l0,.09a.16.16,0,0,1,0,.09.29.29,0,0,1,0,.09.34.34,0,0,1,0,.1v.09a.34.34,0,0,1,0,.1s0,.06,0,.09l0,.09,0,.09a.22.22,0,0,0-.05.08l-.06.07a.46.46,0,0,1-.07.07l-.07.06Z"/></g><path class="cls-1" d="M113.66,22.48l13.44,12,14-12Z"/><path class="cls-1" d="M141.09,22.48l.36,18.35-28.16.91q.18-9.63.37-19.26l13.8,12.35Z"/><g class="cls-20"><path class="cls-21" d="M113.11,41.74l11.08-9.63"/><path class="cls-21" d="M131.1,31.56,141.27,41"/></g><path class="cls-10" d="M113.75,22.57c1.21.93,2.37,1.91,3.56,2.87l3.48,2.95c2.33,2,4.59,4,6.86,6h-.73c2.32-2.07,4.65-4.13,7-6.13l3.58-3c1.22-1,2.41-2,3.65-2.91-1.07,1.13-2.2,2.2-3.29,3.31l-3.38,3.23c-2.25,2.14-4.55,4.23-6.86,6.31l-.37.33-.36-.33c-2.25-2.06-4.49-4.11-6.68-6.23L117,25.83C115.89,24.74,114.79,23.68,113.75,22.57Z"/><path class="cls-22" d="M193.08,296,192.84,285l-14.77.54-.74,11.7,9.87,4.4Z"/><path class="cls-23" d="M177.46,295.84s9.22,2.46,15.86.16c0,0,2.41,6.39,6.89,7.66s16.37,2.07,17.11,5.72-1.58,4-6.13,4.05-21.39-.4-21.39-.4L185.12,310l-.12,3.47-10-.53S174.09,299.36,177.46,295.84Z"/><path class="cls-22" d="M240.21,287l-5.72-9.46L222,285.36l5.19,10.51,10.75-1.11Z"/><path class="cls-23" d="M227.14,295.87s8.94-3.22,13.08-8.88c0,0,5.59,3.86,10,2.36s9.25-12.53,11.93-10-2,15.53-5.68,18.13-10.25,5.05-10.25,5.05l-4.77.54L242.6,305l-8.49,5.24S226.38,300.64,227.14,295.87Z"/><path class="cls-24" d="M96.22,182c-1.33,4.64-3.11,13.8,1.09,22.89,6.75,14.66,24,18.3,29.43,19.44,6.65,1.4,12.28,1.11,23.25.54a176.47,176.47,0,0,0,18.9-2,245.91,245.91,0,0,0,1.63,31.24,249.08,249.08,0,0,0,5.81,31.8l18.9,1.81-.55-48q13.27,24.17,26.53,48.33l18.35-8.36c-3.63-8.52-9.28-22-16-38.7-11.27-28.09-13.58-35.68-22-43.78-11.05-10.65-23.7-13.6-37.06-16.71C137.82,174.31,113.69,177.45,96.22,182Z"/><path class="cls-22" d="M133.46,87.57c-.29,4.52.86,7.47,2.71,9.31,5.35,5.3,16,1.44,16.25-.76.09-.8-1.23-1.13-2.25-3.7-.37-.94-.9-2.69-.9-2.69h0l-.1-.26a8.16,8.16,0,0,1-.4-1.64c-.36-2.7,1.29-7.46,1.29-7.47-3.75-2.87-8.05-7-11.79-9.9l-1.12-.21C137.1,70.45,133.53,87.36,133.46,87.57Z"/><path class="cls-25" d="M138.64,84.72l0,.06c1.84,3.62,5.68,5.39,9.51,7.1.5.22,1.24.55,2.18.91l-1.28-3.45a7.64,7.64,0,0,1-2.21.34C142.27,89.72,139.16,85.46,138.64,84.72Z"/><path class="cls-22" d="M156.19,75.35c-.63,7.14-2.47,14.45-9.31,14.33-4.79-.09-10.18-6-12-11.79a52.83,52.83,0,0,1-2.06-7.65c-.2-1.59-.27-2.6-.27-2.6l.67-3.64.41-2.13,2.83-3c1.87-2,5.44,0,5.49-.08s9.29-2.8,12.77.57v0a4.11,4.11,0,0,1,.76,1,2.58,2.58,0,0,1,.28.88c.07.58.17,1.45.29,2.56,0,.46.09,1,.13,1.5.07.9.13,1.9.17,2.95A57.82,57.82,0,0,1,156.19,75.35Z"/><path class="cls-26" d="M134.21,77.44c0,.33-9.44-11.87-7.06-18.49s7.45-5.45,7.45-5.45,3.82-13.39,16.24-4.16c0,0,7,1.17,8.41,6.84a9.19,9.19,0,0,1-3.07,9.09s-.37-4.81-3.55-4.61c-2.3.14-.62,2.42-6.87,1.69-3.86-.45-5.16-3-7.22-1.51s-.18,2.29-1.24,9C136.64,73.87,133.78,74.31,134.21,77.44Z"/><path class="cls-17" d="M145.53,82.55l5.23.31S148.3,86.68,145.53,82.55Z"/><path class="cls-22" d="M134.88,71.33S130.51,69,131,73.16s4.62,5.58,4.62,5.58Z"/><path class="cls-23" d="M134,72.75s-3.32-.68.34,3.48Z"/><path class="cls-23" d="M152.89,72.37c.18,0,.31.15.41.39a1.61,1.61,0,0,1,.08.83,1.59,1.59,0,0,1-.31.76.53.53,0,0,1-.51.26c-.18,0-.32-.15-.41-.39a1.58,1.58,0,0,1-.07-.82,1.52,1.52,0,0,1,.3-.77A.54.54,0,0,1,152.89,72.37Z"/><path class="cls-23" d="M144.35,71.76a.57.57,0,0,1,.42.4,1.56,1.56,0,0,1,.07.82,1.62,1.62,0,0,1-.3.77A.54.54,0,0,1,144,74a.55.55,0,0,1-.41-.39,1.61,1.61,0,0,1-.08-.83,1.59,1.59,0,0,1,.31-.76A.53.53,0,0,1,144.35,71.76Z"/><path class="cls-23" d="M151.59,69s1.81-1.56,3.5-.81Z"/><path class="cls-23" d="M141.24,67.41c.15,0,2.56-.63,4.13.84Z"/><path class="cls-23" d="M148.83,79.23a4,4,0,0,1-.75-.09A.16.16,0,0,1,148,79a.15.15,0,0,1,.19-.11c.78.18,1.28.09,1.43-.27a1.23,1.23,0,0,0-.59-1.25.14.14,0,0,1-.05-.2.14.14,0,0,1,.2-.06,1.51,1.51,0,0,1,.73,1.63A1,1,0,0,1,148.83,79.23Z"/><path class="cls-23" d="M152.93,76.91h-.28a3.59,3.59,0,1,1,.28,0Zm-3.26-3.83a3.27,3.27,0,1,0,3.51-3A3.26,3.26,0,0,0,149.67,73.08Z"/><path class="cls-23" d="M144.07,76.22h-.28a3.62,3.62,0,1,1,.28,0Zm-3.27-3.83a3.27,3.27,0,0,0,5.39,2.73,3.21,3.21,0,0,0,1.14-2.24,3.27,3.27,0,1,0-6.53-.49Z"/><path class="cls-23" d="M149.91,72.21l-.08,0a1.9,1.9,0,0,0-2.39-.08.15.15,0,1,1-.2-.22,2.19,2.19,0,0,1,2.76,0,.14.14,0,0,1,.05.21A.21.21,0,0,1,149.91,72.21Z"/><path class="cls-22" d="M146,161.46l16.35.36c.36-1.51.72-3,1.09-4.54l13.62-3.45a26,26,0,0,1,3.09,16.53,24.75,24.75,0,0,1-3.27,8.9l-33.43-3.81Z"/><path class="cls-27" d="M105.12,113.68c.61,3.5,1.55,9,2.63,15.71,1.64,10.24,1.79,12.16,3,16.08A59.17,59.17,0,0,0,118.11,161c3.22,4.8,6.08,9.11,11.63,12.35a29.94,29.94,0,0,0,14,4c4.22-7.21,7.55-14.88,4.73-18.17-1.95-2.27-5.34-.73-8.54-2.91-5-3.44-4.44-12.64-3.63-20.89a375.12,375.12,0,0,1,5.81-38.33,12.31,12.31,0,0,1-4.82-3.91c-1.59-2.23-1.49-3.91-3.08-4.54-2-.79-4.34.93-4.55,1.09a4.7,4.7,0,0,0-1.81,2.36c-.29,1,0,1.27-.27,1.73-.65.89-2.39.1-5.27.36-.25,0-2.51.23-3.46.36-4.73.68-8.55,4.21-8.81,4.45C104.29,104.38,105,112.69,105.12,113.68Z"/><path class="cls-27" d="M105.12,113.68A192.88,192.88,0,0,0,115.29,154c2,5.44,4.1,10.45,8.9,14.9,6.88,6.36,15.26,7.91,19.81,8.36,2.16,4.1,2.09,6.75,1.27,8.53-4.61,9.94-37.93,3.36-49.24.91a173.72,173.72,0,0,1,5.82-62.86Q103.37,118.57,105.12,113.68Z"/><path class="cls-28" d="M126,113c1.12,7.65,1.89,13.72,2.36,17.63a81.74,81.74,0,0,0,4.18,19.07,23.4,23.4,0,0,0,4.72,7.27"/><path class="cls-29" d="M107.57,139.21a59.47,59.47,0,0,0,4.36,14.53c2.11,4.73,4.54,10.16,9.63,14.71,7.42,6.64,16.47,7.79,20.89,8"/><path class="cls-17" d="M141.82,97c2.23,1,4.79,1.69,6.54.54,1-.69,1.21-1.64,1.45-1.63,1,0,2.11,15.23,3.27,65.76l-3.45-.18-12.54-4.72a130,130,0,0,1-1.45-15.08A131.73,131.73,0,0,1,141.82,97Z"/><path class="cls-27" d="M150,92.61a9.73,9.73,0,0,1,3.82,4.17,9.86,9.86,0,0,1,.91,3.64,14.39,14.39,0,0,1,8.53,4.9,11.72,11.72,0,0,1,1.64,2.91c3.64,9.12,4.37,25.16,10.35,37.06a41.57,41.57,0,0,0,5.27,8l-20.34,5.82q-2-3.45-4-6.91v9.45H152.9l-4.36-66.49Z"/><polygon class="cls-12" points="86.95 238.67 293.15 239.04 294.97 245.58 86.22 244.85 86.95 238.67"/><path class="cls-12" d="M292.79,197.61l28.34,117.73-9.63.36q-14.26-59-28.52-118.09Z"/><path class="cls-12" d="M89,197.43,60.61,315.16l9.63.36q14.25-59,28.52-118.09Z"/><rect class="cls-12" x="73.14" y="182.35" width="234.54" height="15.08" rx="6.21"/><rect class="cls-12" x="69.69" y="178.72" width="242.54" height="9.99" rx="2.41"/><line class="cls-30" x1="311.68" y1="184.53" x2="69.51" y2="185.08"/><path class="cls-8" d="M241,179.26l-60.86-.54c3.55-25.28,6-42.57,6.18-44.51a2.79,2.79,0,0,1,.91-2,2.46,2.46,0,0,1,1.81-.36c1.83.21,26.76.24,61.95.18a3.77,3.77,0,0,1,1.82,1.45,3.83,3.83,0,0,1,.55,1.46c-5.71,22.73-9.58,38.5-9.82,40.51a4.84,4.84,0,0,1-1.09,2.72A4.23,4.23,0,0,1,241,179.26Z"/><path class="cls-10" d="M145.63,179.08a5,5,0,0,1,1.09-3.09,5.86,5.86,0,0,1,4.18-1.63c3.61-.22,13.26-.15,26.16.36,1-4.94,7.89-39,9.45-41.42a3.8,3.8,0,0,1,1.09-1.09,4.56,4.56,0,0,1,3.63-.18l-10.17,47.05Z"/><ellipse class="cls-31" cx="219.66" cy="158.01" rx="4.63" ry="4.36"/></g></g></svg>