<svg xmlns="http://www.w3.org/2000/svg" xmlns:xlink="http://www.w3.org/1999/xlink" viewBox="0 0 680.23 535.13"><defs><style>.cls-1,.cls-5{fill:#5e67b0;}.cls-2,.cls-26{fill:#1e519a;}.cls-25,.cls-3{fill:none;}.cls-4{fill:#4e79bc;}.cls-5,.cls-7{fill-rule:evenodd;}.cls-6,.cls-7{fill:#273256;}.cls-8{fill:#fffffd;}.cls-9{fill:#a8c1e0;}.cls-10{fill:#d35850;stroke-width:0.62px;}.cls-10,.cls-14{stroke:#231f20;}.cls-10,.cls-11,.cls-14,.cls-25,.cls-26{stroke-miterlimit:10;}.cls-11{fill:#2b296b;stroke-width:1.43px;}.cls-11,.cls-26{stroke:#2b296b;}.cls-12{clip-path:url(#clip-path);}.cls-13{clip-path:url(#clip-path-2);}.cls-14{fill:#ef4930;stroke-width:1.85px;}.cls-15{clip-path:url(#clip-path-3);}.cls-16,.cls-17{fill:#fff;}.cls-17{font-size:30.61px;font-family:MADECarvingSoftPERSONALUSE-SemiBold, MADE Carving Soft PERSONAL USE;font-weight:600;}.cls-18{clip-path:url(#clip-path-4);}.cls-19{clip-path:url(#clip-path-5);}.cls-20{fill:#ffe1b6;}.cls-21{fill:#2f2d3f;}.cls-22{fill:#839cb5;}.cls-23{fill:#bda787;}.cls-24{fill:#24333a;}.cls-25{stroke:#2f2d3f;stroke-width:0.31px;}.cls-26{stroke-width:0.75px;}.cls-27{fill:#fdfbfd;}.cls-28{fill:#869bb6;}</style><clipPath id="clip-path"><path class="cls-1" d="M450.47,278.22c-5.84,6.58-8.13,13.85-5.56,18.52,1.82,3.31,5.45,4.22,12,5.87,4.59,1.15,16.22,3.9,28.4-1.23,3.43-1.45,5.74-2.46,7.11-4.94,3.88-7.06-4.53-17.42-4.94-17.91Z"/></clipPath><clipPath id="clip-path-2"><path class="cls-1" d="M407.24,272.66l28.72.62-4,31.18-21.3.31Q408.95,288.72,407.24,272.66Z"/></clipPath><clipPath id="clip-path-3"><polygon class="cls-2" points="570.54 304.46 601.98 534.82 673.18 534.51 675.74 303.54 570.54 304.46"/></clipPath><clipPath id="clip-path-4"><rect class="cls-3" x="463.56" y="146.98" width="16.23" height="20.69"/></clipPath><clipPath id="clip-path-5"><path class="cls-4" d="M219.81,36.75q.3,15.59.61,31.18l-47.86,1.55q.31-16.37.62-32.73l23.47,21Z"/></clipPath></defs><g id="Layer_2" data-name="Layer 2"><g id="Layer_1-2" data-name="Layer 1"><path class="cls-5" d="M3,398.7c-10.37,15.74,9.73,77.11,9.73,77.11,19.93,8.31,41.24,8.44,64.18-1,0,0,18.17-58.7,10-73.65C77.45,384.13,9.53,388.75,3,398.7Z"/><path class="cls-6" d="M79.07,403.36a.72.72,0,0,1-.17.44,2,2,0,0,1-.49.45,5.57,5.57,0,0,1-.82.43,10.13,10.13,0,0,1-1.13.42c-.43.14-.91.28-1.44.41s-1.1.26-1.73.38-1.29.25-2,.36-1.47.23-2.26.33-1.63.21-2.5.3-1.76.19-2.7.27l-2.88.23-3,.19c-1,.06-2.1.11-3.17.15s-2.16.08-3.26.11l-3.33.07-3.36,0-3.36,0-3.33-.07c-1.1,0-2.19-.06-3.26-.11s-2.13-.09-3.17-.15-2.05-.12-3-.19l-2.89-.23q-1.39-.12-2.7-.27t-2.49-.3c-.8-.1-1.55-.21-2.26-.33s-1.38-.24-2-.36-1.2-.25-1.73-.38-1-.27-1.44-.41a11.87,11.87,0,0,1-1.13-.42,5.57,5.57,0,0,1-.82-.43,2,2,0,0,1-.49-.45.72.72,0,0,1-.17-.44.77.77,0,0,1,.17-.45,1.79,1.79,0,0,1,.49-.44A5.53,5.53,0,0,1,12,402c.33-.14.71-.28,1.13-.42s.91-.27,1.44-.4,1.11-.26,1.73-.39l2-.36,2.26-.33,2.49-.3,2.7-.27c.93-.08,1.9-.16,2.89-.22s2-.14,3-.2l3.17-.15,3.26-.11q1.65,0,3.33-.06c1.12,0,2.24,0,3.36,0s2.24,0,3.36,0l3.33.06,3.26.11,3.17.15c1,.06,2.05.12,3,.2s1.95.14,2.88.22l2.7.27,2.5.3,2.26.33,2,.36c.63.13,1.2.26,1.73.39s1,.26,1.44.4.81.28,1.13.42a5.53,5.53,0,0,1,.82.44,1.79,1.79,0,0,1,.49.44A.77.77,0,0,1,79.07,403.36Z"/><path class="cls-7" d="M34.38,403.54c-.17,0,3.83-7.86,4.11-8.57,3-7.59,5.15-16.66,5-24.83-.27-17.45-5.32-35.56-3.58-53,.79-7.86,3.8-15.22,6.2-22.69a162.94,162.94,0,0,0,3.93-17S20.71,256.27,24.9,243.74c.72-2.15,15.6-8,25.14,7.38,9.39,15.09,3.74,27.17,3.74,27.17S52.35,288.52,50.92,295c-2.19,10-2.31,20.07-2.61,30.22a134.87,134.87,0,0,0,1.06,22.64c1.7,12.08,14.25,65.57-12.13,58.06"/><path class="cls-7" d="M48,297.2c1.86-9,13-15.74,21.48-17.45,3.81-.77,23-5.45,15.63,2.84-4.58,5.14-10.75,9.63-17.48,11.38C62.47,295.31,53.21,298.53,48,297.2Z"/><path class="cls-7" d="M44.47,301.26c.89-2.47-.71-6.77-1.55-8.14-4.85-7.81-15.86-10.45-24.48-11.09C-2.23,280.47,25.3,309.69,44.47,301.26Z"/><path class="cls-7" d="M42.59,323.56c-3.07-1.47-7.87-9.18-15-12.28-16-7-32.09,9.19-15.67,15C19,328.76,30.62,333.18,42.59,323.56Z"/><path class="cls-7" d="M46.76,349.67c-.16,0-8-7.33-9.34-8.09-6.09-3.5-13.59-4.8-20.56-4.42C-7.14,338.48,5,368.27,46.76,349.67Z"/><path class="cls-7" d="M48.62,375.75c-2.25-.4-6-4.14-7.83-5.39a44.16,44.16,0,0,0-12.95-5.76c-7.23-2-15.37-2-22.42.7C-14.49,373,33.86,394.55,48.62,375.75Z"/><path class="cls-7" d="M61.9,377.7c-14.78-2.85-14.28-14.4-14-14.66,3-3.48,12.68-4.53,16.95-5.47,6-1.32,26.34-2.32,29.58,4.38C97.74,368.87,77.16,380.64,61.9,377.7Z"/><path class="cls-7" d="M47.26,344.17C43.45,338.25,62.2,316,89,329.15c1.22.6-5.71,9.39-15.6,15.23C63.86,350,46.72,346.7,47.26,344.17Z"/><path class="cls-7" d="M45.92,314.86c-.75-1.57,7.61-12,14.43-14.4,12.57-4.49,31.11-1.88,31.37,1.5C92.26,309.09,58.18,321.27,45.92,314.86Z"/><rect class="cls-2" x="264.27" y="49.41" width="156.25" height="95.42" rx="3.7"/><rect class="cls-8" x="263.35" y="60.21" width="157.17" height="85.23" rx="3.71"/><circle class="cls-4" cx="402.61" cy="54.66" r="2.16"/><circle class="cls-4" cx="408.48" cy="54.96" r="2.16"/><circle class="cls-4" cx="414.65" cy="54.96" r="2.16"/><rect class="cls-4" x="392.11" y="76.58" width="4.01" height="4.32"/><rect class="cls-4" x="392.11" y="83.99" width="4.01" height="4.32"/><rect class="cls-4" x="392.42" y="90.78" width="4.01" height="4.32"/><rect class="cls-4" x="370.8" y="84.61" width="8.95" height="49.1"/><rect class="cls-4" x="356.6" y="96.03" width="8.95" height="37.98"/><rect class="cls-4" x="341.78" y="106.22" width="8.65" height="27.79"/><path class="cls-4" d="M341.47,98.19l15.75-16,4,4.32,12.66-12-2.47-2.78,7.41-.31-.61,6.79-2.48-1.54-13.89,14.2-4.63-3.39-13.59,13.27Z"/><path class="cls-9" d="M273.54,87.39a27.59,27.59,0,0,1,24.39-16.68q.78,13.91,1.54,27.79Z"/><path class="cls-4" d="M276.62,92.33l25,10.19,21,19.14a27.66,27.66,0,0,1-46-29.33Z"/><path class="cls-2" d="M301,75q.47,13.74.92,27.48L322.32,121c.55-.63,10.5-12.53,5.87-26.86C324.57,83,313.6,75.12,301,75Z"/><line class="cls-10" x1="398.29" y1="78.74" x2="412.18" y2="78.74"/><line class="cls-10" x1="398.6" y1="85.84" x2="412.49" y2="85.84"/><line class="cls-10" x1="398.9" y1="92.64" x2="412.8" y2="92.64"/><line class="cls-10" x1="392.73" y1="105.61" x2="411.56" y2="105.61"/><line class="cls-10" x1="392.73" y1="109.93" x2="411.56" y2="109.93"/><line class="cls-10" x1="393.04" y1="113.63" x2="411.87" y2="113.63"/><line class="cls-10" x1="393.04" y1="117.34" x2="411.87" y2="117.34"/><line class="cls-10" x1="392.73" y1="121.35" x2="411.56" y2="121.35"/><line class="cls-10" x1="392.73" y1="125.37" x2="411.56" y2="125.37"/><line class="cls-10" x1="393.04" y1="129.38" x2="411.87" y2="129.38"/><rect class="cls-11" x="446.46" y="272.04" width="44.77" height="6.48"/><path class="cls-1" d="M450.47,278.22c-5.84,6.58-8.13,13.85-5.56,18.52,1.82,3.31,5.45,4.22,12,5.87,4.59,1.15,16.22,3.9,28.4-1.23,3.43-1.45,5.74-2.46,7.11-4.94,3.88-7.06-4.53-17.42-4.94-17.91Z"/><g class="cls-12"><path class="cls-1" d="M492.47,283.78c-3.44-.12-8.32-.2-14.21,0-7.69.25-10,.73-11.73,1.23-2.28.65-11.92,3.42-12.35,8.65-.38,4.52,6.34,8.23,7.1,8.64,5.31,2.87,10.58,2,19.14.62,6.09-1,9.17-1.53,11.12-3.7C496.18,294,492.88,284.88,492.47,283.78Z"/></g><path class="cls-6" d="M458,271.46a5.09,5.09,0,0,1-1.44-1.22,44.64,44.64,0,0,1-8-12.88c-.8-2-1.47-4.12-.9-6.16s2.84-3.72,4.8-2.92c1.38.57,2.83,2.19,4,1.27.76-.61.56-1.8.27-2.73a136.31,136.31,0,0,0-6.3-16.45c-1-2.2-2.1-4.63-1.39-6.94a5.05,5.05,0,0,1,7.35-2.56c1.59,1.1,2.44,3.1,4.13,4.06l.43-12.82a22.87,22.87,0,0,1,1.09-7.43c1.68-4.38,7.56-7.66,11.35-3.61a11.08,11.08,0,0,1,2.52,6.12c.72,5-.15,10.05-.54,15.08,0,.56,0,1.27.53,1.47s1-.3,1.42-.72a8.37,8.37,0,0,1,5.88-2.89,6,6,0,0,1,5.49,3.22c1.37,2.93-.27,6.3-1.8,9.15-2.72,5.08-5.19,10.3-7.4,15.62a1.73,1.73,0,0,0-.16,1.38c.38.82,1.6.56,2.44.22a22.78,22.78,0,0,1,5.33-1.41,3.12,3.12,0,0,1,1.49.05c1.29.46,1.51,2.17,1.43,3.54a30.36,30.36,0,0,1-7.91,18.49,4.92,4.92,0,0,1-1.92,1.45,5.13,5.13,0,0,1-1.79.18l-18.54-.25a4.54,4.54,0,0,1-1.6-.2Z"/><path class="cls-1" d="M407.24,272.66l28.72.62-4,31.18-21.3.31Q408.95,288.72,407.24,272.66Z"/><g class="cls-13"><line class="cls-14" x1="406.01" y1="275.75" x2="436.88" y2="275.75"/><line class="cls-14" x1="406.31" y1="281.31" x2="437.19" y2="281.31"/><line class="cls-14" x1="406.01" y1="286.25" x2="436.88" y2="286.25"/><line class="cls-14" x1="405.7" y1="291.19" x2="436.58" y2="291.19"/><line class="cls-14" x1="405.7" y1="295.82" x2="436.58" y2="295.82"/></g><polygon class="cls-2" points="570.54 304.46 601.98 534.82 673.18 534.51 675.74 303.54 570.54 304.46"/><g class="cls-15"><path class="cls-4" d="M601.33,330.71l6.42,56.51,68.63.31V331.64Z"/><path class="cls-4" d="M610.32,400.19l6.41,51.57,57.09-.31L679,399.57Z"/><path class="cls-4" d="M619.94,464.11q1.6,22.84,3.2,45.7l50,1.23q2.88-24.39,5.77-48.78Z"/><path class="cls-4" d="M565.41,303.54q-1.6,7.88-3.2,15.75l118-3.09Q679,311,677.67,305.7Z"/></g><rect class="cls-9" x="555.15" y="289.64" width="124.44" height="16.06" rx="5.43"/><path class="cls-4" d="M151,228.5c-20.37,13.42-28.79,37.83-29.82,62.34q-.92,21.69-1.74,43.38c-.31,8.28-.59,16.79,2.09,24.64,4.62,13.55,17.52,22.95,31.22,27.12s28.29,3.92,42.61,3.64l38.57-.78c4-.08,8.38-.26,11.63-2.67,5-3.73,5.31-11.48,2.61-17.14s-7.59-9.89-11.85-14.49c-15.58-16.83-22.94-40.69-20.48-63.41,2.1-19.32,15.61-47.14-2-63.09-13.32-12-36.44-11.31-52.12-5.09A58.52,58.52,0,0,0,151,228.5Z"/><path class="cls-4" d="M249.76,462.87l-106.84-1.23c.93-2.58,1.85-5.15,2.78-7.72l104.06.62Z"/><rect class="cls-4" x="139.14" y="380.01" width="8.73" height="151.92" rx="4.02" transform="translate(62.4 -15.12) rotate(7.7)"/><rect class="cls-4" x="247.52" y="381.25" width="8.73" height="151.92" rx="4.02" transform="translate(-54.34 34.47) rotate(-7.07)"/><polygon class="cls-9" points="499.57 0.62 500.8 241.47 665.39 241.47 665.08 0.62 499.57 0.62"/><rect class="cls-2" x="499.57" width="165.51" height="25.32"/><rect class="cls-2" x="527.05" y="59.9" width="30.26" height="7.41"/><rect class="cls-2" x="527.98" y="103.75" width="49.1" height="5.87"/><rect class="cls-16" x="529.21" y="69.48" width="106.22" height="24.7" rx="3.71"/><rect class="cls-16" x="528.9" y="110.85" width="106.22" height="24.7" rx="3.71"/><rect class="cls-2" x="456.03" y="145.44" width="86.77" height="24.7" rx="3.35"/><rect class="cls-2" x="587.88" y="142.66" width="62.07" height="17.29" rx="2.37"/><text class="cls-17" transform="translate(484.95 173.44)">*</text><text class="cls-17" transform="translate(502.86 173.44)">*</text><text class="cls-17" transform="translate(520.77 173.75)">*</text><g class="cls-18"><path class="cls-16" d="M477.6,154.39v-1.48c0-.1,0-.19,0-.29s0-.19,0-.29a2.89,2.89,0,0,0,0-.29,2.74,2.74,0,0,0,0-.28l-.06-.29c0-.09-.05-.18-.08-.28l-.09-.27-.1-.27-.12-.27c0-.09-.09-.17-.13-.26l-.15-.25-.15-.25c-.05-.08-.11-.15-.17-.23l-.18-.23a2,2,0,0,0-.19-.22l-.2-.21-.21-.2-.22-.19-.23-.18L475,148l-.25-.15-.25-.15-.26-.13-.27-.11-.27-.11-.27-.09-.28-.08-.28-.06-.29-.05-.29,0-.29,0h-.58l-.29,0-.29,0-.28.05-.29.06-.28.08-.27.09-.27.11-.27.11-.26.13-.25.15-.25.15-.23.17-.23.18-.22.19-.21.2-.2.21a2,2,0,0,0-.19.22l-.18.23-.17.23-.15.25-.15.25c0,.09-.08.17-.13.26s-.08.18-.11.27-.08.18-.11.27l-.09.27c0,.1,0,.19-.08.28l-.06.29a2.74,2.74,0,0,0-.05.28c0,.1,0,.19,0,.29a2.83,2.83,0,0,1,0,.29v1.77h-.22l-.21,0-.21.06-.21.07-.19.09-.19.11-.17.13-.16.15-.15.16-.12.17-.12.19-.09.2a1.18,1.18,0,0,0-.07.2,1.6,1.6,0,0,0-.05.21,1.7,1.7,0,0,0,0,.22c0,.07,0,.14,0,.21v8.86c0,.07,0,.14,0,.22a1.55,1.55,0,0,0,0,.21,1.6,1.6,0,0,0,.05.21,1.72,1.72,0,0,0,.07.21l.09.19.12.19.12.17.15.16.16.15.17.13a1.18,1.18,0,0,0,.19.11l.19.09.21.08.21,0,.21,0h12.26l.22,0,.21,0,.2-.08a1.11,1.11,0,0,0,.19-.09,1.18,1.18,0,0,0,.19-.11,1.09,1.09,0,0,0,.17-.13l.16-.15.15-.16.13-.17.11-.19.09-.19a1.72,1.72,0,0,0,.07-.21l.06-.21,0-.21c0-.08,0-.15,0-.22V156.6c0-.07,0-.14,0-.21l0-.22-.06-.21a1.18,1.18,0,0,0-.07-.2l-.09-.2-.11-.19-.13-.17-.15-.16-.16-.15-.17-.13-.19-.11-.19-.09-.2-.07a1.66,1.66,0,0,0-.21-.06l-.22,0Zm-10.35-1.51a1.7,1.7,0,0,1,0-.22c0-.07,0-.14,0-.21l0-.22a1.55,1.55,0,0,1,0-.21c0-.07,0-.14,0-.21l.06-.21c0-.07.05-.14.07-.21a1.19,1.19,0,0,1,.08-.2l.09-.2.09-.2.11-.18.12-.19.12-.18c.05-.05.09-.11.14-.17l.14-.16.15-.16.16-.15.16-.14.17-.13.18-.13.18-.12.19-.1.2-.1.2-.09.2-.08.21-.06a.66.66,0,0,1,.2-.06l.22-.05.21,0,.22,0,.21,0h.44l.22,0,.21,0,.22,0,.21.05.21.06.2.06.21.08.2.09.19.1.19.1.18.12.18.13a1.09,1.09,0,0,1,.17.13l.17.14.15.15.15.16.15.16.13.17.12.18.12.19.11.18a1.86,1.86,0,0,0,.1.2,879157700429,879157700429,0,0,0,.16.4,1.72,1.72,0,0,1,.07.21l.06.21c0,.07,0,.14,0,.21l0,.21,0,.22c0,.07,0,.14,0,.21v1.7h-8.86Zm5.17,8.68v.95a.71.71,0,0,1,0,.14.57.57,0,0,1,0,.14.54.54,0,0,1-.07.13l-.09.11a.47.47,0,0,1-.12.09l-.12.07-.14,0-.15,0-.14,0-.14,0-.13-.07a.31.31,0,0,1-.11-.09.52.52,0,0,1-.1-.11s-.05-.08-.07-.13a1.17,1.17,0,0,1-.05-.2v-1l-.14-.09-.12-.1-.12-.12-.1-.13-.08-.13a1,1,0,0,1-.07-.15.88.88,0,0,1-.05-.15.94.94,0,0,1,0-.16.88.88,0,0,1,0-.16v-.16a.81.81,0,0,1,0-.16.75.75,0,0,1,0-.16,1,1,0,0,1,.05-.16l.06-.14.09-.14.09-.13.11-.12.13-.11.13-.09.14-.07a.47.47,0,0,1,.15-.06l.16-.05.16,0h.32l.16,0,.16.05.15.06a.61.61,0,0,1,.14.07l.13.09.13.11.11.12a1.47,1.47,0,0,1,.1.13s.05.09.08.14.05.09.07.14a1,1,0,0,0,.05.16l0,.16a.81.81,0,0,1,0,.16.43.43,0,0,1,0,.16.88.88,0,0,1,0,.16l0,.16-.06.15a1,1,0,0,1-.07.15l-.08.13a1.47,1.47,0,0,1-.1.13l-.12.12-.12.1Z"/></g><path class="cls-4" d="M173.18,36.75,196,57.13l23.78-20.38Z"/><path class="cls-4" d="M219.81,36.75q.3,15.59.61,31.18l-47.86,1.55q.31-16.37.62-32.73l23.47,21Z"/><g class="cls-19"><path class="cls-9" d="M172.25,69.48l18.84-16.37"/><path class="cls-9" d="M202.82,52.19l17.3,16"/></g><path class="cls-9" d="M173.33,36.9l23,20.84L220,36.59"/><path class="cls-20" d="M308.18,501.66l-.41-18.78-25.11.92-1.26,19.88,16.77,7.47Z"/><path class="cls-21" d="M281.62,501.37s15.68,4.19,27,.27c0,0,4.09,10.86,11.72,13s27.81,3.52,29.07,9.72c.44,2.11.26,3.58-.47,4.6-2.14,3-7.88,2.47-9.95,2.28-8.22-.74-23.08-.67-44.51,0l-17-.9S275.9,507.35,281.62,501.37Z"/><path class="cls-20" d="M388.27,486.33l-9.71-16.09-21.31,13.31,8.81,17.86,18.27-1.87Z"/><path class="cls-21" d="M366.06,501.41s15.21-5.46,22.23-15.08a16.13,16.13,0,0,0,5.69,3c5.63,1.58,10.69-.53,13.53-1.75,9.13-3.95,12-10.33,16-9a5.5,5.5,0,0,1,3,3c2.66,6.57-9.67,17.43-16,23a138.88,138.88,0,0,1-32.6,21.26S364.76,509.53,366.06,501.41Z"/><path class="cls-22" d="M143.54,307.86c-2.26,7.89-5.28,23.45,1.85,38.91,11.48,24.92,40.79,31.09,50,33,11.31,2.38,20.87,1.89,39.53.93a299,299,0,0,0,32.11-3.4,420.87,420.87,0,0,0,12.66,107.15l32.12,3.09-.93-81.52q22.55,41.06,45.08,82.13L387.17,474C381,459.5,371.4,436.64,360,408.22c-19.15-47.76-23.09-60.65-37.37-74.42-18.77-18.1-40.27-23.12-63-28.41C214.25,294.81,173.24,300.14,143.54,307.86Z"/><path class="cls-20" d="M207.84,147.39c-.49,7.67,1.46,12.69,4.61,15.81,9.09,9,27.17,2.45,27.61-1.29.16-1.37-2.08-1.92-3.81-6.28-.64-1.61-1.55-4.59-1.55-4.59h0s-.06-.17-.16-.42a15.07,15.07,0,0,1-.68-2.8c-.61-4.59,2.2-12.67,2.2-12.69-6.38-4.88-13.69-12-20.05-16.83l-1.9-.35C214,118.28,208,147,207.84,147.39Z"/><path class="cls-23" d="M216.64,142.53l.06.11c3.12,6.15,9.64,9.16,16.15,12.06.85.38,2.12.93,3.71,1.55-.73-2-1.45-3.91-2.17-5.87a13.25,13.25,0,0,1-3.75.59C222.81,151,217.53,143.79,216.64,142.53Z"/><path class="cls-20" d="M246.48,126.61c-1.08,12.14-4.2,24.56-15.83,24.36-8.14-.15-17.3-10.15-20.42-20.05-1.59-5.1-3-9.56-3.49-13-.35-2.71-.46-4.43-.46-4.43l1.14-6.18.69-3.62,4.82-5.14c3.18-3.41,9.23.06,9.32-.14s15.78-4.74,21.71,1l0,0a6.36,6.36,0,0,1,1.28,1.64,4.22,4.22,0,0,1,.48,1.48c.12,1,.28,2.47.49,4.35.07.79.16,1.65.23,2.56.11,1.54.22,3.23.28,5A100.22,100.22,0,0,1,246.48,126.61Z"/><path class="cls-24" d="M209.12,130.15c.08.56-16.05-20.17-12-31.41s12.66-9.27,12.66-9.27,6.5-22.76,27.61-7.06c0,0,12,2,14.29,11.62s-5.21,15.44-5.21,15.44-.64-8.16-6-7.83c-3.91.24-1.07,4.12-11.69,2.87-6.56-.76-8.76-5-12.27-2.57s-.31,3.9-2.1,15.21C213.25,124.1,208.38,124.84,209.12,130.15Z"/><path class="cls-16" d="M228.35,138.85l8.89.53S233.06,145.87,228.35,138.85Z"/><path class="cls-20" d="M210.25,119.77s-7.42-3.93-6.56,3.11,7.85,9.5,7.85,9.5Z"/><path class="cls-21" d="M208.74,122.2s-5.65-1.17.58,5.91Z"/><path class="cls-21" d="M240.86,121.54a.93.93,0,0,1,.7.67,3,3,0,0,1-.39,2.71.94.94,0,0,1-.86.44c-.31,0-.54-.27-.7-.67a2.78,2.78,0,0,1-.13-1.4A2.63,2.63,0,0,1,240,122,.92.92,0,0,1,240.86,121.54Z"/><path class="cls-21" d="M226.35,120.52c.31,0,.54.26.71.67a3,3,0,0,1-.4,2.7.91.91,0,0,1-.86.44c-.31,0-.54-.27-.7-.67a2.77,2.77,0,0,1-.13-1.4,2.83,2.83,0,0,1,.52-1.3A.92.92,0,0,1,226.35,120.52Z"/><path class="cls-21" d="M238.66,115.81s3.06-2.65,6-1.37Z"/><path class="cls-21" d="M221.07,113.11c.25,0,4.35-1.07,7,1.42Z"/><path class="cls-21" d="M234,133.21a5.93,5.93,0,0,1-1.27-.16.27.27,0,0,1-.2-.33.25.25,0,0,1,.32-.18c1.32.3,2.19.16,2.43-.45a2,2,0,0,0-1-2.13.26.26,0,0,1,.26-.44,2.53,2.53,0,0,1,1.23,2.76A1.73,1.73,0,0,1,234,133.21Z"/><path class="cls-21" d="M240.94,129.27a3.85,3.85,0,0,1-.48,0,6.06,6.06,0,1,1,.48,0Zm-5.55-6.52a5.56,5.56,0,1,0,6-5.12A5.55,5.55,0,0,0,235.39,122.75Z"/><path class="cls-21" d="M225.88,128.1a3.85,3.85,0,0,1-.48,0,6.09,6.09,0,1,1,6.54-5.6,6.1,6.1,0,0,1-6.06,5.62Zm-5.57-6.53a5.55,5.55,0,0,0,5.12,6,5.6,5.6,0,0,0,6-5.12,5.55,5.55,0,0,0-5.12-6A5.61,5.61,0,0,0,220.31,121.57Z"/><path class="cls-21" d="M235.8,121.27a.3.3,0,0,1-.14,0c-2.45-1.6-4-.19-4-.13a.26.26,0,0,1-.37,0,.27.27,0,0,1,0-.37s1.9-1.76,4.7.07a.25.25,0,0,1,.08.36A.36.36,0,0,1,235.8,121.27Z"/><path class="cls-16" d="M159.51,182.55c5.74,34.12,15.19,58.35,22,73,8.75,18.83,14.14,24,18,27,14.44,11.18,31,10.12,33,19,1.23,5.39-3.73,10.77-5.6,12.8-19.65,21.29-74.94,4.31-83.68,1.54a469,469,0,0,1,9.88-106.84Q156,195.3,159.51,182.55Z"/><path class="cls-16" d="M219.51,166.55h13q5.51,56.49,11,113l-13-4q-8-2.49-16-5a98,98,0,0,1-11-32C198,203.41,213.77,175.66,219.51,166.55Z"/><path class="cls-20" d="M213.51,268.55l57,21q-4.06-7.73-8-16a433.29,433.29,0,0,1-19-47l27-7c1.59,4.83,9.81,29.88,14.67,50.83a44.39,44.39,0,0,1,1,17.72,42.2,42.2,0,0,1-5.56,15.13c-19.08,1.75-44.52,1-69.13-9.68-11.45-5-16.73-9-20-13-5.32-6.47-7.78-14.06-11-24a146.47,146.47,0,0,1-4-15l29-4Q209.52,253,213.51,268.55Z"/><path class="cls-16" d="M158.67,191.76c1,5.94,2.64,15.23,4.47,26.71,2.2,13.75,2.83,18.67,4,23.42a24.69,24.69,0,0,0,1.09,3.9,25.18,25.18,0,0,0,3.27,5.76c2.61,3.32,18.78,5.16,40,0a141.88,141.88,0,0,1,.11-22.89c.9-10.33,2.84-17.52,3.89-23.11,1.86-10,4.2-24.24,6-42.05a22.55,22.55,0,0,1-2.74-1.52,21.68,21.68,0,0,1-2.24-1.65,20.26,20.26,0,0,1-3.21-3.47,49.59,49.59,0,0,0-5.81-6.31,29.74,29.74,0,0,1-10,6,50.19,50.19,0,0,1-9.66,2c-3,.43-4.6.44-5.87.62-8,1.15-14.54,7.16-15,7.57C157.25,176,158.49,190.08,158.67,191.76Z"/><path class="cls-25" d="M194.18,190.52a156.09,156.09,0,0,0,15.33,62"/><path class="cls-16" d="M235.51,165.55l7-1,3,4a27.34,27.34,0,0,1,12,9,23.74,23.74,0,0,1,2.78,4.94c4.66,11.72,16.14,49.39,17.25,53.06l-29,6-7-15q5,28,10,56l-13-5-6-113Z"/><path class="cls-25" d="M160.51,182.55a168.29,168.29,0,0,0,20,71"/><polygon class="cls-2" points="127.79 404.2 478.26 404.82 481.35 415.94 126.55 414.7 127.79 404.2"/><path class="cls-2" d="M477.64,334.42l48.18,200.09-16.37.62L461,334.42Z"/><path class="cls-2" d="M131.19,334.11,83,534.2l16.37.62,48.48-200.71Z"/><rect class="cls-2" x="104.32" y="308.48" width="398.64" height="25.63" rx="10.56"/><rect class="cls-2" x="98.45" y="302.3" width="412.23" height="16.98" rx="4.1"/><line class="cls-26" x1="509.76" y1="312.18" x2="98.15" y2="313.11"/><path class="cls-9" d="M389.64,303.23,286.2,302.3c6-43,10.16-72.35,10.5-75.65a4.77,4.77,0,0,1,1.54-3.4,4.33,4.33,0,0,1,3.09-.61c3.1.36,45.47.41,105.29.3a6.23,6.23,0,0,1,4,4.95C401,266.53,394.36,293.32,394,296.74a8.39,8.39,0,0,1-1.85,4.64A7.41,7.41,0,0,1,389.64,303.23Z"/><path class="cls-4" d="M227.53,302.92a8.38,8.38,0,0,1,1.85-5.25c2.07-2.38,5.31-2.67,7.1-2.78,6.14-.37,22.54-.25,44.47.62,1.69-8.4,13.4-66.3,16.05-70.4a6.44,6.44,0,0,1,1.86-1.86c2.1-1.26,4.65-.77,6.17-.31q-8.64,40-17.29,80Z"/><ellipse class="cls-4" cx="353.36" cy="267.1" rx="7.87" ry="7.41"/><path class="cls-27" d="M223.51,164.55l13-9,6,9-15,8C226.18,169.88,224.84,167.21,223.51,164.55Z"/><path class="cls-27" d="M223.51,164.55l-17-16-7,7,19,17Q221,168.55,223.51,164.55Z"/><polygon class="cls-28" points="223.27 164.55 218.84 171.94 220.31 174.89 214.4 225.16 223.27 232.55 233.62 226.63 226.23 174.89 227.71 171.94 223.27 164.55"/></g></g></svg>