<svg xmlns="http://www.w3.org/2000/svg" xmlns:xlink="http://www.w3.org/1999/xlink" viewBox="0 0 683.86 399.65"><defs><style>.cls-1{fill:#ffe1b6;}.cls-2{fill:#4e79bc;}.cls-3{fill:#1e519a;}.cls-4{fill:#44b9e2;}.cls-5{fill:#a8c1e0;}.cls-6{fill:#eaeaea;}.cls-7{fill:#c8d2cf;}.cls-8{fill:#26343b;}.cls-9{fill:#ed8a22;}.cls-10{fill:#f2ac8c;}.cls-11{fill:#4b2d76;}.cls-12{fill:#516bb3;}.cls-13{fill:#7dd1e6;}.cls-14{fill:#583996;}.cls-15{fill:#f2f6fb;}.cls-16,.cls-25{fill:#24333a;}.cls-16,.cls-18,.cls-19,.cls-20,.cls-21,.cls-24,.cls-27,.cls-30{isolation:isolate;}.cls-17{clip-path:url(#clip-path);}.cls-18,.cls-30{fill:none;stroke:#333;stroke-miterlimit:10;}.cls-18{stroke-width:0.47px;}.cls-19{fill:#fff;}.cls-20{fill:#333;}.cls-21{fill:#2c2b2b;}.cls-22{fill:#2c2b2a;}.cls-23{fill:#bea788;}.cls-24{fill:#5571b4;}.cls-26{clip-path:url(#clip-path-2);}.cls-27{fill:#5667b0;}.cls-28{fill:#1a2d36;}.cls-29{clip-path:url(#clip-path-3);}.cls-30{stroke-width:0.43px;}.cls-31{fill:#bda787;}</style><clipPath id="clip-path"><path class="cls-1" d="M480.79,189.13v-12.7a4.78,4.78,0,0,1-2.35.94,5.09,5.09,0,0,1-4.7-2.35,5,5,0,0,1,.47-6.12,4.81,4.81,0,0,1,6.11-.47l-1.41-5.65q2.89-.76,6.12-1.41c3.33-.66,6.48-1.11,9.41-1.41-.24-2.33-.53-6,0-6.12s1.67,3.4,2.35,5.65h2.35c.35,2.64.69,4.69.95,6.12.12.7.28,1.56.47,2.82.22,1.47.41,2.81.47,3.76a15.29,15.29,0,0,1-2.83,8.94,16.67,16.67,0,0,1-2.35,2.83v5.17a30.57,30.57,0,0,1-8,.94A30.26,30.26,0,0,1,480.79,189.13Z"/></clipPath><clipPath id="clip-path-2"><path class="cls-2" d="M675.54,236.77a14.76,14.76,0,0,1-.42-2.24,34.68,34.68,0,0,1,1.67-14h0a1.18,1.18,0,0,1,.07-.2c0-.11.08-.29.13-.51v0c0-.2.1-.44.17-.72q0-.14.06-.3c.92-4.16,2.94-14.61,3.48-16a14.38,14.38,0,0,0,.55-2.28c.54-3.15.78-8.15-1-10.24-2.54-2.91-11.5-5.07-11.5-5.07-1.77,2.79-7.51,9.69-15,8.44-4.35-.72-5-9.24-5-9.24-4.67.65-5.87,1.36-5.87,1.36s-11.2,7-27,29.45c-.47.67-2.08.06-4.62.06-9.89,0-17.78-.41-22.95-.77a.52.52,0,0,0-.33,0c-1.13.43-.51,3.61-.51,3.61h0a140.78,140.78,0,0,0,15.57,6.14c2.84.91,5.81,1.76,8.64,2.4a45.16,45.16,0,0,0,7.35,1.11s9.14-3.54,18-13.37c.51,8.25,1.66,18.91,1,26.69-.4,4.43-3.41,19.35-2.65,21.83,1.57,5.16,13.66,5.43,24.46,4.89l.71,0c1.67-.09,3.31-.24,4.85-.41a66.68,66.68,0,0,0,7-1.13,34.38,34.38,0,0,0,6.9-2.23,7.38,7.38,0,0,0,3.61-3.08C681.74,255.24,676.74,243,675.54,236.77Z"/></clipPath><clipPath id="clip-path-3"><path class="cls-1" d="M665.83,184c-.59-3.22-1.17-6.47-1.73-9.73-.05-.28-.09-.56-.14-.84a4.32,4.32,0,0,0,2.25.48,4.58,4.58,0,0,0,3.85-2.83,4.52,4.52,0,0,0-1.35-5.4,4.39,4.39,0,0,0-5.55.51c.13-1.76.26-3.51.4-5.27-4.73-6.23-11.53-8-15.28-5.63-2.23,1.41-3,4.09-3.35,5.78.09,2.41.1,4.3.09,5.62,0,.65,0,1.45,0,2.6,0,1.35.06,2.58.16,3.44a13.84,13.84,0,0,0,3.9,7.58,15.32,15.32,0,0,0,2.54,2.16c.26,1.55.52,3.1.79,4.64a8.19,8.19,0,0,0,2.73,1.16C660.58,189.51,665.31,184.58,665.83,184Z"/></clipPath></defs><g id="Layer_2" data-name="Layer 2"><g id="Layer_1-2" data-name="Layer 1"><rect class="cls-3" x="28.85" y="247.06" width="73.58" height="73.58"/><rect class="cls-4" x="51.42" y="247.06" width="73.58" height="73.58"/><rect class="cls-5" x="91.13" y="320.64" width="79.01" height="79.01"/><rect class="cls-2" x="115.8" y="320.64" width="79.01" height="79.01"/><path class="cls-6" d="M114.79,292.88l-7.1-26.57a1.9,1.9,0,0,0-2.32-1.34l-44.2,11.82a1.9,1.9,0,0,0-1.34,2.32l7.11,26.57A1.9,1.9,0,0,0,69.25,307l44.21-11.83A1.9,1.9,0,0,0,114.79,292.88Z"/><path class="cls-7" d="M107.69,266.31a1.9,1.9,0,0,0-2.32-1.34l-44.2,11.82a1.9,1.9,0,0,0-1.34,2.32L87.31,286l20.58-18.92Z"/><rect class="cls-5" y="320.64" width="79.01" height="79.01"/><rect class="cls-2" x="24.25" y="320.64" width="79.01" height="79.01"/><polygon class="cls-2" points="24.3 320.64 0 335.37 0 320.64 24.3 320.64"/><rect class="cls-5" x="169.73" y="353.25" width="45.15" height="45.15"/><rect class="cls-5" x="183.52" y="353.25" width="45.15" height="45.15"/><polygon class="cls-5" points="183.28 353.25 169.31 361.72 169.31 353.25 183.28 353.25"/><rect class="cls-5" x="55.18" y="203.17" width="45.15" height="45.15"/><rect class="cls-5" x="68.98" y="203.17" width="45.15" height="45.15"/><polygon class="cls-5" points="68.74 203.17 54.76 211.64 54.76 203.17 68.74 203.17"/><rect class="cls-3" x="66.89" y="336.94" width="62.71" height="62.71"/><rect class="cls-4" x="86.54" y="336.94" width="62.71" height="62.71"/><rect class="cls-6" x="129.48" y="342.11" width="15.32" height="7.78" transform="translate(-65.1 33.55) rotate(-11.29)"/><polygon class="cls-6" points="94.86 346.98 77.66 346.98 78.38 344.97 77.66 342.8 94.7 342.8 93.65 345.05 94.86 346.98"/><polygon class="cls-7" points="86.12 342.8 86.12 346.98 77.52 346.98 78.24 344.97 77.52 342.8 86.12 342.8"/><polygon class="cls-6" points="94.86 393.38 77.66 393.38 78.38 391.37 77.66 389.2 94.7 389.2 93.65 391.45 94.86 393.38"/><polygon class="cls-7" points="86.12 389.2 86.12 393.38 77.52 393.38 78.24 391.37 77.52 389.2 86.12 389.2"/><polygon class="cls-6" points="63.46 267.97 39.38 267.97 40.39 265.15 39.38 262.11 63.23 262.11 61.77 265.26 63.46 267.97"/><polygon class="cls-7" points="51.42 262.11 51.42 267.97 39.38 267.97 40.39 265.15 39.38 262.11 51.42 262.11"/><rect class="cls-5" x="259.61" y="5.02" width="163.46" height="394.22"/><rect class="cls-2" x="259.19" y="5.02" width="29.26" height="394.22"/><rect class="cls-8" x="295.56" y="5.02" width="163.46" height="394.22"/><rect class="cls-8" x="423.48" y="5.02" width="30.1" height="394.22"/><path class="cls-9" d="M522.35,230.56a54.53,54.53,0,0,1-17.84-13.22c-.6-.72-1.27-1.44-1.87-2.22-.48-.54-1-5.86-1.33-11.43C502.76,205.13,519.63,221.41,522.35,230.56Z"/><path class="cls-10" d="M480.4,183.84c5.07-2.7,12.94-2.82,14.21-2.83h.17l-.17-.12c-.84-.62-4.61-3.38-8.11-5.91l-6.39-1.93A48.2,48.2,0,0,1,480.4,183.84Z"/><path class="cls-11" d="M497.29,154c3.2,1.68-10,3.1-10.83,8.45s-7.11,7.39-7.11,7.39S471.36,140.34,497.29,154Z"/><path class="cls-6" d="M499.92,175.33s-.13,1.13-2.91,1.29c0,0-2.34.13-2.41-1.09A7.54,7.54,0,0,1,499.92,175.33Z"/><path class="cls-10" d="M554.78,221.22A145.21,145.21,0,0,1,539,227.34c-2.87.9-5.86,1.75-8.73,2.38a20.75,20.75,0,0,1,.43-11.32c3.76-.73,11.79-.78,23.37-2.47Z"/><path class="cls-12" d="M391.71,271.73v-.42H346.92a9.87,9.87,0,0,0-10,9.7,9.76,9.76,0,0,0,8.39,9.57V399.23H513.78V271.73Z"/><rect class="cls-2" x="392.12" y="271.73" width="168.47" height="127.5"/><path class="cls-5" d="M585.3,271.31H347a9.62,9.62,0,1,0,0,19.23H585.3c6.15,0,11.15-4.33,11.15-9.61S591.45,271.31,585.3,271.31Z"/><rect class="cls-4" x="300.99" y="173.07" width="37.21" height="33.03"/><rect class="cls-13" x="307.68" y="173.07" width="37.21" height="33.03"/><rect class="cls-4" x="348.65" y="168.05" width="46.82" height="38.04"/><rect class="cls-13" x="357.01" y="168.05" width="46.82" height="38.04"/><rect class="cls-14" x="295.56" y="45.57" width="153.84" height="5.43"/><rect class="cls-2" x="259.61" width="199.41" height="5.43"/><rect class="cls-2" x="295.56" y="99.08" width="153.84" height="5.43"/><rect class="cls-14" x="295.56" y="152.59" width="153.84" height="5.43"/><rect class="cls-2" x="295.56" y="205.68" width="153.84" height="5.43"/><rect class="cls-13" x="300.99" y="55.6" width="43.48" height="43.48"/><rect class="cls-13" x="314.37" y="55.6" width="43.48" height="43.48"/><polygon class="cls-13" points="314.44 55.18 300.99 63.33 300.99 55.18 314.44 55.18"/><rect class="cls-4" x="331.51" y="64.8" width="34.28" height="34.28"/><rect class="cls-4" x="342.38" y="64.8" width="34.28" height="34.28"/><rect class="cls-4" x="329.42" y="227" width="34.28" height="34.28"/><rect class="cls-4" x="340.29" y="227" width="34.28" height="34.28"/><rect class="cls-4" x="322.31" y="11.29" width="34.28" height="34.28"/><rect class="cls-3" x="332.76" y="11.29" width="34.28" height="34.28"/><rect class="cls-6" x="335.9" y="36.04" width="13" height="6.6" transform="translate(-1.08 67.81) rotate(-11.29)"/><polygon class="cls-6" points="338.67 20.07 326.62 20.07 327.13 18.66 326.62 17.14 338.55 17.14 337.82 18.72 338.67 20.07"/><polygon class="cls-7" points="332.76 17.14 332.76 20.07 326.74 20.07 327.25 18.66 326.74 17.14 332.76 17.14"/><rect class="cls-2" x="371.64" y="21.32" width="24.25" height="24.25"/><rect class="cls-2" x="379.17" y="21.32" width="24.25" height="24.25"/><polygon class="cls-2" points="379.12 21.32 371.64 25.86 371.64 21.32 379.12 21.32"/><polygon class="cls-2" points="383.36 26.34 374.76 26.34 375.12 25.33 374.76 24.25 383.28 24.25 382.76 25.37 383.36 26.34"/><polygon class="cls-2" points="379.17 24.25 379.17 26.34 374.86 26.34 375.23 25.33 374.86 24.25 379.17 24.25"/><polygon class="cls-2" points="383.36 41.39 374.76 41.39 375.12 40.38 374.76 39.3 383.28 39.3 382.76 40.42 383.36 41.39"/><polygon class="cls-2" points="379.17 39.3 379.17 41.39 374.86 41.39 375.23 40.38 374.86 39.3 379.17 39.3"/><rect class="cls-2" x="301.41" y="123.74" width="28.43" height="28.43"/><rect class="cls-2" x="310.19" y="123.74" width="28.43" height="28.43"/><rect class="cls-2" x="312.77" y="144.5" width="10.8" height="5.49" transform="translate(-22.67 65.15) rotate(-11.29)"/><polygon class="cls-2" points="315.25 131.27 304.92 131.27 305.36 130.06 304.92 128.76 315.15 128.76 314.52 130.11 315.25 131.27"/><polygon class="cls-2" points="310.19 128.76 310.19 131.27 305.03 131.27 305.46 130.06 305.03 128.76 310.19 128.76"/><rect class="cls-5" x="341.96" y="123.74" width="28.43" height="28.43"/><rect class="cls-5" x="351.16" y="123.74" width="28.43" height="28.43"/><rect class="cls-5" x="353.57" y="144.5" width="10.8" height="5.49" transform="translate(-21.88 73.14) rotate(-11.29)"/><polygon class="cls-5" points="356.04 131.27 345.72 131.27 346.15 130.06 345.72 128.76 355.94 128.76 355.31 130.11 356.04 131.27"/><polygon class="cls-5" points="350.74 128.76 350.74 131.27 345.58 131.27 346.01 130.06 345.58 128.76 350.74 128.76"/><rect class="cls-5" x="380.84" y="78.17" width="20.9" height="20.9"/><rect class="cls-5" x="387.11" y="78.17" width="20.9" height="20.9"/><polygon class="cls-5" points="387.25 78.17 380.84 82.06 380.84 78.17 387.25 78.17"/><rect class="cls-5" x="395.47" y="82.77" width="16.3" height="16.3"/><rect class="cls-5" x="400.49" y="82.77" width="16.3" height="16.3"/><rect class="cls-5" x="402" y="94.51" width="6.2" height="3.15" transform="translate(-10.97 81.18) rotate(-11.29)"/><polygon class="cls-5" points="403.42 86.95 397.5 86.95 397.75 86.23 397.5 85.7 403.37 85.7 403.01 86.25 403.42 86.95"/><polygon class="cls-5" points="400.49 85.7 400.49 86.95 397.5 86.95 397.75 86.23 397.5 85.7 400.49 85.7"/><polygon class="cls-5" points="390.62 82.77 383.74 82.77 384.03 81.97 383.74 81.1 390.56 81.1 390.14 82 390.62 82.77"/><polygon class="cls-5" points="387.11 81.1 387.11 82.77 383.67 82.77 383.96 81.97 383.67 81.1 387.11 81.1"/><polygon class="cls-5" points="390.62 95.31 383.74 95.31 384.03 94.51 383.74 93.64 390.56 93.64 390.14 94.54 390.62 95.31"/><polygon class="cls-5" points="387.11 93.64 387.11 95.31 383.67 95.31 383.96 94.51 383.67 93.64 387.11 93.64"/><polygon class="cls-5" points="427.33 114.54 418.57 152.59 442.78 152.59 451.54 114.54 427.33 114.54"/><polygon class="cls-15" points="411.64 114.54 402.88 152.59 427.08 152.59 435.85 114.54 411.64 114.54"/><path class="cls-5" d="M418.46,134.89v16.56a1.14,1.14,0,0,1-1.13,1.14l-27.43,0a1.14,1.14,0,0,1-1.13-1.14V134.91a1.14,1.14,0,0,1,1.14-1.14l27.42,0A1.14,1.14,0,0,1,418.46,134.89Z"/><path class="cls-5" d="M418.46,134.89v.48l-14.89,7.8-14.9-8.26a1.14,1.14,0,0,1,1.14-1.14l27.51,0A1.14,1.14,0,0,1,418.46,134.89Z"/><path class="cls-5" d="M415.94,149.66h-4.7a.42.42,0,0,0,0,.84h4.7a.42.42,0,1,0,0-.83Z"/><path class="cls-2" d="M411.88,133.77l-27.4,0a1.13,1.13,0,0,0-1.13,1.14v16.52a1.14,1.14,0,0,0,1.13,1.14l27.41,0a1.14,1.14,0,0,0,1.13-1.14V134.91A1.14,1.14,0,0,0,411.88,133.77Z"/><path class="cls-2" d="M413.45,134.89v.48l-14.9,7.8-14.9-8.26a1.14,1.14,0,0,1,1.14-1.14h27.52A1.13,1.13,0,0,1,413.45,134.89Z"/><path class="cls-2" d="M410.86,149.66h-4.69a.42.42,0,1,0,0,.84h4.69a.42.42,0,1,0,0-.83Z"/><rect class="cls-14" x="295.14" y="261.28" width="153.84" height="5.43"/><rect class="cls-2" x="300.99" y="232.43" width="28.43" height="28.43"/><rect class="cls-2" x="309.77" y="232.43" width="28.43" height="28.43"/><rect class="cls-2" x="312.36" y="253.19" width="10.8" height="5.49" transform="translate(-43.96 67.17) rotate(-11.29)"/><polygon class="cls-2" points="314.83 239.96 304.51 239.96 304.94 238.75 304.51 237.45 314.73 237.45 314.1 238.8 314.83 239.96"/><polygon class="cls-2" points="309.77 237.45 309.77 239.96 304.61 239.96 305.04 238.75 304.61 237.45 309.77 237.45"/><polygon class="cls-5" points="426.91 223.24 418.15 261.28 442.36 261.28 451.12 223.24 426.91 223.24"/><polygon class="cls-13" points="411.22 223.24 402.46 261.28 426.67 261.28 435.43 223.24 411.22 223.24"/><path class="cls-16" d="M476.06,188.49a3.29,3.29,0,0,1-.45-.45c-1-1.27-.69-3.09-.45-4l-2.24,4.48a10.53,10.53,0,0,0-2.24-.9,7.37,7.37,0,0,0-4.93,0c-1.05.48-1.34,1.08-1.79.9-.67-.26-.79-1.89-.45-3.14a6.94,6.94,0,0,1,2.24-3.13c1.28-1.23,1.64-1.12,2.69-2.24a6.46,6.46,0,0,0,1.79-2.69c.54-2-.53-3.93-1.34-5.38-.91-1.63-1.34-1.62-1.79-2.69-.52-1.22-.72-3.05.44-5.83a5.64,5.64,0,0,1-2.69-.44,6.78,6.78,0,0,1-3.58-7.62,6.58,6.58,0,0,1,5.38-4.93,6.88,6.88,0,0,1,5.38,1.79,10,10,0,0,1,1.79-2.24c2.88-2.69,6.69-3,9-3.14a23.08,23.08,0,0,1,3.14,0,8.15,8.15,0,0,1,3.13-.89,9.23,9.23,0,0,1,5.83,1.79c.55.36,1.16.83,4,4,1.33,1.48,2.4,2.72,3.14,3.59l-3.14.45a5.39,5.39,0,0,1,.9,1.34,5.56,5.56,0,0,1,.45,3.14c-.17,1.06-.53,1.17-.9,2.24-.06.19-1.1,3.31.45,5.38a7.73,7.73,0,0,0,2.69,1.79c1.14.6,1.43.6,3.14,1.34,2.21,1,3.33,1.46,4,2.24a5.84,5.84,0,0,1,1.34,3.14,7.63,7.63,0,0,0-4.93.45,7.47,7.47,0,0,0-3.13,2.69l-4.48-3.14a5.46,5.46,0,0,1,1.34,2.69,5.05,5.05,0,0,1,0,1.79,13,13,0,0,1-2.24.9,12.72,12.72,0,0,1-4.48.45C490.22,183.67,477.79,189.87,476.06,188.49Z"/><path class="cls-16" d="M471.35,155.55c-.14-.16,1.15-2,3.14-3.58,4.42-3.61,9.77-4.29,9.86-4s-4.61,1.83-4.48,2.24,6.64-1.18,6.72-.89-2.47.41-4.93,2.24c-2.23,1.66-3.43,3.88-4,3.58-.38-.19-.05-1.14-.45-1.34-.8-.4-3.1,3-3.59,2.69-.29-.18.41-1.47,0-1.79S471.5,155.71,471.35,155.55Z"/><path class="cls-1" d="M480.79,189.13v-12.7a4.78,4.78,0,0,1-2.35.94,5.09,5.09,0,0,1-4.7-2.35,5,5,0,0,1,.47-6.12,4.81,4.81,0,0,1,6.11-.47l-1.41-5.65q2.89-.76,6.12-1.41c3.33-.66,6.48-1.11,9.41-1.41-.24-2.33-.53-6,0-6.12s1.67,3.4,2.35,5.65h2.35c.35,2.64.69,4.69.95,6.12.12.7.28,1.56.47,2.82.22,1.47.41,2.81.47,3.76a15.29,15.29,0,0,1-2.83,8.94,16.67,16.67,0,0,1-2.35,2.83v5.17a30.57,30.57,0,0,1-8,.94A30.26,30.26,0,0,1,480.79,189.13Z"/><g class="cls-17"><path class="cls-18" d="M476.09,170.78a2.83,2.83,0,0,1,1.88,0,2.87,2.87,0,0,1,1.65,1.65,3.15,3.15,0,0,0-1.88.47,2.93,2.93,0,0,0-.94.94"/><path class="cls-19" d="M490.7,175.05c.59-.42,1.33-.11,2,0a4.37,4.37,0,0,0,1.72-.2c.73-.22,1.55-.72,1.9.32a2.14,2.14,0,0,1-.85,2.45,4.31,4.31,0,0,1-2.41.72c-1.2,0-2.79-.66-2.84-2.05A1.38,1.38,0,0,1,490.7,175.05Z"/><path class="cls-20" d="M484.09,164c.2-.53.62-.72,1.41-1.1a9.06,9.06,0,0,1,1.88-.55c.57-.14.8-.16.94,0a1.06,1.06,0,0,1,0,1.1c-.3.52-.88.27-1.88.55-1.41.4-2,1.41-2.35,1.1S484,164.31,484.09,164Z"/><path class="cls-20" d="M499.12,162.26c-.3-.36-.73-.42-1.56-.53a10.94,10.94,0,0,0-1.89,0c-.56,0-.78.06-.88.23a.74.74,0,0,0,.22.87c.39.34.89,0,1.89,0,1.41,0,2.19.63,2.44.3S499.31,162.5,499.12,162.26Z"/><path class="cls-21" d="M486.91,166.08c-.32.07-.46.59-.47.94,0,.71.55,1.47.94,1.41s.63-.81.47-1.41S487.27,166,486.91,166.08Z"/><path class="cls-21" d="M496.84,165.14c-.25.06-.37.48-.37.75,0,.57.44,1.18.75,1.13s.5-.65.37-1.13S497.13,165.07,496.84,165.14Z"/><path class="cls-22" d="M494.44,168a2.15,2.15,0,0,1,1.22,1.88,2.1,2.1,0,0,1-.34,1.15,1.84,1.84,0,0,1-.88.73,2.81,2.81,0,0,0,.75-1.87A3.14,3.14,0,0,0,494.44,168Z"/></g><path class="cls-1" d="M467.07,271.31l42.9-.06s-5.34-28.56-2.37-37.92-.15-23-.15-23c-4.31-10.17-5.4-19.68-7.32-20.18-1.06-.28-1.9-.84-2.94-1a55.5,55.5,0,0,0-30.55,2.74c-3.78,9.43,4.32,16.52,4.71,37.82C471.74,250.57,467.07,271.31,467.07,271.31Z"/><path class="cls-23" d="M484.25,182.54a12.57,12.57,0,0,0,3.42,1.79,13.34,13.34,0,0,0,8.13,0v4.18a2.26,2.26,0,0,1,.84.42,2.62,2.62,0,0,1,.83,2.09,25.59,25.59,0,0,1-8.09-3.75A25.28,25.28,0,0,1,484.25,182.54Z"/><path class="cls-8" d="M554.77,221.23a149.77,149.77,0,0,1-15.73,6.1c-2.89.9-5.85,1.74-8.74,2.4a38.57,38.57,0,0,1-7.41,1.07,4.72,4.72,0,0,1-.54-.24,54.53,54.53,0,0,1-17.84-13.22c-.6-.72-1.27-1.44-1.87-2.22-.48-.54-1-5.86-1.33-11.43l-.06-.06c-.42-6.52-.72-13.47-.72-13.47S511,193,526.08,218.36c.42.71,1.69.59,4.64.06,3.8-.72,11.45-.66,23-2.34,0,0,.43.3.55,1.56A16,16,0,0,0,554.77,221.23Z"/><path class="cls-24" d="M512.6,273.3s-32.66,6.7-51.34-.24c-1-.42,2.89-14.43,5.6-24a85.74,85.74,0,0,0,2.29-8.86c-.66-13-3.25-24.18-4.46-32.8a50,50,0,0,1-.66-6.22v-1a15.88,15.88,0,0,1,1.44-7.72c2-3.77,13.08-3.83,13.08-3.83,1.09,1.26,7.05,5.38,14.16,5.32s3.63-5.09,3.63-5.09a3.62,3.62,0,0,1,1,.19c6.2,2,5.32,19.7,5.14,22.86a80,80,0,0,1,8.3,17.83A83.63,83.63,0,0,1,512.6,273.3Z"/><path class="cls-8" d="M467,224.07q-1.26-8.08-2.26-16.67c-.24-2.09-.46-4.17-.66-6.22v-1a15.88,15.88,0,0,1,1.44-7.72c2-3.77,13.08-3.83,13.08-3.83,1.09,1.26,7.05,5.38,14.16,5.32s3.63-5.09,3.63-5.09c.3.06.77.13,1,.19a18.11,18.11,0,0,1,6,2.45l7.11,35.88c-8.24-9.49-20-14-30.52-11.29A27,27,0,0,0,467,224.07Z"/><path class="cls-24" d="M471.55,189.37a21.08,21.08,0,0,1,7.53,12.55c1.38,8.47-3.24,17.45-11.71,22.57a146.51,146.51,0,0,0,43.9,5.43c-1.56-9-3.49-18.34-5.86-28q-1.41-5.78-2.92-11.29l-3.35-1.26,1.68,15.89-15.05-.42-8.36-16.3Z"/><path class="cls-8" d="M525.51,224.73s-12.33,6.16-23,8.7a48.65,48.65,0,0,1-8.57,1.37s-11.5-3.51-20.27-15.72C456.7,195.5,469.79,193,469.79,193s11.32,7,27.31,29.35c.56.78,2,.61,5.6-.12,3.89-.78,11.62-.69,22.3-2.25a5.87,5.87,0,0,1,.28,1.66C525.53,224.37,525.51,224.73,525.51,224.73Z"/><path class="cls-1" d="M551.22,216.65a24.52,24.52,0,0,0,5.37-1.78c2.44-1.21,8.95-2,10.33-.73s-1.46,6.55-7.4,6.71-7.65,1.13-7.65,1.13Z"/><rect class="cls-5" x="528.41" y="204.84" width="26.75" height="26.75"/><rect class="cls-5" x="536.35" y="204.84" width="26.75" height="26.75"/><polygon class="cls-5" points="536.28 204.84 527.99 209.84 527.99 204.84 536.28 204.84"/><polygon class="cls-5" points="540.76 210.69 532.1 210.69 532.46 209.69 532.1 208.6 540.67 208.6 540.15 209.73 540.76 210.69"/><polygon class="cls-5" points="536.35 208.6 536.35 210.69 532.02 210.69 532.38 209.69 532.02 208.6 536.35 208.6"/><polygon class="cls-5" points="540.76 226.58 532.1 226.58 532.46 225.57 532.1 224.49 540.68 224.49 540.15 225.62 540.76 226.58"/><polygon class="cls-5" points="536.35 224.49 536.35 226.58 532.02 226.58 532.38 225.57 532.02 224.49 536.35 224.49"/><path class="cls-1" d="M522,220.69a26.2,26.2,0,0,0,5.73-1.9c2.61-1.3,9.56-2.16,11-.78s-1.56,7-7.9,7.16-8.16,1.21-8.16,1.21Z"/><path class="cls-15" d="M418,243.58v16.56a1.13,1.13,0,0,1-1.13,1.14l-27.42,0a1.15,1.15,0,0,1-1.14-1.14V243.6a1.14,1.14,0,0,1,1.14-1.13l27.42,0A1.14,1.14,0,0,1,418,243.58Z"/><path class="cls-7" d="M418,243.58v.48l-14.89,7.8-14.9-8.26a1.14,1.14,0,0,1,1.14-1.13l27.52,0A1.13,1.13,0,0,1,418,243.58Z"/><path class="cls-1" d="M636.47,397.15c-.22,2.76-26.31.81-26.6-.07s2.72-1.43,5.92-2.19l1.21-.29a16.17,16.17,0,0,0,9.11-5.89c2.69-3.45,5.15-19.13,5.15-19.13l9.68,1.81s-5.64,13.44-6.21,17.85c-.26,2,1.14,3.3,1.47,5A10.67,10.67,0,0,1,636.47,397.15Z"/><path class="cls-11" d="M636.47,397.08a2.39,2.39,0,0,1-1.89,2.15h-7.21a10.15,10.15,0,0,0-2.68,0H613.05c-2.12-.67-3-1.67-3.18-2.22-.27-.79,2.72-1.43,5.92-2.18l0,.06a17.33,17.33,0,0,0,9.08,1.69c4.16-.39,8.42-2.09,11.29-2.38A10.67,10.67,0,0,1,636.47,397.08Z"/><path class="cls-25" d="M627.81,380.87a16,16,0,0,0,4.93,2.12c3.57.65,5.23-.07,5.23-.07s17.21-43.21,16.23-57.8c0-.36,0-.73,0-1.12a60.93,60.93,0,0,1,1-9.8c.23-1.42.5-2.91.8-4.46.69-3.6,1.54-7.48,2.48-11.44.41-1.74.84-3.5,1.28-5.25,4.33-17.28,9.61-34.3,9.61-34.3s-31-10.14-32.8-.66c-.68,3.63-2.92,18.19-1.91,40.45a321.44,321.44,0,0,1-1.26,48.11A263.55,263.55,0,0,1,627.81,380.87Z"/><path class="cls-25" d="M654.16,324a60.93,60.93,0,0,1,1-9.8c.23-1.42.5-2.91.8-4.46.69-3.59,1.54-7.48,2.48-11.44.41-1.74.84-3.5,1.28-5.25-.61-5.28-1.11-8.89-1.11-8.89A44.18,44.18,0,0,0,654.16,324Z"/><path class="cls-1" d="M675.64,397.15c-.22,2.76-26.31.81-26.6-.07s2.72-1.43,5.92-2.19l1.21-.29c3.61-.88,6-3.56,9.11-5.89,2.94-2.21.88-12.91.88-12.91l9.11-3.26s-1.38,10.77-1.38,16.7c0,2,1.15,3.3,1.48,5A10.67,10.67,0,0,1,675.64,397.15Z"/><path class="cls-11" d="M675.64,397.08a2.39,2.39,0,0,1-1.89,2.15h-7.21a10.15,10.15,0,0,0-2.68,0H652.23c-2.13-.67-3-1.67-3.19-2.22-.27-.79,2.72-1.43,5.92-2.18l0,.06a17.36,17.36,0,0,0,9.08,1.69c4.16-.39,8.42-2.09,11.29-2.38A10.67,10.67,0,0,1,675.64,397.08Z"/><path class="cls-25" d="M650.59,255.37s10.1,50.35,11.81,77.75,3.83,50.08,3.83,50.08a13.4,13.4,0,0,0,4.74.66,17.68,17.68,0,0,0,4.79-1s10-41.23,6.69-57.73-.55-31.72,1-45.41c2.28-19.63-6.5-28.75-12.63-35S650.59,255.37,650.59,255.37Z"/><path class="cls-1" d="M653.26,173.55s1.86,10.82-4.88,15.93l4.85,7.26,9.74-.48,4.5-11.64s-1.38-.27-2-14.78Z"/><path class="cls-1" d="M647,187.65v-3a30.7,30.7,0,0,1,7.39-1.23,36.15,36.15,0,0,1,9,.91,124,124,0,0,1,12.13,3c-1.69,9.42-2.72,17.38-3.46,23.29-1.53,12.18-2.64,25.41-1,29.65a89.75,89.75,0,0,1,4.61,16l-36.21.45s.5-29.12-1.17-39.43c-2.71-16.75,1.83-27.52,7.24-29.36A5.49,5.49,0,0,1,647,187.65Z"/><path class="cls-2" d="M675.54,236.77a14.76,14.76,0,0,1-.42-2.24,34.68,34.68,0,0,1,1.67-14h0a1.18,1.18,0,0,1,.07-.2c0-.11.08-.29.13-.51v0c0-.2.1-.44.17-.72q0-.14.06-.3c.92-4.16,2.94-14.61,3.48-16a14.38,14.38,0,0,0,.55-2.28c.54-3.15.78-8.15-1-10.24-2.54-2.91-11.5-5.07-11.5-5.07-1.77,2.79-7.51,9.69-15,8.44-4.35-.72-5-9.24-5-9.24-4.67.65-5.87,1.36-5.87,1.36s-11.2,7-27,29.45c-.47.67-2.08.06-4.62.06-9.89,0-17.78-.41-22.95-.77a.52.52,0,0,0-.33,0c-1.13.43-.51,3.61-.51,3.61h0a140.78,140.78,0,0,0,15.57,6.14c2.84.91,5.81,1.76,8.64,2.4a45.16,45.16,0,0,0,7.35,1.11s9.14-3.54,18-13.37c.51,8.25,1.66,18.91,1,26.69-.4,4.43-3.41,19.35-2.65,21.83,1.57,5.16,13.66,5.43,24.46,4.89l.71,0c1.67-.09,3.31-.24,4.85-.41a66.68,66.68,0,0,0,7-1.13,34.38,34.38,0,0,0,6.9-2.23,7.38,7.38,0,0,0,3.61-3.08C681.74,255.24,676.74,243,675.54,236.77Z"/><g class="cls-26"><path class="cls-27" d="M650.89,191.88c-.29-.64-.57-1.34-.83-2.09a25.45,25.45,0,0,1-1.26-5.43,22.8,22.8,0,0,0-10.52,3.21c-8,4.66-24.85,3.56-28.35,11.17-2.81,6.11,3.44,16.34,1.28,17.37a5,5,0,0,1-.94.19,10.84,10.84,0,0,1-3.69-.13c-3.73-.71-11.33-.62-22.81-2.26,0,0-.4.28-.5,1.5a17.63,17.63,0,0,1-.52,3.5,145.57,145.57,0,0,0,15.6,6c2.84.88,5.81,1.7,8.65,2.32a46,46,0,0,0,7.36,1.07c4.49,3.65,10.3,4.7,14.8,2.51,5.67-2.77,7-9.63,7.1-10a40.86,40.86,0,0,0,.42-7.11,17.86,17.86,0,0,1,.56-6.23,14.2,14.2,0,0,1,1.53-3.38C641.81,198.9,649.89,192.65,650.89,191.88Z"/></g><path class="cls-2" d="M651.7,251c2.06,7,3.26,12.78,8.45,16.68,1.69-.09,3.36-.24,4.91-.42a65.48,65.48,0,0,0,7.1-1.13,34.66,34.66,0,0,0,7-2.24,7.41,7.41,0,0,0,3.64-3.08c-1-5.65-6.1-17.94-7.32-24.17a15.13,15.13,0,0,1-.24-1.64,40.78,40.78,0,0,1,1.5-14.65h0l.2-.71v0c0-.15.1-.4.17-.73l.06-.29c.83-4,3-16.37,3.57-18,.17-.51-.24-2.81-.07-3.89L676.92,194s-25,10.69-30.52,25.42S648.73,241,651.7,251Z"/><path class="cls-27" d="M621.85,220.15s12.33,6.19,23,8.75a47.82,47.82,0,0,0,8.57,1.38,38.3,38.3,0,0,0,20.27-15.83c14.75-22.69,3.87-26.3,3.87-26.3s-11.33,7.07-27.32,29.56c-.56.78-2,.61-5.6-.13-3.89-.78-11.62-.69-22.29-2.26a6,6,0,0,0-.29,1.66C621.84,219.78,621.85,220.15,621.85,220.15Z"/><path class="cls-1" d="M610,215.06c-3.72-.73-11.63-.79-23-2.44a20.15,20.15,0,0,1-2.83-1.11c-2.44-1.23-9-2-10.33-.74s1.46,6.59,7.4,6.75a38.34,38.34,0,0,1,4.79.4,146,146,0,0,0,15.69,6.14c2.86.91,5.86,1.76,8.73,2.4A21.14,21.14,0,0,0,610,215.06Z"/><path class="cls-1" d="M644.87,228.9a12.59,12.59,0,0,1-.21-11.32c-3.89-.78-11.67-1.12-22.35-2.69v0a24.56,24.56,0,0,1-4.38-1.59c-2.6-1.31-9.55-2.17-11-.79s1.56,7,7.9,7.21a31.72,31.72,0,0,1,6.83.77C622.7,221,634.66,226.45,644.87,228.9Z"/><path class="cls-28" d="M645.37,162.07c.27,0,.43,1,1.42,1.42s2,0,2.11-.4-.87-.62-1.61-1.9c-.09-.15-.39-.66-.3-.73s1.25,1.16,2.1,1.87c3.27,2.68,8.88,1.58,9,.9,0-.23-.65-.27-1.56-1.15a4.16,4.16,0,0,1-1.4-2.41c.2-.13,1.65,3.4,3.94,3.5,1,0,1.42-.53,2.22-.15a4.41,4.41,0,0,1,1.61,1.9,3.34,3.34,0,0,0,.56,1c1.19,1.41,3.94-.42,5.65.85a3.53,3.53,0,0,1,1.07,3.24c-.35,2.24-2.93,3.14-3.18,3.23a5.33,5.33,0,0,1-3.19,0,35.18,35.18,0,0,1,1.07,5.39c.18,1.56.65,6.41,1.85,7l.29.12c.52.13,1.13-.2,3.76-.39,2.16-.15,2.42,0,3.1-.32a4.31,4.31,0,0,0,2.23-3.66c-.05-1.87-1.58-2.57-1.27-4.19.25-1.3,1.34-1.38,1.33-2.34,0-1.46-2.51-1.75-4-4a7.54,7.54,0,0,1-1-4c-.26-3.5-1.83-10.23-5.1-13.47-4.52-4.44-13.11-3.13-18-.76-1.53.73-6.69,3.2-7,7-.19,2.29,1.53,3.26,1,6-.48,2.46-2.06,2.67-2.23,5.08-.16,2.19,1.05,2.61.81,4.71s-2,2.66-1.71,4.13,1.93,1.31,3.68,3.27c2.06,2.31,1.21,4.14,2.85,5.58a5.66,5.66,0,0,0,6.71.56,5.93,5.93,0,0,0,1.66-7.17,6.69,6.69,0,0,1-3.78-1.08c-1.78-1.21-2.43-3.1-3.19-5.39a31.44,31.44,0,0,1-1.06-5.39C645.15,165.84,644.87,162.18,645.37,162.07Z"/><path class="cls-1" d="M665.83,184c-.59-3.22-1.17-6.47-1.73-9.73-.05-.28-.09-.56-.14-.84a4.32,4.32,0,0,0,2.25.48,4.58,4.58,0,0,0,3.85-2.83,4.52,4.52,0,0,0-1.35-5.4,4.39,4.39,0,0,0-5.55.51c.13-1.76.26-3.51.4-5.27-4.73-6.23-11.53-8-15.28-5.63-2.23,1.41-3,4.09-3.35,5.78.09,2.41.1,4.3.09,5.62,0,.65,0,1.45,0,2.6,0,1.35.06,2.58.16,3.44a13.84,13.84,0,0,0,3.9,7.58,15.32,15.32,0,0,0,2.54,2.16c.26,1.55.52,3.1.79,4.64a8.19,8.19,0,0,0,2.73,1.16C660.58,189.51,665.31,184.58,665.83,184Z"/><g class="cls-29"><path class="cls-30" d="M667.31,167.67a2.58,2.58,0,0,0-1.69.29,2.64,2.64,0,0,0-1.22,1.73,2.8,2.8,0,0,1,1.76.13,2.65,2.65,0,0,1,1,.7"/><path class="cls-19" d="M654.87,173.73c-.58-.29-1.2.1-1.76.27a3.82,3.82,0,0,1-1.58.09c-.68-.09-1.49-.41-1.65.57a2,2,0,0,0,1.14,2.07,3.93,3.93,0,0,0,2.27.28c1.07-.2,2.4-1,2.23-2.28A1.26,1.26,0,0,0,654.87,173.73Z"/><path class="cls-20" d="M659.1,162.8c-.26-.44-.66-.55-1.43-.77a8.44,8.44,0,0,0-1.77-.2c-.53,0-.74,0-.84.14a1,1,0,0,0,.17,1c.35.42.83.1,1.77.2,1.32.14,2,1,2.27.63S659.27,163.08,659.1,162.8Z"/><path class="cls-20" d="M645.38,163.57c.21-.38.59-.49,1.31-.72a10.18,10.18,0,0,1,1.69-.27c.52-.06.71-.06.84.07a.69.69,0,0,1-.07.81c-.3.37-.8.14-1.7.27-1.27.2-1.86.9-2.14.65S645.24,163.8,645.38,163.57Z"/><path class="cls-21" d="M656.9,165.11c.29,0,.5.47.56.77.12.64-.26,1.41-.63,1.41s-.68-.63-.63-1.19S656.56,165.09,656.9,165.11Z"/><path class="cls-21" d="M647.86,165.8c.23,0,.4.37.45.61.1.51-.21,1.12-.5,1.12s-.55-.5-.51-.95S647.59,165.78,647.86,165.8Z"/><path class="cls-22" d="M650.44,168a2.87,2.87,0,0,0-.38,1.81,2.5,2.5,0,0,0,1,1.56,1.81,1.81,0,0,1-1.38-1.49A2,2,0,0,1,650.44,168Z"/><path class="cls-31" d="M660.68,179.65a10.63,10.63,0,0,1-2.42,1.8,11,11,0,0,1-6.62,1.13c.31,1.8.61,3.6.92,5.39a28.82,28.82,0,0,0,4.76-4.05A29.77,29.77,0,0,0,660.68,179.65Z"/></g><path class="cls-28" d="M644.73,162.1a4.67,4.67,0,0,0,1.59.8c.7.14,1.52,0,1.57-.29s-.64-.47-1.2-1.43c-.07-.11-.29-.49-.22-.54s.93.87,1.57,1.39c2.44,2,6.64,1.18,6.7.68,0-.18-.49-.21-1.17-.86a3.07,3.07,0,0,1-1-1.81c.15-.09,1.23,2.55,3,2.62.71,0,1.06-.39,1.65-.11a3.34,3.34,0,0,1,1.21,1.42c.24.49.23.65.42.73.53.22,1.11-1,1.84-1,1.11.08,1.44,3,2.11,3,.48,0,1-1.62,1.06-3.23,0-.66.18-5.16-3-8.14-4-3.73-10.45-2.37-13.85.17-2.3,1.72-4.14,4.7-3.5,5.68A11.38,11.38,0,0,0,644.73,162.1Z"/></g></g></svg>