<svg xmlns="http://www.w3.org/2000/svg" viewBox="0 0 256.84 211.85"><defs><style>.cls-1{fill:#ffe1b6;}.cls-2{fill:#4f7abd;}.cls-3{fill:#f2f6fb;}.cls-4{fill:#26343b;}.cls-5{fill:#1f3765;}.cls-6{fill:#bda787;}.cls-7{fill:#fff;}.cls-8{fill:#2f2d3f;}.cls-9{fill:#4e79bc;}.cls-10{fill:#a8c1e0;}.cls-11{fill:#2b2c2b;}.cls-12{fill:#a9c1e0;}.cls-13,.cls-14{fill:none;stroke-linecap:round;stroke-miterlimit:10;}.cls-13{stroke:#a9c1e0;}.cls-14{stroke:#a8c1e0;stroke-width:0.75px;}</style></defs><g id="Layer_2" data-name="Layer 2"><g id="new"><path class="cls-1" d="M189.65,136.37a44.42,44.42,0,0,1,.49,4.84,46.54,46.54,0,0,1-.12,6.57,11.54,11.54,0,0,1-8.43,5.45,11.1,11.1,0,0,1-10.28-5.08l.49-7.07a7.64,7.64,0,0,0,.62-4.71,20.32,20.32,0,0,0-1.11-2.72c-1.22-3.13-.88-4.29-1.86-4.83s-1.67.49-3.22.12a4.79,4.79,0,0,1-3.35-4.09,3.59,3.59,0,0,1,6-3.35l-1-12a29.53,29.53,0,0,1,24-2.35,24,24,0,0,1,2.35,9.42,48.85,48.85,0,0,1-.74,8.55,6.86,6.86,0,0,1,1.24-3.22c.33-.44,1-1.34,1.73-1.24,1,.14,1.68,2.37,1.62,4.09,0,.36-.14,3.64-2.36,4.46a3.54,3.54,0,0,1-2.48-.13C192,131.5,190.85,133.94,189.65,136.37Z"/><path class="cls-2" d="M171.93,140.84a8.06,8.06,0,0,0,1.36,5.57c3.53,4.83,11.77,2.35,12.14,2.23a6.7,6.7,0,0,0,3.35-2,7,7,0,0,0,1.24-5.58,95,95,0,0,1,9.67,1.12c3.87.65,5.81,1,7.31,1.73,2.61,1.33,4.77,3.8,8.05,12.89a118.42,118.42,0,0,1,5,18.1,19.29,19.29,0,0,1-13.51,4.58l1,32.35-50.81-.5c.58-6.74.92-14.12.87-22.06-.05-7.75-.47-15-1.11-21.56l-10.29-3a8.88,8.88,0,0,0,4-1.11c3.1-1.75,4.13-4.92,4.58-6.32,2.32-7.16-3.06-14.27-3.72-15.12Z"/><path class="cls-3" d="M173.54,146.78l-1.74,64.57,22.93.37q-3-32.46-5.95-64.94a12.92,12.92,0,0,1-6.82,2.48A13.07,13.07,0,0,1,173.54,146.78Z"/><path class="cls-4" d="M193.49,124.85c-.43-4.83-.64-8.69-.74-11.4-.1-2.36-.14-4.48-1.37-5.08-1-.49-2,.37-4.58,1.36a35.35,35.35,0,0,1-6.07,1.61c-6,1.06-8.34-1.94-10.41-.49-3.58,2.49.58,13.37-.62,13.75-.66.21-2.44-2.87-3.47-6.07-1-3-2.79-8.61.12-13.76,2.38-4.21,6.58-5.73,8.55-6.44,7.15-2.59,13.31.2,15.86,1.36,1.55.7,5.16,2.34,5.21,4.59,0,1.24-1.05,2.51-.37,3.47.4.57,1,.49,1.48,1.24a2.65,2.65,0,0,1,.25,1.73c-.16,1.73.16,3.47.13,5.21-.06,2.71-.09,4.06-.13,4.21C197,121.23,196.22,123.07,193.49,124.85Z"/><path class="cls-1" d="M218.28,176.16a60.25,60.25,0,0,1,4.33,14.25c.69,4,.64,6.32-.62,8.42a8.26,8.26,0,0,1-4.46,3.6c-1.54.47-4.15.67-10.28-3.22a58.69,58.69,0,0,1-12.52-11.16c-2.19-2.71-3.32-4.66-6.07-5.7a16.61,16.61,0,0,0-3.6-.68,20,20,0,0,1-2.6-.56c-.46-.14-4.69-1.48-4.91-3.59v-3c0-1.44-.18-1.62,0-2,.3-.64.89-.52,1-1,.17-.69-1-1.07-1-2s.95-1.15,1-2-1.13-1.48-3-3a13.85,13.85,0,0,1-3-3c-.26-.4-1.55-2.37-1-3s2.8.31,4,1c1.84,1,2.83,2.33,4.79,3.38.5.27.85.43,1,.53.93.5,1.73.87,2.18,1.09,2.86,1.32,5,2,5,2a21.73,21.73,0,0,1-3-1c-2-.82-3.66-1.49-5-3-.25-.29-1.32-1.5-1-2s1.43-.19,2,0c1,.32,1.11.75,2,1s1.13-.12,2,0c1.11.14,1.56.84,3,2,1.8,1.44,1.92,1,3,2,.9.8,1.61,2.21,3,5l2,4,9.08,5.23Z"/><path class="cls-5" d="M146.15,164.75l-.12-2c.72.17,1.47.34,2.23.5l1.86.37a9.9,9.9,0,0,1-1.37.62A8.5,8.5,0,0,1,146.15,164.75Z"/><path class="cls-6" d="M172.67,135.76a11.85,11.85,0,0,0,16.73.74,6.6,6.6,0,0,1-.87,1.73,8.19,8.19,0,0,1-5.95,3.1,9.77,9.77,0,0,1-6.19-1.73A11.7,11.7,0,0,1,172.67,135.76Z"/><path class="cls-6" d="M197,174.42c3.37,1.79,6.95,3.88,10.66,6.32,3.16,2.08,6,4.16,8.67,6.2"/><path class="cls-6" d="M178.85,171a14.15,14.15,0,0,0,3.14,3.09,16.2,16.2,0,0,0,3.92,2A10.94,10.94,0,0,1,178.85,171Z"/><path class="cls-6" d="M178,175.5a12.48,12.48,0,0,0,6.58,4A9.07,9.07,0,0,1,178,175.5Z"/><path class="cls-6" d="M179.55,167.52a13.67,13.67,0,0,0,2.26,2.3,13.08,13.08,0,0,0,2.74,1.7,8.32,8.32,0,0,1-5-4Z"/><path class="cls-6" d="M181.55,163.52c1,.4,2,.9,3.06,1.38s2,1,2.94,1.62c-1-.41-2.05-.91-3.05-1.39S182.51,164.11,181.55,163.52Z"/><path class="cls-7" d="M178.41,133l6.16-.18S182.08,137.52,178.41,133Z"/><path class="cls-8" d="M186,120.26a.66.66,0,0,1,.53.43,1.88,1.88,0,0,1,.17,1,1.79,1.79,0,0,1-.28.93.62.62,0,0,1-.56.36.63.63,0,0,1-.53-.42,1.93,1.93,0,0,1-.17-1,1.86,1.86,0,0,1,.28-.94A.64.64,0,0,1,186,120.26Z"/><path class="cls-8" d="M175.92,120.44c.21,0,.38.15.52.42a1.9,1.9,0,0,1,.17,1,1.86,1.86,0,0,1-.28.94.61.61,0,0,1-.56.35.63.63,0,0,1-.53-.42,1.88,1.88,0,0,1-.17-1,1.79,1.79,0,0,1,.28-.93A.61.61,0,0,1,175.92,120.44Z"/><path class="cls-8" d="M184.12,116.45s1.95-2,4-1.31Z"/><path class="cls-8" d="M171.82,115.65c.17,0,2.93-1,4.93.56Z"/><path class="cls-8" d="M181.94,128.73a4.67,4.67,0,0,1-.89,0,.19.19,0,0,1-.15-.22.18.18,0,0,1,.21-.14c.93.13,1.51,0,1.64-.46a1.42,1.42,0,0,0-.81-1.41.16.16,0,0,1-.09-.23.18.18,0,0,1,.24-.09,1.77,1.77,0,0,1,1,1.83A1.2,1.2,0,0,1,181.94,128.73Z"/><path class="cls-8" d="M186.51,125.59l-.33,0a4.26,4.26,0,1,1,.33,0Zm-4.23-4.16a3.85,3.85,0,1,0,3.81-3.9A3.85,3.85,0,0,0,182.28,121.43Z"/><path class="cls-8" d="M176.05,125.7a1.82,1.82,0,0,1-.33,0,4.2,4.2,0,1,1,3-1.26A4.28,4.28,0,0,1,176.05,125.7Zm-4.24-4.17a3.85,3.85,0,0,0,3.9,3.81,3.86,3.86,0,0,0,3.81-3.9,3.84,3.84,0,0,0-3.89-3.8A3.88,3.88,0,0,0,171.81,121.53Z"/><path class="cls-8" d="M182.48,120.38a.12.12,0,0,1-.1,0,2.21,2.21,0,0,0-2.81.16.18.18,0,0,1-.25,0,.19.19,0,0,1,0-.26,2.62,2.62,0,0,1,3.25-.24.19.19,0,0,1,.08.25C182.58,120.34,182.53,120.38,182.48,120.38Z"/><path class="cls-3" d="M162.29,205.32a4.64,4.64,0,0,1-.42,2,5.67,5.67,0,0,1-.51.89,5.12,5.12,0,0,1-.7.77,4.91,4.91,0,0,1-.85.65,6.36,6.36,0,0,1-1,.48,7.4,7.4,0,0,1-1.05.29,5.85,5.85,0,0,1-1.1.1H46.59a3.14,3.14,0,0,1-1.07.18,6.09,6.09,0,0,1-2-.75,5.82,5.82,0,0,1-.84-.64,5.65,5.65,0,0,1-.69-.77,5.16,5.16,0,0,1-.51-.88,5.41,5.41,0,0,1-.32-1,1.5,1.5,0,0,0-.49-1l.61-5.19L40.7,96.18v-7a1,1,0,0,1-.22-1,4.68,4.68,0,0,1,.31-1,5.2,5.2,0,0,1,.5-.89,5.59,5.59,0,0,1,.68-.78,5.7,5.7,0,0,1,1.77-1.12,6.05,6.05,0,0,1,1-.29,1.62,1.62,0,0,0,1.07-.5l15.42.58,5.44-.58h69l7.48.58h13.17a1,1,0,0,1,1.07-.36,6.05,6.05,0,0,1,1,.29,5.59,5.59,0,0,1,.95.47,4.65,4.65,0,0,1,.83.63,4.58,4.58,0,0,1,.69.77,5.16,5.16,0,0,1,.51.88,4.71,4.71,0,0,1,.32,1,1.08,1.08,0,0,1-.16,1v7.28l.61,104.28Z"/><path class="cls-9" d="M51.41,70.3H150.3a7.84,7.84,0,0,1,2.21.32q.54.16,1.08.39a10.58,10.58,0,0,1,1,.55c.34.21.67.44,1,.69a10.58,10.58,0,0,1,1,.84,10.21,10.21,0,0,1,.89,1,11.56,11.56,0,0,1,.83,1.09q.39.57.75,1.2c.23.41.45.85.66,1.3s.39.91.57,1.39.33,1,.47,1.46.27,1,.38,1.52.2,1,.27,1.57.13,1.07.16,1.6.06,1.08.06,1.62v5.82H40.08V86.8q0-.81.06-1.62c0-.54.09-1.07.16-1.6s.16-1,.27-1.57.23-1,.37-1.53.3-1,.48-1.46.37-.94.57-1.39.43-.88.66-1.3.49-.82.75-1.2a12.85,12.85,0,0,1,.83-1.08,10.34,10.34,0,0,1,.89-1,12.26,12.26,0,0,1,1-.83,8.21,8.21,0,0,1,1-.69,9.45,9.45,0,0,1,1-.55,7.8,7.8,0,0,1,1.08-.39,7,7,0,0,1,1.1-.24A8.29,8.29,0,0,1,51.41,70.3Z"/><path class="cls-7" d="M54.75,83.61a3.91,3.91,0,0,1-.07.76,3.83,3.83,0,0,1-.22.73,4.32,4.32,0,0,1-.36.67,3.49,3.49,0,0,1-.49.59,4,4,0,0,1-.59.49,3.91,3.91,0,0,1-.67.36,4.71,4.71,0,0,1-.73.22,3.91,3.91,0,0,1-.76.07,3.84,3.84,0,0,1-.76-.07,4,4,0,0,1-1.41-.58,4.65,4.65,0,0,1-.59-.49,3.44,3.44,0,0,1-.48-.59,3.11,3.11,0,0,1-.36-.67,3.22,3.22,0,0,1-.22-.73,3.27,3.27,0,0,1-.08-.76,3.22,3.22,0,0,1,.08-.76,3.15,3.15,0,0,1,.22-.74,3.11,3.11,0,0,1,.36-.67,3.72,3.72,0,0,1,1.07-1.07,3.75,3.75,0,0,1,.68-.37,4.4,4.4,0,0,1,.73-.22,3.84,3.84,0,0,1,.76-.07,3.91,3.91,0,0,1,.76.07,4.71,4.71,0,0,1,.73.22,3.36,3.36,0,0,1,.67.37,3.44,3.44,0,0,1,.59.48,3.94,3.94,0,0,1,.49.59,4.32,4.32,0,0,1,.36.67,3.71,3.71,0,0,1,.22.74A3.84,3.84,0,0,1,54.75,83.61Z"/><path class="cls-7" d="M67.47,83.61a3.91,3.91,0,0,1-.07.76,4.71,4.71,0,0,1-.22.73,4.32,4.32,0,0,1-.36.67,4,4,0,0,1-.49.59,4.65,4.65,0,0,1-.59.49,4.32,4.32,0,0,1-.67.36,4.71,4.71,0,0,1-.73.22,4,4,0,0,1-.77.07,3.91,3.91,0,0,1-.76-.07,4.71,4.71,0,0,1-.73-.22,4.32,4.32,0,0,1-.67-.36,4.65,4.65,0,0,1-.59-.49,4,4,0,0,1-.49-.59A4.32,4.32,0,0,1,60,85.1a4.71,4.71,0,0,1-.22-.73,3.91,3.91,0,0,1-.07-.76,3.84,3.84,0,0,1,.07-.76,4.52,4.52,0,0,1,.22-.74,4.32,4.32,0,0,1,.36-.67,4.65,4.65,0,0,1,.49-.59,3.87,3.87,0,0,1,.59-.48,3.66,3.66,0,0,1,.67-.37,4.71,4.71,0,0,1,.73-.22,3.91,3.91,0,0,1,.76-.07,4,4,0,0,1,.77.07,4.71,4.71,0,0,1,.73.22,3.66,3.66,0,0,1,.67.37,3.87,3.87,0,0,1,.59.48,4.65,4.65,0,0,1,.49.59,4.32,4.32,0,0,1,.36.67,4.52,4.52,0,0,1,.22.74A3.84,3.84,0,0,1,67.47,83.61Z"/><path class="cls-7" d="M80,83.61a3.91,3.91,0,0,1-.07.76,3.83,3.83,0,0,1-.22.73,4.32,4.32,0,0,1-.36.67,4,4,0,0,1-.49.59,4.65,4.65,0,0,1-.59.49,4.32,4.32,0,0,1-.67.36,4.71,4.71,0,0,1-.73.22,3.91,3.91,0,0,1-.76.07,3.84,3.84,0,0,1-.76-.07,4.83,4.83,0,0,1-.74-.22,4.32,4.32,0,0,1-.67-.36,4.65,4.65,0,0,1-.59-.49,3.44,3.44,0,0,1-.48-.59,3.66,3.66,0,0,1-.37-.67,4.71,4.71,0,0,1-.22-.73,3.91,3.91,0,0,1-.07-.76,3.84,3.84,0,0,1,.07-.76,4.52,4.52,0,0,1,.22-.74,3.66,3.66,0,0,1,.37-.67,3.72,3.72,0,0,1,1.07-1.07,3.66,3.66,0,0,1,.67-.37,4.83,4.83,0,0,1,.74-.22,3.84,3.84,0,0,1,.76-.07,3.91,3.91,0,0,1,.76.07,4.71,4.71,0,0,1,.73.22,3.66,3.66,0,0,1,.67.37,3.87,3.87,0,0,1,.59.48,4.65,4.65,0,0,1,.49.59,4.32,4.32,0,0,1,.36.67,3.71,3.71,0,0,1,.22.74A3.84,3.84,0,0,1,80,83.61Z"/><path class="cls-10" d="M67.94,103.1h27c.43,0,.85,0,1.28.07a10.8,10.8,0,0,1,1.27.19c.42.08.83.19,1.24.31s.81.27,1.21.44a12.12,12.12,0,0,1,1.15.55,11,11,0,0,1,1.1.66c.35.25.7.5,1,.78s.64.56.95.86.59.63.86,1,.52.68.76,1a12.47,12.47,0,0,1,.66,1.11c.2.38.38.77.55,1.17s.3.8.43,1.21.23.83.31,1.26.14.85.19,1.28.06.86.06,1.29v1.42q0,.64-.06,1.29c0,.43-.11.85-.19,1.28s-.19.84-.31,1.25-.27.82-.43,1.22-.35.79-.55,1.17a12.47,12.47,0,0,1-.66,1.11c-.24.35-.49.7-.76,1a11.3,11.3,0,0,1-.86,1,12.87,12.87,0,0,1-.95.87c-.33.27-.68.53-1,.77a11,11,0,0,1-1.1.66,12.2,12.2,0,0,1-1.15.56c-.4.16-.8.31-1.21.43s-.82.23-1.24.32-.84.14-1.27.19-.85.06-1.28.06h-27c-.43,0-.86,0-1.28-.06s-.85-.11-1.27-.19-.83-.19-1.24-.32-.81-.27-1.21-.43a12.2,12.2,0,0,1-1.15-.56,11,11,0,0,1-1.1-.66c-.36-.24-.7-.5-1-.77a11.13,11.13,0,0,1-.95-.87,11.3,11.3,0,0,1-.86-1c-.27-.33-.52-.68-.76-1a12.47,12.47,0,0,1-.66-1.11c-.2-.38-.38-.77-.55-1.17s-.3-.81-.43-1.22-.23-.83-.31-1.25S55,119.42,55,119s-.06-.86-.06-1.29v-1.42q0-.65.06-1.29c0-.43.11-.86.19-1.28s.19-.84.31-1.26.27-.82.43-1.21.35-.79.55-1.17a12.47,12.47,0,0,1,.66-1.11c.24-.36.49-.71.76-1s.56-.65.86-1,.62-.59.95-.86.67-.53,1-.78a11,11,0,0,1,1.1-.66,12.12,12.12,0,0,1,1.15-.55c.4-.17.8-.31,1.21-.44s.82-.23,1.24-.31a10.8,10.8,0,0,1,1.27-.19C67.08,103.13,67.51,103.1,67.94,103.1Z"/><path class="cls-11" d="M99.94,110.51H63a1,1,0,0,1-.21-.19.35.35,0,0,1-.09-.23.36.36,0,0,1,.09-.24c.05-.07.12-.12.21,0H99.94c.06-.2.12-.2.18-.19a.33.33,0,0,1,.16.07.36.36,0,0,1,.11.14.37.37,0,0,1,0,.18.33.33,0,0,1,0,.17.3.3,0,0,1-.11.14.33.33,0,0,1-.16.07A.58.58,0,0,0,99.94,110.51Z"/><path class="cls-11" d="M99.94,117.91H63a.2.2,0,0,1-.21-.09.37.37,0,0,1,0-.48c.05-.07.12-.12.21,0H99.94c.06-.12.12-.12.18-.11a.46.46,0,0,1,.16.07.36.36,0,0,1,.11.14.39.39,0,0,1,0,.18.33.33,0,0,1,0,.17.3.3,0,0,1-.11.14.33.33,0,0,1-.16.07A.16.16,0,0,1,99.94,117.91Z"/><path class="cls-11" d="M99.94,125.32H63c-.09.1-.16.06-.21,0a.33.33,0,0,1-.09-.23.36.36,0,0,1,.09-.24.3.3,0,0,1,.21-.13H99.94a.28.28,0,0,1,.18,0,.46.46,0,0,1,.16.07.36.36,0,0,1,.11.14.37.37,0,0,1,0,.18.35.35,0,0,1,0,.17.3.3,0,0,1-.11.14.33.33,0,0,1-.16.07C100.06,125.47,100,125.46,99.94,125.32Z"/><path class="cls-10" d="M108.66,141.36h27c.43,0,.86,0,1.28.06s.85.11,1.27.19a10.75,10.75,0,0,1,1.24.32c.41.12.81.27,1.21.43s.78.35,1.15.55.75.43,1.1.67a11,11,0,0,1,1,.77c.33.27.65.56.95.86s.59.63.86,1a13.63,13.63,0,0,1,1.42,2.15c.2.38.38.77.55,1.17a12.58,12.58,0,0,1,.43,1.22c.12.41.23.83.31,1.25s.15.85.19,1.28.06.86.06,1.29V156q0,.65-.06,1.29c0,.43-.11.86-.19,1.28s-.19.84-.31,1.25a12.58,12.58,0,0,1-.43,1.22c-.17.4-.35.79-.55,1.17a13.63,13.63,0,0,1-1.42,2.15c-.27.33-.56.65-.86.95a12.94,12.94,0,0,1-2,1.64c-.35.24-.72.46-1.1.67s-.76.38-1.15.55-.8.31-1.21.44-.82.22-1.24.31-.84.15-1.27.19-.85.06-1.28.06h-27c-.43,0-.86,0-1.28-.06s-.85-.11-1.27-.19-.83-.19-1.24-.31-.81-.27-1.21-.44-.78-.35-1.15-.55-.75-.43-1.1-.67a12.94,12.94,0,0,1-2-1.64c-.3-.3-.59-.62-.86-.95s-.52-.68-.76-1a12.47,12.47,0,0,1-.66-1.11c-.2-.38-.38-.77-.55-1.17a12.58,12.58,0,0,1-.43-1.22c-.12-.41-.23-.83-.31-1.25s-.14-.85-.19-1.28-.06-.86-.06-1.29v-1.42q0-.65.06-1.29c0-.43.11-.86.19-1.28s.19-.84.31-1.25a12.58,12.58,0,0,1,.43-1.22c.17-.4.35-.79.55-1.17a12.47,12.47,0,0,1,.66-1.11c.24-.36.49-.7.76-1s.56-.65.86-1,.62-.59.95-.86a11,11,0,0,1,1-.77c.35-.24.72-.46,1.1-.67s.76-.38,1.15-.55.8-.31,1.21-.43a10.75,10.75,0,0,1,1.24-.32c.42-.08.84-.15,1.27-.19S108.23,141.36,108.66,141.36Z"/><path class="cls-11" d="M140.6,148.76H103.68c-.09.21-.16.16-.21.09a.36.36,0,0,1,0-.48c0-.07.12-.11.21-.22H140.6a.24.24,0,0,0,.18.08.33.33,0,0,1,.16.07.3.3,0,0,1,.11.14.33.33,0,0,1,0,.17.39.39,0,0,1,0,.18.36.36,0,0,1-.11.14.46.46,0,0,1-.16.07C140.72,149,140.66,149,140.6,148.76Z"/><path class="cls-11" d="M140.6,156.17H103.68c-.09.29-.16.24-.21.17a.37.37,0,0,1,0-.48,1.1,1.1,0,0,0,.21-.31H140.6c.06.16.12.15.18.17a.33.33,0,0,1,.16.07.3.3,0,0,1,.11.14.33.33,0,0,1,0,.17.39.39,0,0,1,0,.18.36.36,0,0,1-.11.14.46.46,0,0,1-.16.07C140.72,156.5,140.66,156.5,140.6,156.17Z"/><path class="cls-11" d="M140.6,164.19H103.68a1.16,1.16,0,0,0-.21-.36.35.35,0,0,1-.09-.23.36.36,0,0,1,.09-.24c0-.07.12-.12.21.21H140.6c.06-.37.12-.37.18-.36a.46.46,0,0,1,.16.07.36.36,0,0,1,.11.14.37.37,0,0,1,0,.18.35.35,0,0,1,0,.17.36.36,0,0,1-.11.14.33.33,0,0,1-.16.07C140.72,164,140.66,164,140.6,164.19Z"/><path class="cls-9" d="M139.85,105.57h1a4.7,4.7,0,0,1,.92.09,5.38,5.38,0,0,1,.89.27,4.53,4.53,0,0,1,1.54,1,4.59,4.59,0,0,1,.6.72,5.34,5.34,0,0,1,.43.82,4.67,4.67,0,0,1,.27.9,4.05,4.05,0,0,1,.1.92v1a4.2,4.2,0,0,1-.1.93,4.79,4.79,0,0,1-.27.89,4.92,4.92,0,0,1-.43.82,4.59,4.59,0,0,1-.6.72,4.45,4.45,0,0,1-.71.59,5.06,5.06,0,0,1-.83.44,4.57,4.57,0,0,1-.89.27,4.7,4.7,0,0,1-.92.09h-1a4.88,4.88,0,0,1-.93-.09,4.57,4.57,0,0,1-.89-.27,5,5,0,0,1-.82-.44A4.71,4.71,0,0,1,135.9,114a4.32,4.32,0,0,1-.44-.82,4.79,4.79,0,0,1-.27-.89,4.88,4.88,0,0,1-.09-.93v-1a4.81,4.81,0,0,1,.36-1.82,4.64,4.64,0,0,1,.44-.82,4.52,4.52,0,0,1,.59-.72,5.14,5.14,0,0,1,.72-.59,5,5,0,0,1,.82-.44,5.38,5.38,0,0,1,.89-.27A4.88,4.88,0,0,1,139.85,105.57Z"/><path class="cls-9" d="M122.57,119.76h1a4.88,4.88,0,0,1,.93.09,7,7,0,0,1,.89.27,4.36,4.36,0,0,1,.82.45,4.46,4.46,0,0,1,.72.58,5.1,5.1,0,0,1,.59.73,5,5,0,0,1,.44.82,4.37,4.37,0,0,1,.27.89,4.7,4.7,0,0,1,.09.92v1a4.88,4.88,0,0,1-.09.93,4.57,4.57,0,0,1-.27.89,5,5,0,0,1-.44.82,4.71,4.71,0,0,1-1.31,1.31,4.32,4.32,0,0,1-.82.44,4.79,4.79,0,0,1-.89.27,4.88,4.88,0,0,1-.93.09h-1a4.88,4.88,0,0,1-.93-.09,4.79,4.79,0,0,1-.89-.27,4.64,4.64,0,0,1-.82-.44,4.71,4.71,0,0,1-1.31-1.31,5,5,0,0,1-.44-.82,4.57,4.57,0,0,1-.27-.89,4.88,4.88,0,0,1-.09-.93v-1a4.7,4.7,0,0,1,.09-.92,4.37,4.37,0,0,1,.27-.89,5,5,0,0,1,.44-.82,5.1,5.1,0,0,1,.59-.73,4.46,4.46,0,0,1,.72-.58,4.7,4.7,0,0,1,.82-.45,7,7,0,0,1,.89-.27A4.88,4.88,0,0,1,122.57,119.76Z"/><path class="cls-9" d="M139.85,119.76h1a4.7,4.7,0,0,1,.92.09,6.55,6.55,0,0,1,.89.27,4.44,4.44,0,0,1,.83.45,4.39,4.39,0,0,1,.71.58,5.17,5.17,0,0,1,.6.73,4.92,4.92,0,0,1,.43.82,4.37,4.37,0,0,1,.27.89,4.05,4.05,0,0,1,.1.92v1a4.2,4.2,0,0,1-.1.93,4.57,4.57,0,0,1-.27.89,4.92,4.92,0,0,1-.43.82,4.59,4.59,0,0,1-.6.72,4.45,4.45,0,0,1-.71.59,4.4,4.4,0,0,1-.83.44,4.57,4.57,0,0,1-.89.27,4.7,4.7,0,0,1-.92.09h-1a4.88,4.88,0,0,1-.93-.09,4.57,4.57,0,0,1-.89-.27,4.32,4.32,0,0,1-.82-.44,4.71,4.71,0,0,1-1.31-1.31,4.32,4.32,0,0,1-.44-.82,4.57,4.57,0,0,1-.27-.89,4.88,4.88,0,0,1-.09-.93v-1a4.7,4.7,0,0,1,.09-.92,4.37,4.37,0,0,1,.27-.89,4.32,4.32,0,0,1,.44-.82,5.1,5.1,0,0,1,.59-.73,4.46,4.46,0,0,1,.72-.58,4.36,4.36,0,0,1,.82-.45,6.55,6.55,0,0,1,.89-.27A4.88,4.88,0,0,1,139.85,119.76Z"/><path class="cls-9" d="M65.81,143.83h1a4.7,4.7,0,0,1,.92.09,4.85,4.85,0,0,1,1.72.71,5.63,5.63,0,0,1,.72.59,5.14,5.14,0,0,1,.59.72,5,5,0,0,1,.44.82,5.38,5.38,0,0,1,.27.89,4.81,4.81,0,0,1,.09.93v1a4.7,4.7,0,0,1-.09.92,5.11,5.11,0,0,1-.27.89,5,5,0,0,1-.44.82,5.14,5.14,0,0,1-.59.72,5.63,5.63,0,0,1-.72.59,3.89,3.89,0,0,1-.83.44,5.13,5.13,0,0,1-.89.28,5.62,5.62,0,0,1-.92.08h-1a5.84,5.84,0,0,1-.93-.08A5.73,5.73,0,0,1,64,154a3.82,3.82,0,0,1-.82-.44,4.71,4.71,0,0,1-1.31-1.31,5,5,0,0,1-.44-.82,4.37,4.37,0,0,1-.27-.89,4.7,4.7,0,0,1-.09-.92v-1a4.81,4.81,0,0,1,.09-.93,4.57,4.57,0,0,1,.27-.89,5,5,0,0,1,.44-.82,4.71,4.71,0,0,1,1.31-1.31,4.32,4.32,0,0,1,.82-.44,4.79,4.79,0,0,1,.89-.27A4.88,4.88,0,0,1,65.81,143.83Z"/><path class="cls-9" d="M82.47,143.83h1a4.7,4.7,0,0,1,.92.09,4.57,4.57,0,0,1,.89.27,4.4,4.4,0,0,1,.83.44,4.45,4.45,0,0,1,.71.59,4.59,4.59,0,0,1,.6.72,4.92,4.92,0,0,1,.43.82,4.57,4.57,0,0,1,.27.89,4.14,4.14,0,0,1,.1.93v1a4.05,4.05,0,0,1-.1.92,4.37,4.37,0,0,1-.27.89,4.92,4.92,0,0,1-.43.82,4.59,4.59,0,0,1-.6.72,4.45,4.45,0,0,1-.71.59,3.89,3.89,0,0,1-.83.44,5.41,5.41,0,0,1-.89.28,5.62,5.62,0,0,1-.92.08h-1a5.84,5.84,0,0,1-.93-.08,5.41,5.41,0,0,1-.89-.28,3.82,3.82,0,0,1-.82-.44,4.71,4.71,0,0,1-1.31-1.31,4.32,4.32,0,0,1-.44-.82,4.37,4.37,0,0,1-.27-.89,4.7,4.7,0,0,1-.09-.92v-1a4.81,4.81,0,0,1,.09-.93,4.57,4.57,0,0,1,.27-.89,4.32,4.32,0,0,1,.44-.82,4.71,4.71,0,0,1,1.31-1.31,4.32,4.32,0,0,1,.82-.44,4.57,4.57,0,0,1,.89-.27A4.88,4.88,0,0,1,82.47,143.83Z"/><path class="cls-9" d="M65.81,158h1a4.7,4.7,0,0,1,.92.09,4.85,4.85,0,0,1,1.72.71,5.63,5.63,0,0,1,.72.59,5.14,5.14,0,0,1,.59.72,5,5,0,0,1,.44.82,5.38,5.38,0,0,1,.27.89,4.88,4.88,0,0,1,.09.93v1a4.7,4.7,0,0,1-.09.92,4.85,4.85,0,0,1-.71,1.72,5.05,5.05,0,0,1-.59.71,5.73,5.73,0,0,1-.72.6,5,5,0,0,1-.83.43,4.37,4.37,0,0,1-.89.27,4.05,4.05,0,0,1-.92.1h-1a4.2,4.2,0,0,1-.93-.1,4.79,4.79,0,0,1-.89-.27,4.92,4.92,0,0,1-.82-.43,4.59,4.59,0,0,1-.72-.6,4.45,4.45,0,0,1-.59-.71,5.06,5.06,0,0,1-.44-.83,4.37,4.37,0,0,1-.27-.89,4.7,4.7,0,0,1-.09-.92v-1a4.88,4.88,0,0,1,.09-.93,4.57,4.57,0,0,1,.27-.89,5,5,0,0,1,.44-.82,4.71,4.71,0,0,1,1.31-1.31,4.32,4.32,0,0,1,.82-.44,4.79,4.79,0,0,1,.89-.27A4.88,4.88,0,0,1,65.81,158Z"/><path class="cls-9" d="M82.47,158h1a4.7,4.7,0,0,1,.92.09,4.57,4.57,0,0,1,.89.27,4.4,4.4,0,0,1,.83.44,4.45,4.45,0,0,1,.71.59,4.59,4.59,0,0,1,.6.72,4.92,4.92,0,0,1,.43.82,4.57,4.57,0,0,1,.27.89,4.2,4.2,0,0,1,.1.93v1a4.05,4.05,0,0,1-.1.92,4.37,4.37,0,0,1-.27.89,5,5,0,0,1-.43.83,5.55,5.55,0,0,1-1.31,1.31,5,5,0,0,1-.83.43,4.57,4.57,0,0,1-.89.27,4.05,4.05,0,0,1-.92.1h-1a4.2,4.2,0,0,1-.93-.1,4.57,4.57,0,0,1-.89-.27,4.92,4.92,0,0,1-.82-.43,4.59,4.59,0,0,1-.72-.6,4.45,4.45,0,0,1-.59-.71,4.85,4.85,0,0,1-.71-1.72,4.7,4.7,0,0,1-.09-.92v-1a4.88,4.88,0,0,1,.09-.93,4.57,4.57,0,0,1,.27-.89,4.32,4.32,0,0,1,.44-.82,4.71,4.71,0,0,1,1.31-1.31,4.32,4.32,0,0,1,.82-.44,4.57,4.57,0,0,1,.89-.27A4.88,4.88,0,0,1,82.47,158Z"/><path class="cls-9" d="M61.11,192.57h83.22a3.85,3.85,0,0,1,.69.06,3.71,3.71,0,0,1,.67.2,3.18,3.18,0,0,1,.61.31,3.24,3.24,0,0,1,.54.42,3.11,3.11,0,0,1,.44.52,3.33,3.33,0,0,1,.33.58,3.39,3.39,0,0,1,.27,1.3,2.9,2.9,0,0,1-.07.66,3,3,0,0,1-.2.64,3.42,3.42,0,0,1-.33.59,3.5,3.5,0,0,1-.44.51,2.79,2.79,0,0,1-.54.42,3.21,3.21,0,0,1-.61.32,3.69,3.69,0,0,1-.67.19,3.84,3.84,0,0,1-.69.07H61.11a4,4,0,0,1-.69-.07,3.58,3.58,0,0,1-.66-.19,3.64,3.64,0,0,1-.62-.32,3.06,3.06,0,0,1-.53-.42,3,3,0,0,1-.44-.51,3.42,3.42,0,0,1-.33-.59,3,3,0,0,1-.2-.64,2.9,2.9,0,0,1-.07-.66,3.39,3.39,0,0,1,.27-1.3,3.33,3.33,0,0,1,.33-.58,2.7,2.7,0,0,1,.44-.52,3.8,3.8,0,0,1,1.81-.93A4,4,0,0,1,61.11,192.57Z"/><path class="cls-9" d="M123.22,104.92h1a4.88,4.88,0,0,1,.93.09,4.79,4.79,0,0,1,.89.27,5,5,0,0,1,.82.44,4.71,4.71,0,0,1,1.31,1.31,5.4,5.4,0,0,1,.44.82,4.79,4.79,0,0,1,.27.89,4.88,4.88,0,0,1,.09.93v1a4.81,4.81,0,0,1-.36,1.82,5.4,5.4,0,0,1-.44.82,4.52,4.52,0,0,1-.59.72,5.14,5.14,0,0,1-.72.59,5,5,0,0,1-.82.44,4.79,4.79,0,0,1-.89.27,4.88,4.88,0,0,1-.93.09h-1a4.81,4.81,0,0,1-1.82-.36,5.4,5.4,0,0,1-.82-.44,4.71,4.71,0,0,1-1.31-1.31,5.4,5.4,0,0,1-.44-.82,5.5,5.5,0,0,1-.27-.9,4.7,4.7,0,0,1-.09-.92v-1a4.88,4.88,0,0,1,.09-.93,5.69,5.69,0,0,1,.27-.89,5.4,5.4,0,0,1,.44-.82,5.14,5.14,0,0,1,.59-.72,4.52,4.52,0,0,1,.72-.59,5.4,5.4,0,0,1,.82-.44,4.81,4.81,0,0,1,1.82-.36Z"/><path class="cls-9" d="M11.19,52.76,52,52.11c5.4-2.43,8.75-7.69,8.41-12.94-.44-6.74-6.89-12.61-14.88-12.3A14.27,14.27,0,0,0,17,28.17C9.32,25.81,1.48,30.78.19,37.87-1,44.51,3.78,51.54,11.19,52.76Z"/><path class="cls-12" d="M27.29,44.8v10h-7.5L31.3,66.32q5.11-5.53,10.25-11H34.86V44.8Z"/><path class="cls-12" d="M81,8.85,79.08,7.79c-.15.19-.32.38-.5.58a8.77,8.77,0,0,1-2.28,1.69l1.84,4.44a2.25,2.25,0,0,1,2.22-.92,2.08,2.08,0,0,1,1.16,1,3.82,3.82,0,0,1,.42,2.81l4.1.91a3.06,3.06,0,0,1,5.08-2.11l2.84-3a2.49,2.49,0,0,1,1-4.86L93,3.54a2.19,2.19,0,0,1-2.93.1A2.2,2.2,0,0,1,89.6.83L84.42,0a2.34,2.34,0,0,1-.8,2.56,2.43,2.43,0,0,1-3.33-.85l-2.84,3a10.27,10.27,0,0,1,1.32,3.18,9.62,9.62,0,0,1,.2,1.4l2,.3a4.85,4.85,0,0,1,1.67-4,4.64,4.64,0,0,1,6.65,6.18A4.55,4.55,0,0,1,83.49,13,4.81,4.81,0,0,1,81,8.85Z"/><path class="cls-12" d="M149.25,14.05l-2.53-1.4c-.2.25-.42.51-.66.77a11.32,11.32,0,0,1-3,2.21l2.41,5.84a2.94,2.94,0,0,1,2.92-1.21,2.81,2.81,0,0,1,1.53,1.32,5,5,0,0,1,.54,3.69l5.38,1.19a4,4,0,0,1,6.67-2.76l3.73-4a3.28,3.28,0,0,1,1.26-6.39l-2.58-6.25a2.89,2.89,0,0,1-3.86.13,2.89,2.89,0,0,1-.54-3.69l-6.8-1.09a3.09,3.09,0,0,1-1,3.36,3.19,3.19,0,0,1-4.38-1.12l-3.72,4a13.32,13.32,0,0,1,1.72,4.18,13.53,13.53,0,0,1,.28,1.84l2.6.39a6.37,6.37,0,0,1,2.2-5.31,6.09,6.09,0,0,1,8.73,8.11,6,6,0,0,1-7.61,1.68A6.29,6.29,0,0,1,149.25,14.05Z"/><path class="cls-12" d="M120.22,62.56,117,60.75c-.26.33-.55.66-.86,1a14.18,14.18,0,0,1-3.88,2.86l3.13,7.57a3.81,3.81,0,0,1,3.78-1.57,3.59,3.59,0,0,1,2,1.72,6.41,6.41,0,0,1,.7,4.76l7,1.55a5.2,5.2,0,0,1,8.64-3.57l4.82-5.16a4.25,4.25,0,0,1,1.64-8.27l-3.35-8.1a3.69,3.69,0,0,1-5.7-4.6L126,47.51a4,4,0,0,1-1.36,4.36A4.12,4.12,0,0,1,119,50.42l-4.83,5.15A17.1,17.1,0,0,1,116.4,61a16.34,16.34,0,0,1,.36,2.39l3.37.5c0-.31-.31-4.43,2.85-6.87a7.8,7.8,0,0,1,9.66.43c2.76,2.36,3.9,6.78,1.64,10.08a7.73,7.73,0,0,1-9.85,2.17A8.15,8.15,0,0,1,120.22,62.56Z"/><path class="cls-12" d="M213,69.84a1.5,1.5,0,0,0-1.39.77,1.43,1.43,0,0,0-.1,1.06,1.51,1.51,0,0,0-1.4.78,1.49,1.49,0,0,0,.17,1.66l-.47,1.53A5.71,5.71,0,0,0,214,79.42l1.44-.35a1.88,1.88,0,0,0,1.71.24,1.78,1.78,0,0,0,1.08-1.79,1.52,1.52,0,0,0,1.58-1,1.44,1.44,0,0,0-.35-1.43,7.86,7.86,0,0,1-3.51-1.33A8,8,0,0,1,213,69.84Z"/><path class="cls-9" d="M213,69.42c-.13-2.17,1.26-2.85,2-5.26.95-3.1-.64-4.23-.35-7.55a12.84,12.84,0,0,1,4-7.78c4-3.62,10.35-4.21,15.2-1.76.65.33,5.89,3.07,7,8.76A13.55,13.55,0,0,1,239.58,64c-.9,2.19-2.19,5.31-5.19,6.85s-4.39-.22-8.07,1.46c-3,1.36-2.94,2.93-5.35,3.28A7.3,7.3,0,0,1,214.61,73,6.13,6.13,0,0,1,213,69.42Z"/><path class="cls-13" d="M230,48.1A9.1,9.1,0,0,0,225.1,48a9.47,9.47,0,0,0-4.74,3,12,12,0,0,0-3,7.47"/><path class="cls-13" d="M216,71.85a16.88,16.88,0,0,0,4.84-8.29c.41-1.87.68-4.92,2.57-7.84.52-.8,1.2-1.66,2.14-1.69a2.69,2.69,0,0,1,2,1.26,3.07,3.07,0,0,1,.25,2.51c-.35,1.11-1.46,2.38-2.52,2.15a1.67,1.67,0,0,1-1.19-1.35c-.16-1.27,1.51-2.61,3.08-2.85a3.47,3.47,0,0,1,3.05,1,3.58,3.58,0,0,1,.53,3.1c-.22,1.09-.94,2.75-1.83,2.72-.58,0-1.08-.74-1.19-1.36-.23-1.16.86-2.27,1.82-2.71A3.06,3.06,0,0,1,233,59a2.62,2.62,0,0,1,.63,2c-.27,1.62-2.29,2-6.1,4.21a50.19,50.19,0,0,0-4.93,3.24,31.73,31.73,0,0,0-5,4.72"/><path class="cls-13" d="M227,69a8.44,8.44,0,0,0,8.73-3.2"/><line class="cls-14" x1="221.13" y1="38.28" x2="216.31" y2="31.56"/><line class="cls-14" x1="230.98" y1="36.38" x2="229.94" y2="28.18"/><line class="cls-14" x1="244.07" y1="70.59" x2="248.89" y2="77.3"/><line class="cls-14" x1="249.03" y1="61.86" x2="256.46" y2="65.48"/><line class="cls-14" x1="244.37" y1="45.87" x2="251.07" y2="41.04"/></g></g></svg>