<svg xmlns="http://www.w3.org/2000/svg" xmlns:xlink="http://www.w3.org/1999/xlink" viewBox="0 0 291.06 233.49"><defs><style>.cls-1{fill:#ffe1b6;}.cls-2{fill:#4e79bc;}.cls-3{fill:#1e519a;}.cls-4{fill:#a8c1e0;}.cls-5{clip-path:url(#clip-path);}.cls-6,.cls-9{fill:#161617;}.cls-7{clip-path:url(#clip-path-2);}.cls-8{fill:#f2f6fb;}.cls-9{opacity:0.2;}.cls-10,.cls-11,.cls-12,.cls-21{fill:none;}.cls-10{stroke:#1c539b;}.cls-10,.cls-11,.cls-12{stroke-linecap:round;stroke-width:1.5px;}.cls-10,.cls-11,.cls-21{stroke-miterlimit:10;}.cls-11,.cls-12{stroke:#1d529a;}.cls-12{stroke-linejoin:round;}.cls-13{clip-path:url(#clip-path-3);}.cls-14{fill:#fff;}.cls-15{fill:#19529d;}.cls-16{fill:#1e272b;}.cls-17{fill:#263237;}.cls-18{fill:#bda787;}.cls-19{fill:#2f2d3f;}.cls-20{clip-path:url(#clip-path-4);}.cls-21{stroke:#a8c1e0;stroke-width:0.22px;}.cls-22{clip-path:url(#clip-path-5);}.cls-23{clip-path:url(#clip-path-6);}</style><clipPath id="clip-path"><path class="cls-1" d="M268.12,133.76l-33.49,19.75-12.26-12.72q4.08-7.59,8.15-15.17Z"/></clipPath><clipPath id="clip-path-2"><path class="cls-2" d="M234.81,153.65,68.3,177.75a6.9,6.9,0,0,1-7.84-5.81L58.35,157.7a6.89,6.89,0,0,1,5.81-7.83c38.73-5.75,73-11.92,160.09-23.39,2.92-.38,5.23-.71,6.27-.86a23.34,23.34,0,0,0,4.29,28Z"/></clipPath><clipPath id="clip-path-3"><path class="cls-2" d="M237.52,50.37l-3,10.49a26.82,26.82,0,0,0,6.74,5.24,28.88,28.88,0,0,0,9,3,95,95,0,0,0,20.22,1.49l.75-12.73h15l-27.7-13.48L224,42.89Z"/></clipPath><clipPath id="clip-path-4"><path class="cls-3" d="M66.36,65.88c-14,16.58-6.4,38.88-6,40a27.63,27.63,0,0,1,7.15-3.23,27.93,27.93,0,0,1,10.06-1c3.46,26.05,6.26,32.22,8.31,32.21s1.88-6.88,7.8-11.58a11.08,11.08,0,0,1,1.35-.92c4.14-2.33,8.61-3.33,17.78-3.36,9.66,0,12,.85,15.85-1.25,1.47-.81,1.56-1.19,4.53-3,5.95-3.69,8.34-3.55,9.31-5,5.37-8.24-8.77-25.24-9.56-26.17l9.81-4.78A56.42,56.42,0,0,0,138,65.91c-3.24-6-6.45-11.88-12.61-15-9.33-4.79-19.78-.37-22.12.69A8.73,8.73,0,0,1,97,57.86a8.82,8.82,0,0,1-9.56-4.28A38.28,38.28,0,0,0,66.36,65.88Z"/></clipPath><clipPath id="clip-path-5"><polygon class="cls-4" points="100.31 86.11 114.5 119.47 107.81 123.33 92.12 88.83 100.31 86.11"/></clipPath><clipPath id="clip-path-6"><path class="cls-2" d="M100.15,86.93l4.64-2.15,21.52-10,15,33.52-26,11.32Z"/></clipPath></defs><g id="Layer_2" data-name="Layer 2"><g id="new"><path class="cls-1" d="M268.12,133.76l-33.49,19.75-12.26-12.72q4.08-7.59,8.15-15.17Z"/><g class="cls-5"><polygon class="cls-6" points="255.08 129.88 258.08 145.08 278.59 139.66 277.07 124.68 255.08 129.88"/></g><path class="cls-2" d="M234.81,153.65,68.3,177.75a6.9,6.9,0,0,1-7.84-5.81L58.35,157.7a6.89,6.89,0,0,1,5.81-7.83c38.73-5.75,73-11.92,160.09-23.39,2.92-.38,5.23-.71,6.27-.86a23.34,23.34,0,0,0,4.29,28Z"/><g class="cls-7"><rect class="cls-3" x="49.49" y="142.25" width="38.94" height="39.69" transform="translate(25.08 -8.51) rotate(8.62)"/><polygon class="cls-8" points="81.45 143.26 86 178.5 106.4 175.62 101.55 138.04 81.45 143.26"/><path class="cls-9" d="M231.45,140.45,59.15,163.77l2.71,20,178.73-26.67Z"/></g><polygon class="cls-8" points="0 69.46 14.63 115.89 52.49 103.95 38.08 58.24 0 69.46"/><line class="cls-10" x1="8" y1="72.43" x2="33" y2="64.55"/><line class="cls-10" x1="9.82" y1="76.96" x2="34.82" y2="69.08"/><path class="cls-11" d="M26.83,79.85c-6.62,1.7-10.72,8-9.7,14.05.9,5.39,5.71,9.76,11,9.89,7.84.2,13.68-9.12,11.84-14.73C38.19,83.71,29.62,82.33,27.51,82a22.93,22.93,0,0,0-7.82.11"/><polyline class="cls-12" points="25.58 98.3 25.55 85.75 32.46 97.7"/><line class="cls-11" x1="21.15" y1="94.2" x2="29.23" y2="92.44"/><line class="cls-11" x1="33.59" y1="86.35" x2="35.39" y2="92.07"/><line class="cls-11" x1="31.41" y1="89.4" x2="36.64" y2="88.54"/><polygon class="cls-4" points="188.09 11.43 194.08 11.43 176.11 27.91 188.09 11.43"/><path class="cls-8" d="M165.62,48.13a11.22,11.22,0,0,1-6.74-1.5,11,11,0,0,1-3.74-3.74l14.23-16.48L182.1,3.19a7.48,7.48,0,0,1,6.74,1.5,7.38,7.38,0,0,1,2.25,6L175.36,29.41Z"/><path class="cls-2" d="M170.87,25.66l3.74,2.25c-.26,1.21-.51,2.46-.75,3.74q-.42,2.31-.75,4.5a3.22,3.22,0,0,0,2.25,1.49,3.11,3.11,0,0,0,3-1.49l-.74-4.5,1.49,1.5a2.72,2.72,0,0,0,1.5-.75,2.85,2.85,0,0,0,.75-2.25,4.51,4.51,0,0,1-2.25-2.24c-.56-1.44.17-2.48,0-3.75s-1.16-2.84-5.24-4.49l-.26,0a3.46,3.46,0,0,0-2.73,1.54A4.24,4.24,0,0,0,170.87,25.66Z"/><path class="cls-2" d="M237.52,50.37l-3,10.49a26.82,26.82,0,0,0,6.74,5.24,28.88,28.88,0,0,0,9,3,95,95,0,0,0,20.22,1.49l.75-12.73h15l-27.7-13.48L224,42.89Z"/><g class="cls-13"><polygon class="cls-4" points="225.91 40.28 248.38 54.51 291.06 56.01 290.31 58.26 247.63 57.51 222.91 41.78 225.91 40.28"/></g><path class="cls-4" d="M253.24,48.6l17.23,9.62L269,78.08h4.49l-.75-19.86L257.74,48c-2.16-1-4-1.23-4.5-.64C253.13,47.44,252.91,47.78,253.24,48.6Z"/><polygon class="cls-3" points="192.69 91.71 186.48 88.84 180.6 92.33 181.41 85.54 176.27 81.03 182.98 79.7 185.68 73.42 189.02 79.38 195.83 80.01 191.19 85.03 192.69 91.71"/><circle class="cls-3" cx="42.01" cy="26.4" r="8.24"/><polygon class="cls-3" points="37.73 30.17 32.19 38.31 35.54 38.25 34.96 42.95 38.53 37.19 40.34 43.85 42.62 40.79 46 42.4 42.08 29.75 37.73 30.17"/><polygon class="cls-14" points="43.27 22.89 43.31 25.6 45.56 27.11 42.99 27.98 42.26 30.59 40.63 28.42 37.93 28.53 39.49 26.31 38.55 23.77 41.14 24.57 43.27 22.89"/><polygon class="cls-2" points="127.38 0 128.91 3.1 132.34 3.6 129.86 6.02 130.44 9.43 127.38 7.82 124.31 9.43 124.9 6.02 122.42 3.6 125.84 3.1 127.38 0"/><polygon class="cls-4" points="215.73 2.09 217.71 6.11 222.14 6.75 218.93 9.88 219.69 14.29 215.73 12.21 211.76 14.29 212.52 9.88 209.31 6.75 213.75 6.11 215.73 2.09"/><path class="cls-1" d="M213.29,209.32,205,202.37l-9.13,11.2,8.11,8.08,9.59-4.41Z"/><path class="cls-15" d="M203.09,220.68s7.76-5.18,10.35-11.55c0,0,6.24,2.36,10.07-.12s12.07-10.67,15.22-8.87,2,3.77-1,7.12-14.08,15.45-14.08,15.45l-5.26,1.46,2.47,2.32-6.84,7S203.51,225.42,203.09,220.68Z"/><path class="cls-1" d="M225.29,183.32,217,176.37l-9.13,11.2,8.11,8.08,9.59-4.41Z"/><path class="cls-15" d="M215.09,194.68s7.76-5.18,10.35-11.55c0,0,6.24,2.36,10.07-.12s12.07-10.67,15.22-8.87,2,3.77-1,7.12-14.08,15.45-14.08,15.45l-5.26,1.46,2.47,2.32-6.84,7S215.51,199.42,215.09,194.68Z"/><path class="cls-16" d="M165.5,121l54.64,57-14.95,14.86Z"/><path class="cls-17" d="M83.45,127.65a26.07,26.07,0,0,0,6,12.63,27.34,27.34,0,0,0,10.46,7.11c7.66,3.1,13.39,2.13,31.24.7,4.22-.33,10.81-.83,19-1.32l27.5,39.49,19.64,27.45,20.47-15.42c-19.8-30.63-34.35-53.3-41.18-65.06a40.06,40.06,0,0,0-10.47-12.48c-4.47-3.44-8.05-4.51-18.31-8.41-4.37-1.66-11.05-4.25-19.33-7.69Z"/><path class="cls-1" d="M87.78,54c1.07,4.24,3,6.61,5.25,7.75,6.47,3.29,15.11-3.4,14.7-5.5-.15-.76-1.47-.67-3.16-2.73-.62-.76-1.63-2.21-1.63-2.21h0l-.16-.2a9.2,9.2,0,0,1-.85-1.39c-1.13-2.38-1-7.24-1-7.25-4.3-1.52-9.48-4.09-13.77-5.61L86.05,37C86.07,37.14,87.79,53.73,87.78,54Z"/><path class="cls-18" d="M91.7,49.8l0,.05c2.75,2.78,6.8,3.27,10.83,3.71.52.06,1.31.13,2.27.19L102.66,51a7.41,7.41,0,0,1-1.93,1C96.51,53.32,92.4,50.32,91.7,49.8Z"/><path class="cls-1" d="M105.06,36c1.53,6.74,2,14-4.32,15.91-4.43,1.34-11.12-2.47-14.52-7.28a49.13,49.13,0,0,1-4.15-6.42c-.66-1.41-1-2.32-1-2.32l-.46-3.53-.26-2.08s.82-1.71,1.72-3.62c1.12-2.39,5-1.57,5-1.69S94.77,19.67,99,21.73h0a3.7,3.7,0,0,1,1,.67,2.28,2.28,0,0,1,.52.72c.24.51.58,1.28,1,2.26.17.42.37.87.57,1.34.32.82.68,1.71,1,2.66A55.65,55.65,0,0,1,105.06,36Z"/><path class="cls-17" d="M85.48,44.41c.14.29-12.18-8.11-12-14.89s5.23-7.21,5.23-7.21-.44-13.43,13.7-8.62c0,0,6.82-1,9.74,3.8a8.84,8.84,0,0,1-.13,9.25s-1.76-4.3-4.62-3.18c-2.07.8.14,2.41-5.82,3.58C88,27.87,86,26,84.55,27.89s.51,2.16,1.51,8.58C86.66,40.42,84.16,41.67,85.48,44.41Z"/><path class="cls-14" d="M97.39,45.77l4.9-1.26S101.15,48.75,97.39,45.77Z"/><path class="cls-1" d="M84.29,38.6s-4.7-.83-3,2.83,5.89,3.77,5.89,3.77Z"/><path class="cls-19" d="M83.89,40.18s-3.26.35,1.34,3.1Z"/><path class="cls-19" d="M101.14,34.24a.51.51,0,0,1,.49.24,1.43,1.43,0,0,1,.32.74,1.59,1.59,0,0,1,0,.79.54.54,0,0,1-.39.39.53.53,0,0,1-.5-.24,1.48,1.48,0,0,1-.31-.73,1.52,1.52,0,0,1,0-.8A.54.54,0,0,1,101.14,34.24Z"/><path class="cls-19" d="M93.12,36.21a.54.54,0,0,1,.5.24,1.57,1.57,0,0,1,.31.73,1.62,1.62,0,0,1-.05.8.54.54,0,0,1-.39.39.53.53,0,0,1-.5-.24,1.51,1.51,0,0,1-.31-.74,1.59,1.59,0,0,1,0-.79C92.82,36.37,93,36.23,93.12,36.21Z"/><path class="cls-19" d="M99,31.53s1.19-2,3-1.78Z"/><path class="cls-19" d="M89,33.12c.12-.06,2.16-1.33,4-.45Z"/><path class="cls-19" d="M99.44,41.75a3.78,3.78,0,0,1-.71.13.14.14,0,0,1-.16-.14.15.15,0,0,1,.14-.16c.76-.06,1.21-.29,1.23-.66s-.44-.88-.91-1a.13.13,0,0,1-.11-.17.15.15,0,0,1,.18-.11,1.44,1.44,0,0,1,1.14,1.28C100.21,41.17,100.07,41.54,99.44,41.75Z"/><path class="cls-19" d="M102.53,38.4l-.26.08a3.55,3.55,0,1,1,.26-.08Zm-4.14-2.55A3.16,3.16,0,1,0,100.73,32,3.16,3.16,0,0,0,98.39,35.85Z"/><path class="cls-19" d="M94.18,40.39l-.26.07a3.45,3.45,0,1,1,2.56-4.16,3.41,3.41,0,0,1-.41,2.61A3.5,3.5,0,0,1,94.18,40.39ZM90,37.83a3.15,3.15,0,0,0,3.81,2.34,3.19,3.19,0,0,0,2.34-3.81A3.16,3.16,0,1,0,90,37.83Z"/><path class="cls-19" d="M98.36,35h-.09a1.8,1.8,0,0,0-2.21.64.15.15,0,0,1-.2,0,.14.14,0,0,1,0-.2,2.13,2.13,0,0,1,2.55-.78.15.15,0,0,1,.11.18A.19.19,0,0,1,98.36,35Z"/><path class="cls-3" d="M66.36,65.88c-14,16.58-6.4,38.88-6,40a27.63,27.63,0,0,1,7.15-3.23,27.93,27.93,0,0,1,10.06-1c3.46,26.05,6.26,32.22,8.31,32.21s1.88-6.88,7.8-11.58a11.08,11.08,0,0,1,1.35-.92c4.14-2.33,8.61-3.33,17.78-3.36,9.66,0,12,.85,15.85-1.25,1.47-.81,1.56-1.19,4.53-3,5.95-3.69,8.34-3.55,9.31-5,5.37-8.24-8.77-25.24-9.56-26.17l9.81-4.78A56.42,56.42,0,0,0,138,65.91c-3.24-6-6.45-11.88-12.61-15-9.33-4.79-19.78-.37-22.12.69A8.73,8.73,0,0,1,97,57.86a8.82,8.82,0,0,1-9.56-4.28A38.28,38.28,0,0,0,66.36,65.88Z"/><g class="cls-20"><path class="cls-8" d="M124.38,119.26l-15.65,1.11A3.24,3.24,0,0,1,104.8,118Q97.6,87.57,90.41,57.1l11.12-2.35Q113,87,124.38,119.26Z"/><line class="cls-21" x1="76.82" y1="71.2" x2="78.47" y2="95.55"/></g><polygon class="cls-4" points="100.31 86.11 114.5 119.47 107.81 123.33 92.12 88.83 100.31 86.11"/><g class="cls-22"><polygon class="cls-8" points="93.23 85.2 110.97 126.91 114.89 124.24 95.5 82.22 93.23 85.2"/></g><path class="cls-2" d="M100.15,86.93l4.64-2.15,21.52-10,15,33.52-26,11.32Z"/><g class="cls-23"><polygon class="cls-8" points="104.71 83.1 123.28 124.96 118.03 125.68 101.78 85.11 104.71 83.1"/><polygon class="cls-8" points="111.35 88.61 113.87 93.35 129.57 86.92 127.21 81.36 111.35 88.61"/></g><path class="cls-1" d="M129.34,81.33l4.74,11.12L114,104a36.3,36.3,0,0,0-6.58-1.24,35.72,35.72,0,0,0-5.1-.1c-.47.21-1,.49-1,.66s.64.16.82.16a18,18,0,0,1,4.95.93l-5.72,3.19a13.07,13.07,0,0,0-.77,4.12,5.09,5.09,0,0,0,.36,2.62,4.75,4.75,0,0,0,3,2.27,15.64,15.64,0,0,0,10.81-3.09,12.55,12.55,0,0,0,2.11-2.16l30-9.72a7.32,7.32,0,0,0,3.4-4.47A7.51,7.51,0,0,0,148.85,91q-3.24-6.56-6.49-13.09a59.3,59.3,0,0,1-6,2A57.58,57.58,0,0,1,129.34,81.33Z"/><path class="cls-1" d="M65.14,103.22q3.36,22.85,6.74,45.69l-2.52,5.23a1.37,1.37,0,1,0,2.26,1.29L76.29,150a7.94,7.94,0,0,0,5.65-1.85l-3.75-47.42a21,21,0,0,0-13,2.45Z"/></g></g></svg>