<svg xmlns="http://www.w3.org/2000/svg" xmlns:xlink="http://www.w3.org/1999/xlink" viewBox="0 0 388.22 323.37"><defs><style>.cls-1{fill:#4e79bc;}.cls-2{fill:#1e519a;}.cls-19,.cls-20,.cls-23,.cls-29,.cls-3,.cls-30,.cls-31,.cls-32,.cls-40,.cls-49,.cls-8,.cls-9{fill:none;}.cls-4{fill:#ffe1b6;}.cls-38,.cls-5{fill:#f2f6fb;}.cls-6{clip-path:url(#clip-path);}.cls-7{fill:#4e619c;}.cls-20,.cls-23,.cls-8,.cls-9{stroke:#a8c1e0;}.cls-12,.cls-19,.cls-20,.cls-23,.cls-26,.cls-27,.cls-28,.cls-29,.cls-30,.cls-31,.cls-32,.cls-33,.cls-40,.cls-46,.cls-8,.cls-9{stroke-miterlimit:10;}.cls-8{stroke-width:0.5px;}.cls-19,.cls-20,.cls-23,.cls-26,.cls-27,.cls-28,.cls-29,.cls-30,.cls-31,.cls-49,.cls-9{stroke-linecap:round;}.cls-9{stroke-width:0.85px;}.cls-10{clip-path:url(#clip-path-2);}.cls-11{clip-path:url(#clip-path-3);}.cls-12,.cls-17{fill:#f2f6fc;}.cls-12{stroke:#1d529a;stroke-width:3.08px;}.cls-13{fill:#c8c9ca;}.cls-14,.cls-33{fill:#5a71b6;}.cls-15,.cls-47,.cls-48{fill:#1d529a;}.cls-16,.cls-24{fill:#a8c1e0;}.cls-18,.cls-41,.cls-46{fill:#fff;}.cls-19{stroke:#fff;stroke-width:0.67px;}.cls-20{stroke-width:2px;}.cls-21{clip-path:url(#clip-path-4);}.cls-22{fill:#f4f5f8;}.cls-23{stroke-width:2.98px;}.cls-24{font-size:5.11px;font-family:BritannicBold, Britannic Bold;}.cls-25{fill:#7e91a8;}.cls-26,.cls-27,.cls-28{fill:#f9f9fc;stroke:#f2f6fc;}.cls-26,.cls-29{stroke-width:4.26px;}.cls-27{stroke-width:1.39px;}.cls-28{stroke-width:3.76px;}.cls-29,.cls-30,.cls-31{stroke:#5a71b6;}.cls-30{stroke-width:5.53px;}.cls-31{stroke-width:2.5px;}.cls-32{stroke:#2b296b;stroke-width:0.48px;}.cls-33{stroke:#231f20;stroke-width:0.4px;}.cls-34{clip-path:url(#clip-path-5);}.cls-35{fill:#5571b4;}.cls-35,.cls-40,.cls-41,.cls-42,.cls-43{isolation:isolate;}.cls-36{fill:#26343b;}.cls-37{fill:#563126;}.cls-38{opacity:0.3;}.cls-39{clip-path:url(#clip-path-6);}.cls-40{stroke:#333;stroke-width:0.76px;}.cls-42{fill:#333;}.cls-43{fill:#2c2b2b;}.cls-44{fill:#2c2b2a;}.cls-45{fill:#bda787;}.cls-46{stroke:#161e2c;stroke-width:5.21px;}.cls-47{opacity:0.35;}.cls-48{opacity:0.4;}.cls-49{stroke:#f2f6fb;stroke-linejoin:round;stroke-width:3.15px;}</style><clipPath id="clip-path"><circle class="cls-1" cx="201.92" cy="53.41" r="9.95"/></clipPath><clipPath id="clip-path-2"><circle class="cls-1" cx="33.31" cy="98.97" r="9.95"/></clipPath><clipPath id="clip-path-3"><circle class="cls-1" cx="95.05" cy="32.54" r="9.95"/></clipPath><clipPath id="clip-path-4"><rect class="cls-2" x="252.74" y="30.44" width="99.16" height="60.04" rx="10.39"/></clipPath><clipPath id="clip-path-5"><rect class="cls-3" x="70.97" y="74.18" width="175.04" height="175.04"/></clipPath><clipPath id="clip-path-6"><path class="cls-4" d="M146.49,164q.16-9.47.34-18.95l0-1.52A7.59,7.59,0,0,1,143,145a8.18,8.18,0,0,1-7.52-3.92c-1.67-2.76-2-7.07.94-9.85a7.8,7.8,0,0,1,9.87-.58c-.71-3-1.41-6.09-2.11-9.13,3.12-.77,6.42-1.48,9.89-2.1,5.39-1,10.48-1.61,15.21-2-.32-3.77-.69-9.7.17-9.86s2.6,5.53,3.63,9.17l3.79.07c.49,4.25,1,7.57,1.34,9.88.18,1.13.41,2.53.67,4.56.32,2.38.6,4.53.65,6.08.26,7-3.71,12.74-4.8,14.32a27.31,27.31,0,0,1-3.88,4.48q-.06,4.17-.14,8.34a49.18,49.18,0,0,1-24.26-.44Z"/></clipPath></defs><g id="Layer_2" data-name="Layer 2"><g id="new"><rect class="cls-5" x="241.1" width="121.51" height="247.38" rx="16.11"/><circle class="cls-1" cx="201.92" cy="53.41" r="9.95"/><g class="cls-6"><path class="cls-7" d="M191,45.41c.39-.06.12,4.23,3.21,9,5,7.67,13.73,8.68,13.35,10.47-.33,1.5-6.85,2.93-11.33,0C188.84,60,190.25,45.53,191,45.41Z"/></g><circle class="cls-8" cx="202.14" cy="53.52" r="6.81"/><line class="cls-9" x1="200.42" y1="49.49" x2="201.86" y2="58.57"/><line class="cls-9" x1="202.24" y1="49.21" x2="203.68" y2="58.28"/><path class="cls-9" d="M204.19,50.64a3.08,3.08,0,0,0-2.07-.73c-1.27.07-2.53,1.06-2.44,1.81s1.22,1.07,2.31,1.46c1.39.51,1.95.37,2.2.84.38.72-.49,1.89-1,2.41a4.76,4.76,0,0,1-3,1.36"/><circle class="cls-1" cx="33.31" cy="98.97" r="9.95"/><g class="cls-10"><path class="cls-7" d="M22.37,91c.39-.06.12,4.23,3.21,9,5,7.66,13.73,8.67,13.35,10.47-.33,1.5-6.85,2.93-11.33,0C20.23,105.59,21.64,91.09,22.37,91Z"/></g><circle class="cls-8" cx="33.53" cy="99.08" r="6.81"/><line class="cls-9" x1="31.81" y1="95.05" x2="33.25" y2="104.12"/><line class="cls-9" x1="33.63" y1="94.76" x2="35.07" y2="103.83"/><path class="cls-9" d="M35.58,96.2a3.08,3.08,0,0,0-2.07-.73c-1.27.07-2.53,1.06-2.44,1.8s1.22,1.08,2.31,1.47c1.39.51,1.95.37,2.2.84.38.71-.49,1.89-1,2.4a4.76,4.76,0,0,1-3,1.37"/><circle class="cls-1" cx="95.05" cy="32.54" r="9.95"/><g class="cls-11"><path class="cls-7" d="M84.1,24.55c.4-.06.13,4.23,3.22,9,5,7.67,13.73,8.68,13.34,10.48-.32,1.5-6.84,2.93-11.32,0C82,39.16,83.38,24.66,84.1,24.55Z"/></g><circle class="cls-8" cx="95.27" cy="32.65" r="6.81"/><line class="cls-9" x1="93.55" y1="28.63" x2="94.99" y2="37.7"/><line class="cls-9" x1="95.37" y1="28.34" x2="96.81" y2="37.41"/><path class="cls-9" d="M97.32,29.78A3.08,3.08,0,0,0,95.25,29c-1.28.07-2.53,1.07-2.44,1.81s1.22,1.08,2.3,1.47c1.39.51,2,.37,2.21.84.38.71-.49,1.89-1,2.4a4.68,4.68,0,0,1-3,1.36"/><path class="cls-1" d="M192.83,107.6c2-3.81,6.36-4.21,6.63-4.23l80.26,2.33a11.23,11.23,0,0,1,6,12l-2.1,128.53a4,4,0,0,1-2.06,2.39,3.81,3.81,0,0,1-2.11.31h-83a21,21,0,0,1-4.24-6.63A21.27,21.27,0,0,1,190.84,232q.75-59.25,1.49-118.5A8.09,8.09,0,0,1,192.83,107.6Z"/><path class="cls-2" d="M279.53,147.39,197,146.33l-1-31.82a6.57,6.57,0,0,1,2-4.33,6.71,6.71,0,0,1,5.14-1.71l72.14,2.39a7.08,7.08,0,0,1,2.23,1.4c2.72,2.54,2.38,6.43,2.32,7.07Q279.66,133.36,279.53,147.39Z"/><rect class="cls-12" x="200.21" y="120.04" width="74.22" height="24.97" transform="translate(472.92 268.08) rotate(-179.26)"/><rect class="cls-5" x="260.79" y="175.97" width="15.08" height="11.44" rx="3.88" transform="translate(534.37 366.74) rotate(-179.28)"/><rect class="cls-5" x="245.28" y="176.14" width="15.08" height="11.44" rx="3.88" transform="translate(503.34 366.88) rotate(-179.28)"/><rect class="cls-5" x="229.82" y="175.58" width="15.08" height="11.44" rx="3.88" transform="translate(472.44 365.56) rotate(-179.28)"/><rect class="cls-5" x="213.64" y="174.95" width="15.08" height="11.44" rx="3.88" transform="translate(440.07 364.1) rotate(-179.28)"/><rect class="cls-13" x="197.39" y="175.06" width="15.08" height="11.44" rx="3.88" transform="translate(407.58 364.11) rotate(-179.28)"/><rect class="cls-14" x="198" y="163.67" width="15.08" height="8.41" rx="3.41" transform="translate(408.96 338.3) rotate(-179.28)"/><rect class="cls-15" x="215.38" y="163.28" width="15.08" height="8.41" rx="3.41" transform="translate(443.72 337.76) rotate(-179.28)"/><rect class="cls-16" x="213.2" y="188.94" width="15.08" height="11.44" rx="3.88" transform="translate(439.02 392.07) rotate(-179.28)"/><rect class="cls-16" x="228.71" y="188.77" width="15.08" height="11.44" rx="3.88" transform="translate(470.05 391.93) rotate(-179.28)"/><rect class="cls-5" x="244.56" y="189" width="15.08" height="11.44" rx="3.88" transform="translate(501.75 392.58) rotate(-179.28)"/><rect class="cls-5" x="260.41" y="189.23" width="15.08" height="11.44" rx="3.88" transform="translate(533.44 393.24) rotate(-179.28)"/><rect class="cls-5" x="261.44" y="203.34" width="15.08" height="11.44" rx="3.88" transform="translate(535.32 421.47) rotate(-179.28)"/><rect class="cls-5" x="244.46" y="203.38" width="15.08" height="11.44" rx="3.88" transform="translate(501.36 421.35) rotate(-179.28)"/><rect class="cls-16" x="228.61" y="203.15" width="15.08" height="11.44" rx="3.88" transform="translate(469.66 420.7) rotate(-179.28)"/><rect class="cls-16" x="227.77" y="217.48" width="15.08" height="11.44" rx="3.88" transform="translate(467.8 449.33) rotate(-179.28)"/><rect class="cls-16" x="244.75" y="217.43" width="15.08" height="11.44" rx="3.88" transform="translate(501.76 449.45) rotate(-179.28)"/><rect class="cls-16" x="243.91" y="231.76" width="15.08" height="11.44" rx="3.88" transform="translate(499.91 478.09) rotate(-179.28)"/><rect class="cls-2" x="260.28" y="230.18" width="15.08" height="11.44" rx="3.88" transform="translate(532.67 475.15) rotate(-179.28)"/><rect class="cls-2" x="260.79" y="215.46" width="15.08" height="11.44" rx="3.88" transform="translate(533.86 445.71) rotate(-179.28)"/><rect class="cls-1" x="135.33" y="63.66" width="59.59" height="131.86" transform="translate(350.96 227.18) rotate(169.58)"/><path class="cls-17" d="M180.49,70.33A4.27,4.27,0,0,1,174.17,67L132.9,75.09a3.6,3.6,0,0,1-3.42,5.69l11.22,55,48.81-10.52Z"/><path class="cls-17" d="M200.38,178.49a4.28,4.28,0,0,0-4.72,5.38L154.21,191a3.6,3.6,0,0,0-5.22-4.11l-9.08-55.38L189.27,124Z"/><circle class="cls-14" cx="164.55" cy="125.51" r="15.41"/><rect class="cls-1" x="80.34" y="75.84" width="59.59" height="131.86" transform="translate(285.66 179.46) rotate(139.96)"/><path class="cls-17" d="M94.21,82.66a4.48,4.48,0,0,1-4.31,2,4.41,4.41,0,0,1-2.83-1.78L55.19,110.31A3.6,3.6,0,0,1,55,117L92,159.21l37.23-33.27Z"/><path class="cls-18" d="M165,166.86a4.5,4.5,0,0,0-2.7,3.91,4.39,4.39,0,0,0,1.27,3.09L131,200.53a3.6,3.6,0,0,0-6.57-1L89.16,155.88l39.19-30.94Z"/><circle class="cls-14" cx="107.63" cy="138.51" r="15.41"/><rect class="cls-1" x="42.26" y="110.12" width="59.59" height="131.86" transform="translate(260.76 200.05) rotate(119.51)"/><path class="cls-17" d="M36.47,126.24a4.5,4.5,0,0,1-3.34,3.37,4.44,4.44,0,0,1-3.28-.68L9.58,165.78a3.61,3.61,0,0,1,2.17,6.28l49.37,26.69,23.26-44.19Z"/><path class="cls-17" d="M132.18,180.4a4.27,4.27,0,0,0,1.1,7.07l-21.15,36.35a3.61,3.61,0,0,0-6.51,1.36L57.33,196.61l25.9-42.69Z"/><circle class="cls-14" cx="68.56" cy="173.87" r="15.41"/><line class="cls-19" x1="177.69" y1="123.47" x2="152.84" y2="131.8"/><line class="cls-19" x1="176.02" y1="118.48" x2="151.17" y2="126.82"/><path class="cls-19" d="M169.81,115.46a8.72,8.72,0,0,1,4.6,4.27c1.5,3.3.64,7.8-1.36,8.55-1.78.67-4.33-1.67-6.76-3.89-3.12-2.85-3.51-4.47-5-4.48-2.31,0-4.14,3.74-4.79,5.66a13.53,13.53,0,0,0,.49,9.34"/><line class="cls-19" x1="117.63" y1="130.76" x2="99.13" y2="149.33"/><line class="cls-19" x1="113.9" y1="127.05" x2="95.4" y2="145.62"/><path class="cls-19" d="M107,127.12a8.74,8.74,0,0,1,6,1.76c2.82,2.29,4.07,6.69,2.61,8.26-1.29,1.39-4.62.44-7.79-.46-4.06-1.15-5.13-2.43-6.5-1.76-2.07,1-2,5.2-1.75,7.21a13.47,13.47,0,0,0,4.62,8.13"/><line class="cls-20" x1="78.57" y1="164.61" x2="63.34" y2="185.94"/><line class="cls-20" x1="74.29" y1="161.55" x2="59.06" y2="182.88"/><path class="cls-20" d="M67.49,162.75a8.7,8.7,0,0,1,6.23.75c3.15,1.8,5.1,5.94,3.92,7.72-1,1.59-4.48,1.19-7.76.82-4.19-.48-5.46-1.56-6.7-.68-1.87,1.35-1.16,5.46-.56,7.4A13.54,13.54,0,0,0,68.5,186"/><rect class="cls-2" x="252.74" y="30.44" width="99.16" height="60.04" rx="10.39"/><g class="cls-21"><rect class="cls-1" x="239.09" y="58.12" width="129.86" height="18.31"/></g><rect class="cls-22" x="253.74" y="11.71" width="94.95" height="14.38" rx="7.19"/><line class="cls-23" x1="291.43" y1="82.18" x2="260.77" y2="82.18"/><rect class="cls-16" x="259.92" y="63.02" width="45.56" height="9.37" rx="4.17"/><rect class="cls-16" x="309.1" y="62.8" width="18.31" height="9.37" rx="2.64"/><rect class="cls-16" x="331.24" y="63.23" width="18.31" height="9.37" rx="2.64"/><rect class="cls-16" x="265.24" y="36.83" width="21.29" height="16.18" rx="3.67"/><text class="cls-24" transform="translate(333.94 45.61)">BANK</text><path class="cls-25" d="M376.8,155.62l10.64-1.27c1.7-9.48.25-15.84-.85-19.16-.69-2.08-1.48-3.67-3-4.26-2.47-1-6.1,1.06-9.37,5.11Z"/><path class="cls-16" d="M384,130.93a5.75,5.75,0,0,0-5.53,1.7,6.14,6.14,0,0,0-1.28,5.54L376.8,248l-94.53.85q.21-54.49.43-109a6,6,0,0,1,0-3.83c1.23-3.4,6.23-5.53,12.35-4.69Z"/><rect class="cls-1" x="314.63" y="137.74" width="34.91" height="12.77" rx="4.15"/><line class="cls-26" x1="315.06" y1="164.14" x2="352.1" y2="164.14"/><line class="cls-26" x1="293.34" y1="186.28" x2="330.39" y2="186.28"/><line class="cls-27" x1="363.17" y1="193.94" x2="375.09" y2="193.94"/><line class="cls-28" x1="293.34" y1="193.94" x2="322.3" y2="193.94"/><line class="cls-29" x1="321.02" y1="178.62" x2="295.05" y2="178.62"/><line class="cls-30" x1="336.77" y1="200.33" x2="292.92" y2="200.33"/><line class="cls-31" x1="373.39" y1="186.07" x2="364.45" y2="186.07"/><path class="cls-32" d="M362.31,231.14a20,20,0,0,0-1.44-10.57,19.62,19.62,0,0,0-3.84-5.76"/><path class="cls-32" d="M363.51,229.7a30.54,30.54,0,0,0,.48-9.13,27.84,27.84,0,0,0-1.2-5.76,28.39,28.39,0,0,0-2.88-6.24"/><path class="cls-2" d="M360.63,229.7a7.13,7.13,0,0,1-2.4-3.12,34,34,0,0,1-1.92-5.53,12.15,12.15,0,0,1,3.6,3.37c1.59,2.26,2.55,5.36,1.92,5.76C361.57,230.34,361.09,230,360.63,229.7Z"/><path class="cls-2" d="M365.19,229.46a7.13,7.13,0,0,0,2.4-3.12,33,33,0,0,0,1.92-5.53,12.15,12.15,0,0,0-3.6,3.37c-1.59,2.26-2.55,5.36-1.92,5.76C364.25,230.1,364.73,229.77,365.19,229.46Z"/><path class="cls-2" d="M360.39,210.25l-1.92-1.44a3.51,3.51,0,0,1-2.64,1.2c-.3,0-.93-.06-1.2-.48s0-1.54,1-2.4l-1.2-.72a1.13,1.13,0,0,1-.24-1.2,1.15,1.15,0,0,1,1-.72l2.16-.24-.24-2.4a1.23,1.23,0,0,1,.72-.24,1.54,1.54,0,0,1,1.2.72,12.15,12.15,0,0,1,2.4,4.32,5.12,5.12,0,0,1,0,3.12.88.88,0,0,1-.48.48A.77.77,0,0,1,360.39,210.25Z"/><path class="cls-1" d="M360.15,210.25a5.74,5.74,0,0,0-1.44-1.68,5.88,5.88,0,0,0-3.12-1.2c-.1-.12-.36-.48-.24-.72s.42-.22,1-.24,1.14,0,1.92,0l-1.44-2.16a.85.85,0,0,1,1-1,7.19,7.19,0,0,1,3.6,6.24.77.77,0,0,1-.48,1A.74.74,0,0,1,360.15,210.25Z"/><path class="cls-2" d="M357.22,216.05l-1.77-.63a2.78,2.78,0,0,1-1.7,1.51,1.18,1.18,0,0,1-1-.08c-.38-.32-.36-1.15.16-2l-1.07-.26a.91.91,0,0,1-.46-.84.9.9,0,0,1,.55-.77l1.56-.68-.74-1.74a1,1,0,0,1,.49-.35,1.17,1.17,0,0,1,1.06.26,9.4,9.4,0,0,1,2.81,2.68,4.08,4.08,0,0,1,.73,2.33.73.73,0,0,1-.25.47A.61.61,0,0,1,357.22,216.05Z"/><path class="cls-1" d="M357,216.1a4.49,4.49,0,0,0-1.47-.92A4.55,4.55,0,0,0,353,215c-.1-.07-.38-.27-.34-.48s.26-.27.66-.41.85-.28,1.44-.45l-1.59-1.28a.68.68,0,0,1,.5-.94,5.61,5.61,0,0,1,2.59,1.36,5.73,5.73,0,0,1,1.56,2.47.61.61,0,0,1-.13.83A.59.59,0,0,1,357,216.1Z"/><path class="cls-2" d="M369.28,216.05l1.78-.63a2.75,2.75,0,0,0,1.7,1.51,1.18,1.18,0,0,0,1-.08c.37-.32.36-1.15-.16-2l1.06-.26a.9.9,0,0,0-.09-1.61l-1.56-.68.74-1.74a1,1,0,0,0-.48-.35,1.18,1.18,0,0,0-1.07.26,9.53,9.53,0,0,0-2.81,2.68,4,4,0,0,0-.72,2.33.66.66,0,0,0,.24.47A.61.61,0,0,0,369.28,216.05Z"/><path class="cls-1" d="M369.46,216.1a4.6,4.6,0,0,1,1.47-.92,4.55,4.55,0,0,1,2.62-.17c.1-.07.38-.27.35-.48s-.26-.27-.66-.41-.85-.28-1.44-.45l1.58-1.28a.7.7,0,0,0,0-.59.67.67,0,0,0-.48-.35,5.63,5.63,0,0,0-2.6,1.36,5.73,5.73,0,0,0-1.56,2.47.62.62,0,0,0,.14.83A.57.57,0,0,0,369.46,216.1Z"/><path class="cls-2" d="M365.19,224.18a7.1,7.1,0,0,0,2.4-3.13,32.54,32.54,0,0,0,1.92-5.52,12.23,12.23,0,0,0-3.6,3.36c-1.59,2.27-2.55,5.37-1.92,5.77C364.25,224.82,364.73,224.49,365.19,224.18Z"/><path class="cls-1" d="M354.39,248.42l3.48-19.08h9.36l2.4,19Z"/><line class="cls-33" x1="63.28" y1="252.18" x2="288.78" y2="252.18"/><g class="cls-34"><path class="cls-35" d="M115.09,323.37h95.2c0-.22,0-.43-.07-.63-.11-1.32-.23-2.6-.37-3.81-.1-.85-.2-1.65-.3-2.44s-.17-1.3-.27-1.92c-.2-1.44-.41-2.79-.61-4.06-.4-2.53-.77-4.72-1-6.6A81.54,81.54,0,0,0,202,283.84a71.12,71.12,0,0,0-4-8.18l-4.12-11.55s0,0-.05,0c-30.11,12.43-68.4,5.06-72.09,4.31a.36.36,0,0,0-.14,0l-.15,0-.23,8.15s-2.92,17.14-4.54,28.79C116.22,308.64,115.66,315.4,115.09,323.37Z"/><path class="cls-36" d="M200.41,212.42c-11.86,25.25-2.47,51.25-6.16,52-1.27.24-3.63-2.57-8.45-16.47l-59.07-16.41a55.55,55.55,0,0,1-6-18.76c-3.1-24,11.06-42.36,14.75-46.87l16.41-1.09a53.22,53.22,0,0,0,7.16-1c2.53-.52,3.18-1,4.87-1.22a13.89,13.89,0,0,1,7.44,1.41,141.07,141.07,0,0,1,15,0,67.17,67.17,0,0,1,9.68.88c8.6,1.8,18,9.55,19.83,17.88C218,192.67,207.76,196.78,200.41,212.42Z"/><path class="cls-2" d="M199.53,165.75a24,24,0,0,0-2.64-.88,24.74,24.74,0,0,0-6.16-.88A157.94,157.94,0,0,0,182,188.77c-1.11,4.27-1.82,7.84-2.47,11-1.67,8.22-2.84,15.93-3.66,22.94l-42.48-1.91q1.58-10.69,3.66-22c2.16-11.55,4.58-22.56,7.16-33a9.33,9.33,0,0,0-8.75,0q-3,15.07-5.73,31.08-2.48,14.66-4.4,28.68l57.86,4.78a127.21,127.21,0,0,1,.73-14.34s.18-1.61.54-4.09c0,0,.69-4.7,1.66-9.29S191.45,184,199.53,165.75Z"/><path class="cls-2" d="M132.2,196.49a179.28,179.28,0,0,0-10.94,72.19,155,155,0,0,0,73.29,0,137.43,137.43,0,0,1-7.66-71.1Z"/><path class="cls-4" d="M239.41,262.88c-.3.72-1.23,1.93-11,2.52a158.73,158.73,0,0,1-34.39-1.93h0l-2.48-14s6.22-.83,12.57-1.71c10.65-1.47,10.95-2,13.3-2C229.49,246,241.24,258.39,239.41,262.88Z"/><path class="cls-4" d="M168.53,253.3c1.2-3.32,6.85-7.22,6.85-7.22s-4.74-.36-5.84,1.31S168.53,253.3,168.53,253.3Z"/><path class="cls-4" d="M169.74,255.93s-1.53,3.46,1.53,4.45a3.19,3.19,0,0,0,3.09,2.59s-.06,1.68,3.76,1.32,6.27-.7,9.8-.26,11-.8,11-.8V250.18s-8.7-6.3-10.81-6.74-9.18,1.25-10.36,1.54a8.56,8.56,0,0,0-2.33,1.09s-5.65,3.9-6.85,7.23C168.58,253.3,168,255.67,169.74,255.93Z"/><path class="cls-37" d="M169.91,256.24l-.44-.63a61.45,61.45,0,0,1,7.39-4.57,73.23,73.23,0,0,1,8.08-2.46l.19.75a73.43,73.43,0,0,0-8,2.42A64,64,0,0,0,169.91,256.24Z"/><path class="cls-37" d="M171.41,260.72l-.38-.67a63.21,63.21,0,0,1,7.32-3.61c2.36-.8,6.82-1.73,7-1.76l.15.74s-4.6,1-6.91,1.75A62.22,62.22,0,0,0,171.41,260.72Z"/><path class="cls-37" d="M174.43,263.34l-.21-.74s3-.85,6.15-1.5,5.78-.88,5.81-.89l.06.77a53.07,53.07,0,0,0-5.71.87C177.36,262.5,174.46,263.34,174.43,263.34Z"/><path class="cls-36" d="M141.87,167.72a5.4,5.4,0,0,1-.74-.77c-1.68-2.18-1.09-5.25-.64-6.84l-3.93,7.52A16.64,16.64,0,0,0,132.8,166c-1.93-.55-5.23-1.49-8.34-.15-1.79.77-2.31,1.78-3.06,1.46-1.11-.46-1.28-3.21-.66-5.32s2.18-3.66,3.89-5.23c2.19-2,2.8-1.84,4.61-3.71,1.42-1.47,2.58-2.67,3.12-4.5,1-3.34-.79-6.65-2.12-9.14-1.48-2.79-2.21-2.77-3-4.6-.83-2.07-1.11-5.18.94-9.84a9.62,9.62,0,0,1-4.54-.84,11.47,11.47,0,0,1-5.83-13,11.14,11.14,0,0,1,9.25-8.17,11.58,11.58,0,0,1,9,3.19,17.08,17.08,0,0,1,3.1-3.73c5-4.46,11.42-4.82,15.26-5a35.68,35.68,0,0,1,5.3.1,13.77,13.77,0,0,1,5.34-1.42,15.66,15.66,0,0,1,9.8,3.21c.92.63,1.94,1.44,6.7,6.94,2.2,2.54,4,4.68,5.2,6.16l-5.32.67a9.06,9.06,0,0,1,1.47,2.3,9.43,9.43,0,0,1,.66,5.32c-.31,1.79-.92,2-1.58,3.76-.12.32-2,5.58.59,9.11.78,1.08,2,1.76,4.5,3.12,1.91,1,2.4,1.06,5.26,2.36,3.72,1.69,5.6,2.57,6.76,3.92a9.74,9.74,0,0,1,2.18,5.35,12.61,12.61,0,0,0-13.74,5.06l-7.49-5.45a9.06,9.06,0,0,1,2.19,4.59,8.79,8.79,0,0,1-.05,3,20.72,20.72,0,0,1-3.82,1.44,21.13,21.13,0,0,1-7.59.63C166,160,144.76,170.12,141.87,167.72Z"/><path class="cls-38" d="M134.91,111.86c-.24-.28,2-3.29,5.42-6,7.58-6,16.66-7,16.8-6.52s-7.86,2.95-7.65,3.65,11.28-1.8,11.4-1.31c.07.3-4.19.62-8.41,3.64-3.83,2.74-5.92,6.47-6.93,5.94-.64-.33,0-1.94-.72-2.29-1.34-.69-5.33,5-6.15,4.44-.48-.31.74-2.47.06-3S135.16,112.14,134.91,111.86Z"/><path class="cls-4" d="M146.49,164q.16-9.47.34-18.95l0-1.52A7.59,7.59,0,0,1,143,145a8.18,8.18,0,0,1-7.52-3.92c-1.67-2.76-2-7.07.94-9.85a7.8,7.8,0,0,1,9.87-.58c-.71-3-1.41-6.09-2.11-9.13,3.12-.77,6.42-1.48,9.89-2.1,5.39-1,10.48-1.61,15.21-2-.32-3.77-.69-9.7.17-9.86s2.6,5.53,3.63,9.17l3.79.07c.49,4.25,1,7.57,1.34,9.88.18,1.13.41,2.53.67,4.56.32,2.38.6,4.53.65,6.08.26,7-3.71,12.74-4.8,14.32a27.31,27.31,0,0,1-3.88,4.48q-.06,4.17-.14,8.34a49.18,49.18,0,0,1-24.26-.44Z"/><g class="cls-39"><path class="cls-40" d="M139.44,134.31a4.53,4.53,0,0,1,3,.06,4.65,4.65,0,0,1,2.61,2.7,5.11,5.11,0,0,0-3.05.7,4.86,4.86,0,0,0-1.54,1.49"/><path class="cls-41" d="M162.86,141.61c.95-.66,2.14-.14,3.16,0a6.76,6.76,0,0,0,2.79-.28c1.18-.33,2.51-1.11,3.05.58a3.45,3.45,0,0,1-1.45,3.92,6.8,6.8,0,0,1-3.9,1.09c-1.93-.05-4.48-1.14-4.52-3.39A2.23,2.23,0,0,1,162.86,141.61Z"/><path class="cls-42" d="M152.52,123.58c.35-.84,1-1.14,2.31-1.73a14.59,14.59,0,0,1,3-.83c.92-.2,1.28-.24,1.51,0a1.71,1.71,0,0,1,0,1.77c-.51.83-1.43.4-3.05.83-2.29.6-3.29,2.21-3.82,1.7C152.15,125,152.3,124.11,152.52,123.58Z"/><path class="cls-42" d="M176.79,121.25c-.47-.59-1.16-.7-2.49-.9a17,17,0,0,0-3.05,0c-.91,0-1.26.08-1.43.34a1.2,1.2,0,0,0,.33,1.41c.62.56,1.43,0,3,0,2.29,0,3.51,1.08,3.93.56C177.39,122.33,177.09,121.63,176.79,121.25Z"/><path class="cls-43" d="M157,127c-.51.11-.76.95-.79,1.51,0,1.15.84,2.39,1.48,2.3s1-1.29.8-2.26C158.31,127.78,157.59,126.92,157,127Z"/><path class="cls-43" d="M173,125.83c-.41.08-.61.75-.63,1.19,0,.92.67,1.92,1.18,1.84s.82-1,.64-1.8S173.5,125.73,173,125.83Z"/><path class="cls-44" d="M169.08,130.29a3.21,3.21,0,0,1,1.37,1.24,3.47,3.47,0,0,1,.54,1.84,3.25,3.25,0,0,1-.57,1.84,3.13,3.13,0,0,1-1.45,1.15,4.52,4.52,0,0,0,1.26-3A5.16,5.16,0,0,0,169.08,130.29Z"/><path class="cls-45" d="M154.26,153.54a18.55,18.55,0,0,0,4.72,2.51,19.45,19.45,0,0,0,11.91.21l-.17,9.7a51.36,51.36,0,0,1-9.43-5.83A52.15,52.15,0,0,1,154.26,153.54Z"/></g><path class="cls-36" d="M212.74,177.2a88.34,88.34,0,0,1,7,9.68,100.7,100.7,0,0,1,5.28,9.69,180.38,180.38,0,0,1,8.17,19.79,56.64,56.64,0,0,1,2.75,6c2.32,6.37,20.32,33,14.86,41.48-1.39,2.15-5.79,5.47-23.49,1.59a13,13,0,0,0-10.94-19.69c-2-3.85-4.88-9.54-8.08-16.56-3.35-7.35-5.45-11.88-6.38-15C200.51,209.41,198.57,197.41,212.74,177.2Z"/><path class="cls-4" d="M103.11,208.81a4.3,4.3,0,0,0-4.34-5.52l5.52-7.49a3.21,3.21,0,0,0-4.33-4.73l-4.34,2.76-4.34,7.1a14.16,14.16,0,0,0,2,7.1,14.53,14.53,0,0,0,8.28,6.3l-.79,2,29.57,8.28,1.18-9.06a19.42,19.42,0,0,0,7.89-2.76,19.65,19.65,0,0,0,7.49-8.68l4.73-12.61,3.55-13c0-.4-.24-2.43-1.58-3.16-1.61-.87-4.64.27-6.31,3.55a58.85,58.85,0,0,1-7.09,9.86C127.59,202.81,111.28,207.25,103.11,208.81Z"/><path class="cls-36" d="M98.38,214.33a48.15,48.15,0,0,0,34.69,3.95l-8.28,31.53-35.87.4Z"/><rect class="cls-46" x="93.14" y="119.12" width="50.29" height="85.55" rx="7.53" transform="translate(-20.4 17.09) rotate(-7.61)"/><circle class="cls-47" cx="116.5" cy="155.59" r="36.66"/><circle class="cls-48" cx="117.29" cy="155.59" r="30.36"/><circle class="cls-2" cx="118.67" cy="157.17" r="20.5"/><polyline class="cls-49" points="104.67 157.17 116.5 165.45 129.12 148.5"/><path class="cls-4" d="M91.28,201.32a40.77,40.77,0,0,1-1.18-7.49,39.67,39.67,0,0,1,0-5.12A11.38,11.38,0,0,1,88.92,186a11.52,11.52,0,0,1-.4-3.94A12.73,12.73,0,0,1,87,178.85a14,14,0,0,1,0-8.67l4.73-6.7c.31-.14,2.75-1.13,4.33,0,1.78,1.26,2.19,5-.39,8.28a4.35,4.35,0,0,1,2.76,1.18c1.69,1.69,1.7,5.15-.4,8.28a3.59,3.59,0,0,1,2.76.79c1.48,1.32,1.57,4.37-.39,7.09Q95.82,195.22,91.28,201.32Z"/><path class="cls-4" d="M101.14,205.66a9.83,9.83,0,0,1-1.21-4.48l5.52-7.49a3.21,3.21,0,1,0-4.34-4.73l-4.34,2.76-4.33,7.1a10.37,10.37,0,0,0,2,7.09,10.72,10.72,0,0,0,10.67,3.69A10.08,10.08,0,0,1,101.14,205.66Z"/></g></g></g></svg>