<svg xmlns="http://www.w3.org/2000/svg" xmlns:xlink="http://www.w3.org/1999/xlink" viewBox="0 0 251.79 278.55"><defs><style>.cls-1,.cls-4{fill:#f2f6fb;}.cls-1,.cls-10{stroke:#1d529a;stroke-width:6px;}.cls-1,.cls-10,.cls-11,.cls-12,.cls-16,.cls-21,.cls-26,.cls-8{stroke-miterlimit:10;}.cls-2{fill:#ffe0b5;}.cls-3{fill:#a8c1e0;}.cls-24,.cls-27,.cls-5{fill:#fff;}.cls-6{fill:#ebebeb;}.cls-7{fill:#194685;}.cls-10,.cls-11,.cls-12,.cls-16,.cls-21,.cls-22,.cls-26,.cls-8{fill:none;}.cls-16,.cls-8{stroke:#fff;}.cls-11,.cls-16,.cls-21,.cls-8{stroke-linecap:round;}.cls-8{stroke-width:0.43px;}.cls-9{clip-path:url(#clip-path);}.cls-11{stroke:#c8c7c6;}.cls-11,.cls-12{stroke-width:1.7px;}.cls-12{stroke:#c6c5c5;}.cls-13{fill:#1e519a;}.cls-14{fill:#4e79bc;}.cls-15{fill:#f5f9fd;}.cls-16{stroke-width:2.13px;}.cls-17{fill:#e2e2da;}.cls-18{fill:#3e639a;}.cls-19{fill:#718fbd;}.cls-20{fill:#2b2c2b;}.cls-21{stroke:#766756;stroke-width:0.31px;}.cls-23{fill:#26343b;}.cls-24{opacity:0.2;}.cls-25{clip-path:url(#clip-path-2);}.cls-26{stroke:#333;stroke-width:0.27px;}.cls-26,.cls-27,.cls-28,.cls-29,.cls-33{isolation:isolate;}.cls-28{fill:#333;}.cls-29{fill:#2d2b2b;}.cls-30{fill:#2d2a2a;}.cls-31{fill:#bda788;}.cls-32,.cls-33{fill:#5672b4;}</style><clipPath id="clip-path"><circle class="cls-1" cx="133.21" cy="148.49" r="87.92"/></clipPath><clipPath id="clip-path-2"><path class="cls-2" d="M146.4,79.12l-.3-6.73,0-.53a2.76,2.76,0,0,1-1.32.59A2.91,2.91,0,0,1,142,71.23a2.84,2.84,0,0,1,.11-3.51,2.77,2.77,0,0,1,3.49-.43l-1-3.19c1.08-.34,2.24-.66,3.46-1,1.89-.46,3.68-.8,5.34-1-.19-1.32-.45-3.42-.15-3.49s1,1.9,1.49,3.17l1.34-.06c.27,1.49.51,2.66.69,3.47.09.4.21.89.35,1.6s.31,1.6.36,2.14a8.81,8.81,0,0,1-1.39,5.19,10.22,10.22,0,0,1-1.27,1.67l.13,3a17.5,17.5,0,0,1-4.55.74A17.29,17.29,0,0,1,146.4,79.12Z"/></clipPath></defs><g id="Layer_2" data-name="Layer 2"><g id="new"><rect class="cls-3" x="3.14" y="28.63" width="72.38" height="104.74"/><polygon class="cls-4" points="9.1 35.44 9.52 42.26 16.76 35.44 9.1 35.44"/><polygon class="cls-4" points="9.1 52.05 9.1 59.71 33.79 35.44 26.13 35.44 9.1 52.05"/><polygon class="cls-4" points="9.52 61.42 9.1 81.43 14.63 81.85 38.05 58.01 38.05 35.02 35.07 35.02 9.52 61.42"/><polygon class="cls-4" points="41.46 35.44 41.03 53.75 60.19 35.87 41.46 35.44"/><polygon class="cls-4" points="40.6 60.14 41.03 81.43 68.28 80.15 69.56 35.44 64.87 35.44 40.6 60.14"/><polygon class="cls-4" points="18.46 81.85 38.05 62.69 38.05 81.43 18.46 81.85"/><polygon class="cls-4" points="15.91 84.83 9.1 91.22 9.1 129.12 38.05 101.44 38.05 84.83 15.91 84.83"/><rect class="cls-3" x="89.14" y="16.71" width="72.38" height="104.74"/><polygon class="cls-4" points="95.96 20.12 96.38 26.93 103.62 20.12 95.96 20.12"/><polygon class="cls-4" points="95.96 36.72 95.96 44.38 120.65 20.12 112.99 20.12 95.96 36.72"/><polygon class="cls-4" points="96.38 46.09 95.96 66.1 101.49 66.53 124.91 42.68 124.91 19.69 121.93 19.69 96.38 46.09"/><polygon class="cls-4" points="128.32 20.12 127.89 38.42 147.05 20.54 128.32 20.12"/><polygon class="cls-4" points="127.47 44.81 127.89 66.1 155.14 64.82 156.42 20.12 151.73 20.12 127.47 44.81"/><polygon class="cls-4" points="105.32 66.53 124.91 47.37 124.91 66.1 105.32 66.53"/><polygon class="cls-5" points="102.77 69.51 95.96 75.89 95.96 113.79 124.91 86.11 124.91 69.51 102.77 69.51"/><path class="cls-6" d="M35.92,249.19A10.35,10.35,0,0,0,33.11,251a6.47,6.47,0,0,0-2.3,3.68c-1.29-1.27-9.15-8.77-17.88-6.81-7.26,1.63-14,9.56-12.77,14.9,3.24,13.59,62,24.11,107.29,6.39,14.34-5.61,26.39-13.69,42.16-9.79,10.66,2.63,18.69,9.68,31.08,6.81.59-.14.48-.13,14.05-5.54,14.48-5.76,16-6.32,17.46-8.09,5.46-6.55,2.68-20.4-2.56-28.1C209.64,224.49,183.09,185.5,35.92,249.19Z"/><polygon class="cls-7" points="131.3 238.97 144.5 249.19 154.72 249.19 145.35 226.62 131.3 238.97"/><line class="cls-8" x1="44.86" y1="210.44" x2="49.12" y2="214.27"/><line class="cls-8" x1="49.12" y1="210.44" x2="44.86" y2="214.27"/><path class="cls-8" d="M96.17,210.65l-3,3.41h0l-1.87-1.84"/><circle class="cls-4" cx="133.21" cy="148.49" r="87.92"/><g class="cls-9"><polygon class="cls-3" points="166 72.91 51.89 171.27 64.66 195.54 86.8 224.07 214.54 165.31 212.83 142.32 98.3 207.03 95.74 195.54 211.56 123.16 199.63 84.41 166 72.91"/></g><circle class="cls-10" cx="133.21" cy="148.49" r="87.92"/><line class="cls-11" x1="96.81" y1="87.39" x2="102.34" y2="97.61"/><line class="cls-11" x1="69.98" y1="114.21" x2="80.2" y2="120.6"/><line class="cls-11" x1="60.62" y1="150.83" x2="72.11" y2="150.83"/><line class="cls-11" x1="133" y1="89.94" x2="133" y2="78.45"/><line class="cls-12" x1="195.59" y1="114.64" x2="172.17" y2="129.97"/><polygon class="cls-13" points="129.59 147.43 129.59 155.09 205.38 151.68 205.38 149.55 129.59 147.43"/><polygon class="cls-14" points="131.72 97.18 133.43 97.18 136.83 155.09 129.59 155.09 131.72 97.18"/><circle class="cls-15" cx="133" cy="151.26" r="2.13"/><line class="cls-11" x1="152.16" y1="219.57" x2="149" y2="208.39"/><line class="cls-11" x1="184.2" y1="199.26" x2="175.63" y2="190.8"/><line class="cls-11" x1="201.35" y1="165.58" x2="190.13" y2="163.07"/><path class="cls-13" d="M167.91,46.94l-.42,9.37,7.66-5.54c1.21.6,12.66,6,23.85,0,12.22-6.57,13.07-20.84,13.2-23s.94-15.85-9.37-23.42C192.68-3.1,177.65-.35,170,7.77c-6,6.41-6.24,15-6.38,20A41,41,0,0,0,167.91,46.94Z"/><polyline class="cls-16" points="175.15 29.91 183.24 38 202.4 13.3"/><polygon class="cls-13" points="159.91 241.95 159.4 242.46 161.44 244 159.91 249.11 178.33 260.37 179.87 260.88 181.4 259.86 212.62 241.44 212.11 235.3 192.15 223.01 159.91 241.95"/><path class="cls-17" d="M160.93,243.48l-.76,4.87,18.93,10.74a11.58,11.58,0,0,0,0-5.11Z"/><path class="cls-18" d="M179.87,253.72a7.8,7.8,0,0,1,.51,2.56,8.1,8.1,0,0,1-.51,3.07l31.73-18.42v-4.1Z"/><polygon class="cls-14" points="161.95 230.88 161.53 231.3 163.23 232.58 161.95 236.84 177.28 246.21 178.56 246.63 179.84 245.78 205.81 230.45 205.38 225.34 188.78 215.13 161.95 230.88"/><path class="cls-17" d="M162.8,232.16l-.63,4,15.75,8.94a9.89,9.89,0,0,0,.21-2.77,8.91,8.91,0,0,0-.21-1.49Z"/><path class="cls-19" d="M178.56,240.67a6.53,6.53,0,0,1,.42,2.13,6.65,6.65,0,0,1-.42,2.56L205,230v-3.41Z"/><path class="cls-13" d="M222,51.15,220.29,49a8.6,8.6,0,0,1-.86.42,10.4,10.4,0,0,1-3.4.86v6a2.78,2.78,0,0,1,3,0,2.6,2.6,0,0,1,.85,1.7,4.74,4.74,0,0,1-.85,3.41l4.26,3a3.79,3.79,0,0,1,6.81,0l4.68-2.13a3.09,3.09,0,0,1,3.41-5.11V50.72A2.68,2.68,0,0,1,235.61,46l-5.53-3.41A2.92,2.92,0,0,1,228,45.19a3,3,0,0,1-3.41-2.56l-4.68,2.13a12.3,12.3,0,0,1,0,4.26,11.37,11.37,0,0,1-.43,1.7L221.56,52a6,6,0,0,1,3.83-3.83,5.74,5.74,0,0,1,4.69,10.22,5.64,5.64,0,0,1-7.24-1.28A5.91,5.91,0,0,1,222,51.15Z"/><path class="cls-13" d="M217.31,86.49l-1.71-2.13a8.41,8.41,0,0,1-.85.42,10.45,10.45,0,0,1-3.41.86v6a2.77,2.77,0,0,1,3,0,2.62,2.62,0,0,1,.86,1.7,4.68,4.68,0,0,1-.86,3.41l4.26,3a3.79,3.79,0,0,1,6.81,0l4.69-2.13a3.09,3.09,0,0,1,3.4-5.11V86.06a2.68,2.68,0,0,1-2.55-4.68L225.39,78a2.9,2.9,0,0,1-2.12,2.56A3,3,0,0,1,219.86,78l-4.68,2.13a12.82,12.82,0,0,1,0,4.26,11.37,11.37,0,0,1-.43,1.7l2.13,1.28a6,6,0,0,1,3.83-3.83,5.74,5.74,0,0,1,4.68,10.22,5.62,5.62,0,0,1-7.23-1.28A5.91,5.91,0,0,1,217.31,86.49Z"/><path class="cls-13" d="M235.61,111.18l-1.7-2.13a8.43,8.43,0,0,1-.85.43,10.16,10.16,0,0,1-3.41.85v6a2.77,2.77,0,0,1,3,0,2.55,2.55,0,0,1,.85,1.71,4.63,4.63,0,0,1-.85,3.4l4.26,3a3.79,3.79,0,0,1,6.81,0l4.69-2.13a3.09,3.09,0,0,1,3.4-5.11v-6.38a2.69,2.69,0,0,1-2.55-4.69l-5.54-3.4a2.91,2.91,0,0,1-2.13,2.55,3,3,0,0,1-3.4-2.55l-4.69,2.13a12.24,12.24,0,0,1,0,4.25,13.38,13.38,0,0,1-.42,1.71l2.13,1.28A6,6,0,0,1,239,108.2a5.74,5.74,0,0,1,4.68,10.22,5.62,5.62,0,0,1-7.23-1.28A5.94,5.94,0,0,1,235.61,111.18Z"/><rect class="cls-5" x="10.78" y="151.4" width="85.1" height="109.71" rx="6.7"/><path class="cls-20" d="M57.58,191.67H25.21a1,1,0,0,1-.18-.17.31.31,0,0,1-.07-.21.31.31,0,0,1,.07-.2c0-.07.11-.11.18,0H57.58c.05-.17.1-.17.16-.16a.42.42,0,0,1,.14.06.31.31,0,0,1,.13.27.41.41,0,0,1,0,.16.58.58,0,0,1-.1.12.42.42,0,0,1-.14.06A.42.42,0,0,0,57.58,191.67Z"/><path class="cls-20" d="M57.58,198.15H25.21a.17.17,0,0,1-.18-.08.35.35,0,0,1,0-.42c0-.06.11-.1.18,0H57.58c.05-.1.1-.1.16-.09a.42.42,0,0,1,.14.06.64.64,0,0,1,.1.13.33.33,0,0,1,0,.15.31.31,0,0,1-.13.27.46.46,0,0,1-.14.07A.15.15,0,0,1,57.58,198.15Z"/><path class="cls-20" d="M57.58,204.64H25.21c-.07.09-.13.05-.18,0a.35.35,0,0,1,0-.42.29.29,0,0,1,.18-.11H57.58a.22.22,0,0,1,.16,0,.42.42,0,0,1,.14.06.64.64,0,0,1,.1.13.33.33,0,0,1,0,.15.31.31,0,0,1-.13.27.31.31,0,0,1-.14.07C57.68,204.77,57.63,204.77,57.58,204.64Z"/><path class="cls-13" d="M78.27,186.86h.86a3.74,3.74,0,0,1,.82.08,4.6,4.6,0,0,1,.78.23,5,5,0,0,1,.72.39,3.87,3.87,0,0,1,.63.52,4.59,4.59,0,0,1,.52.63,4.1,4.1,0,0,1,.38.72,5,5,0,0,1,.24.78,4.36,4.36,0,0,1,.08.81v.87a4.45,4.45,0,0,1-.08.81,5,5,0,0,1-.24.78,5,5,0,0,1-.38.72,5.27,5.27,0,0,1-.52.63,4.39,4.39,0,0,1-.63.51,3.6,3.6,0,0,1-.72.39A5.81,5.81,0,0,1,80,196a4.47,4.47,0,0,1-.82.08h-.86a4.36,4.36,0,0,1-.81-.08,5,5,0,0,1-.78-.24,3.13,3.13,0,0,1-.72-.39,4.07,4.07,0,0,1-1.15-1.14,5,5,0,0,1-.39-.72,4.12,4.12,0,0,1-.23-.78,3.71,3.71,0,0,1-.08-.81V191a3.65,3.65,0,0,1,.08-.81,3.9,3.9,0,0,1,.62-1.5A4.29,4.29,0,0,1,76,187.56a3.9,3.9,0,0,1,1.5-.62A3.65,3.65,0,0,1,78.27,186.86Z"/><path class="cls-13" d="M78.27,199.29h.86a4.47,4.47,0,0,1,.82.08,3.88,3.88,0,0,1,.78.24,4.14,4.14,0,0,1,.72.38,3.87,3.87,0,0,1,.63.52,4.59,4.59,0,0,1,.52.63,5,5,0,0,1,.38.72,5,5,0,0,1,.24.78,4.45,4.45,0,0,1,.08.81v.87a4.45,4.45,0,0,1-.08.81,5,5,0,0,1-.24.78,5,5,0,0,1-.38.72,4.59,4.59,0,0,1-.52.63,4.46,4.46,0,0,1-.63.52,4.14,4.14,0,0,1-.72.38,3.88,3.88,0,0,1-.78.24,4.47,4.47,0,0,1-.82.08h-.86a4.36,4.36,0,0,1-.81-.08,4.36,4.36,0,0,1-1.5-.62,4,4,0,0,1-.63-.52,3.49,3.49,0,0,1-.52-.63,5,5,0,0,1-.39-.72,4.12,4.12,0,0,1-.23-.78,3.71,3.71,0,0,1-.08-.81v-.87a3.71,3.71,0,0,1,.08-.81,4.12,4.12,0,0,1,.23-.78,5,5,0,0,1,.39-.72A4.29,4.29,0,0,1,76,200a4.36,4.36,0,0,1,1.5-.62A4.36,4.36,0,0,1,78.27,199.29Z"/><path class="cls-13" d="M39.13,217.71H40a4.47,4.47,0,0,1,.82.08,4.65,4.65,0,0,1,.78.24,4.14,4.14,0,0,1,.72.38,5.27,5.27,0,0,1,.63.52,4.59,4.59,0,0,1,.52.63,5,5,0,0,1,.38.72,5,5,0,0,1,.24.78,4.45,4.45,0,0,1,.08.81v.87a4.45,4.45,0,0,1-.08.81,5,5,0,0,1-.24.78,4.48,4.48,0,0,1-.38.72,4.59,4.59,0,0,1-.52.63,3.87,3.87,0,0,1-.63.52,4.14,4.14,0,0,1-.72.38,3.88,3.88,0,0,1-.78.24,4.47,4.47,0,0,1-.82.08h-.86a4.36,4.36,0,0,1-.81-.08,4.36,4.36,0,0,1-1.5-.62,4.29,4.29,0,0,1-1.15-1.15,4.53,4.53,0,0,1-.39-.72,4.12,4.12,0,0,1-.23-.78,3.71,3.71,0,0,1-.08-.81v-.87a3.71,3.71,0,0,1,.08-.81,4.12,4.12,0,0,1,.23-.78,5,5,0,0,1,.39-.72,3.49,3.49,0,0,1,.52-.63,4.59,4.59,0,0,1,.63-.52,3.52,3.52,0,0,1,.72-.38,4.15,4.15,0,0,1,.78-.24A4.36,4.36,0,0,1,39.13,217.71Z"/><path class="cls-13" d="M39.13,230.14H40a4.47,4.47,0,0,1,.82.08,5.81,5.81,0,0,1,.78.24,4.19,4.19,0,0,1,.72.39,4.39,4.39,0,0,1,.63.51,6.21,6.21,0,0,1,.52.63,5,5,0,0,1,.38.72,5.81,5.81,0,0,1,.24.78,4.47,4.47,0,0,1,.08.82v.86a4.28,4.28,0,0,1-.08.81,5,5,0,0,1-.24.78,4.1,4.1,0,0,1-.38.72,4.59,4.59,0,0,1-.52.63,3.87,3.87,0,0,1-.63.52,5,5,0,0,1-.72.39,4.6,4.6,0,0,1-.78.23,3.74,3.74,0,0,1-.82.08h-.86a3.65,3.65,0,0,1-.81-.08,3.9,3.9,0,0,1-1.5-.62,4.29,4.29,0,0,1-1.15-1.15,3.9,3.9,0,0,1-.62-1.5,3.59,3.59,0,0,1-.08-.81v-.86a3.74,3.74,0,0,1,.08-.82,4.6,4.6,0,0,1,.23-.78,5,5,0,0,1,.39-.72,4.35,4.35,0,0,1,.52-.63,3.9,3.9,0,0,1,.63-.51,3.56,3.56,0,0,1,.72-.39,5,5,0,0,1,.78-.24A4.36,4.36,0,0,1,39.13,230.14Z"/><path class="cls-20" d="M89.48,223.46H57.14c-.08.19-.14.15-.19.08a.38.38,0,0,1-.07-.21.44.44,0,0,1,.07-.21c0-.06.11-.1.19-.2H89.48a.22.22,0,0,0,.16.08.47.47,0,0,1,.15.06.27.27,0,0,1,.09.12.28.28,0,0,1,0,.15.29.29,0,0,1,0,.16.27.27,0,0,1-.09.12l-.15.06S89.54,223.68,89.48,223.46Z"/><path class="cls-20" d="M89.48,230H57.14c-.08.26-.14.22-.19.15a.37.37,0,0,1-.07-.2.38.38,0,0,1,.07-.21,1.17,1.17,0,0,0,.19-.28H89.48c.06.14.11.14.16.15a.47.47,0,0,1,.15.06.27.27,0,0,1,.09.12.29.29,0,0,1,0,.16.28.28,0,0,1,0,.15.27.27,0,0,1-.09.12.47.47,0,0,1-.15.06S89.54,230.24,89.48,230Z"/><path class="cls-20" d="M89.48,237H57.14a.77.77,0,0,0-.19-.31.35.35,0,0,1,0-.42c0-.06.11-.1.19.19H89.48c.06-.33.11-.33.16-.32a.34.34,0,0,1,.15.07.27.27,0,0,1,.09.12.26.26,0,0,1,0,.15.28.28,0,0,1,0,.15.27.27,0,0,1-.09.12.34.34,0,0,1-.15.07S89.54,236.81,89.48,237Z"/><path class="cls-13" d="M17,248.13H89.9a3.15,3.15,0,0,1,.61.06,3,3,0,0,1,.58.17,2.73,2.73,0,0,1,.54.27,3.32,3.32,0,0,1,.47.37,3.23,3.23,0,0,1,.38.45,2.58,2.58,0,0,1,.29.51,3,3,0,0,1,.18.56,2.86,2.86,0,0,1,.06.58,2.82,2.82,0,0,1-.24,1.14,3,3,0,0,1-.29.52,3.23,3.23,0,0,1-.38.45,4.25,4.25,0,0,1-.47.37,4.53,4.53,0,0,1-.54.27,3.86,3.86,0,0,1-.58.17,3.15,3.15,0,0,1-.61.06H17a3.05,3.05,0,0,1-.6-.06,4,4,0,0,1-.59-.17,5.28,5.28,0,0,1-.53-.27,3.49,3.49,0,0,1-.47-.37,2.74,2.74,0,0,1-.39-.45,3.81,3.81,0,0,1-.29-.52,3.35,3.35,0,0,1-.24-1.14,2.3,2.3,0,0,1,.07-.58,2.39,2.39,0,0,1,.17-.56,3.2,3.2,0,0,1,.29-.51,2.74,2.74,0,0,1,.39-.45,2.84,2.84,0,0,1,.47-.37,2.94,2.94,0,0,1,.53-.27,3.37,3.37,0,0,1,1.19-.23Z"/><path class="cls-13" d="M18.29,150.41H88.18a6.79,6.79,0,0,1,.78,0,7,7,0,0,1,.78.13c.26.06.51.13.76.21a6.74,6.74,0,0,1,.74.3c.24.11.48.24.71.37a7.38,7.38,0,0,1,.68.46c.21.16.42.34.63.52s.39.38.58.59.36.43.53.66.32.46.46.7.28.5.41.76.23.52.33.79.19.55.27.83.14.57.19.86a8.27,8.27,0,0,1,.11.87,8.51,8.51,0,0,1,0,.88v12.31H10.48l-.2-12.32a8.77,8.77,0,0,1,0-.88,8.62,8.62,0,0,1,.11-.87c.05-.28.12-.57.19-.85s.17-.56.27-.83a8,8,0,0,1,.34-.8,7.73,7.73,0,0,1,.4-.75c.15-.24.3-.48.47-.71a7.93,7.93,0,0,1,.53-.65,8.07,8.07,0,0,1,.58-.59,6.21,6.21,0,0,1,.63-.52,7.25,7.25,0,0,1,.67-.46,6.85,6.85,0,0,1,.71-.37s.37-.17.74-.3A8.9,8.9,0,0,1,18.29,150.41Z"/><path class="cls-21" d="M156.81,68.66s-.57,1.42,0,2,.85.57.85,1.42a1.28,1.28,0,0,1-.85,1.14"/><polygon class="cls-2" points="176.58 183.14 174.28 192.14 170.79 192.29 169.85 183.44 176.58 183.14"/><path class="cls-13" d="M170.23,189c-.29.53-1.42,2.57-2.24,4.14-.61,1.17-.37.79-.62,1.24a4.46,4.46,0,0,0-.73,1.65,2.08,2.08,0,0,0,0,.81c.19.8.73.91,2.43,2.43a2.14,2.14,0,0,0,.8.53,2.32,2.32,0,0,0,1.6-.34,20.14,20.14,0,0,0,4-2.06,1.85,1.85,0,0,0,.51-.57,2.07,2.07,0,0,0,.21-1.35c-.1-.9-.47-3.16-1.08-6.16l-1,.86c-.77.63-1,.81-1.31.86a1.76,1.76,0,0,1-1.09-.22A3,3,0,0,1,170.23,189Z"/><polygon class="cls-2" points="182.58 170.03 183.6 176.94 190.07 176.89 189.76 169.96 182.58 170.03"/><path class="cls-13" d="M183.06,175.52l0,5.75,2.16.14c0-.92.14-1.64.4-1.69s.72.61,1,1.63l9.81-.43,0-.48a16.59,16.59,0,0,0-2.48-2.05,21.77,21.77,0,0,1-2.22-1.36c-.91-.74-1.31-1.37-2-1.33a1.46,1.46,0,0,0-.94.52,6,6,0,0,1-1.17.54c-1.12.37-2.7-.9-3.17-1.3s-.95-.62-1.22-.43A.68.68,0,0,0,183.06,175.52Z"/><path class="cls-22" d="M139,95.35a5.91,5.91,0,0,1,.86,1.31,6.72,6.72,0,0,1,.44,3.76s-.14,1.39-.25,6.48a39.27,39.27,0,0,0,.22,5.11"/><path class="cls-23" d="M143.59,79.94a2.26,2.26,0,0,1-.25-.28,2.83,2.83,0,0,1-.14-2.44l-1.49,2.62a5.9,5.9,0,0,0-1.31-.61,4.38,4.38,0,0,0-3-.16c-.65.25-.84.6-1.11.48s-.41-1.16-.16-1.9a4.16,4.16,0,0,1,1.44-1.81c.81-.69,1-.62,1.69-1.26A3.82,3.82,0,0,0,140.46,73a4.41,4.41,0,0,0-.63-3.27c-.49-1-.75-1-1-1.68a4.38,4.38,0,0,1,.46-3.48,3.39,3.39,0,0,1-1.6-.35,4.08,4.08,0,0,1-1.9-4.69,4,4,0,0,1,3.39-2.79A4.13,4.13,0,0,1,142.36,58a5.9,5.9,0,0,1,1.14-1.29A8.48,8.48,0,0,1,149,55.15a12,12,0,0,1,1.89.1,4.77,4.77,0,0,1,1.91-.43,5.61,5.61,0,0,1,3.44,1.26,14.56,14.56,0,0,1,2.29,2.55c.74.93,1.35,1.71,1.76,2.26l-1.9.16a3.08,3.08,0,0,1,.5.84,3.29,3.29,0,0,1,.16,1.9c-.13.63-.35.68-.61,1.31a3.93,3.93,0,0,0,.1,3.24,4.57,4.57,0,0,0,1.55,1.17c.67.39.84.41,1.84.91a6.9,6.9,0,0,1,2.35,1.47,3.4,3.4,0,0,1,.7,1.93,4.55,4.55,0,0,0-3,.11,4.47,4.47,0,0,0-2,1.51l-2.59-2a3.18,3.18,0,0,1,.72,1.66,2.93,2.93,0,0,1-.06,1.07,8.06,8.06,0,0,1-1.37.47,7.55,7.55,0,0,1-2.7.12C152.25,77.51,144.59,80.83,143.59,79.94Z"/><path class="cls-24" d="M141.84,60a6.19,6.19,0,0,1,2-2.05,10.37,10.37,0,0,1,6-2.1c0,.15-2.83,1-2.76,1.2s4-.5,4.06-.32a10.68,10.68,0,0,0-3,1.19c-1.4.92-2.19,2.22-2.54,2s0-.69-.22-.83c-.47-.26-2,1.7-2.24,1.5s.29-.87.06-1.07S141.93,60.12,141.84,60Z"/><path class="cls-2" d="M146.4,79.12l-.3-6.73,0-.53a2.76,2.76,0,0,1-1.32.59A2.91,2.91,0,0,1,142,71.23a2.84,2.84,0,0,1,.11-3.51,2.77,2.77,0,0,1,3.49-.43l-1-3.19c1.08-.34,2.24-.66,3.46-1,1.89-.46,3.68-.8,5.34-1-.19-1.32-.45-3.42-.15-3.49s1,1.9,1.49,3.17l1.34-.06c.27,1.49.51,2.66.69,3.47.09.4.21.89.35,1.6s.31,1.6.36,2.14a8.81,8.81,0,0,1-1.39,5.19,10.22,10.22,0,0,1-1.27,1.67l.13,3a17.5,17.5,0,0,1-4.55.74A17.29,17.29,0,0,1,146.4,79.12Z"/><g class="cls-25"><path class="cls-26" d="M143.24,68.75a1.58,1.58,0,0,1,1.08,0,1.66,1.66,0,0,1,1,.9,1.78,1.78,0,0,0-1.06.31,2,2,0,0,0-.52.57"/><path class="cls-27" d="M151.71,70.82c.32-.26.75-.1,1.12-.07a2.33,2.33,0,0,0,1-.16c.41-.14.87-.45,1.1.14a1.22,1.22,0,0,1-.43,1.42,2.4,2.4,0,0,1-1.36.47c-.69,0-1.61-.3-1.68-1.1A.79.79,0,0,1,151.71,70.82Z"/><path class="cls-28" d="M147.65,64.65c.1-.3.33-.42.78-.66a5,5,0,0,1,1.06-.36c.32-.1.45-.12.54,0a.61.61,0,0,1,0,.63c-.16.31-.5.18-1.06.36-.8.27-1.12.86-1.32.69S147.58,64.85,147.65,64.65Z"/><path class="cls-28" d="M156.2,63.29c-.18-.2-.43-.22-.9-.26a5.81,5.81,0,0,0-1.08.06c-.33,0-.45,0-.51.15a.43.43,0,0,0,.15.49c.24.19.51,0,1.08-.06.81-.05,1.27.31,1.41.12S156.31,63.42,156.2,63.29Z"/><path class="cls-29" d="M149.31,65.78c-.18,0-.25.35-.24.55,0,.41.35.83.57.78s.34-.48.23-.81S149.52,65.72,149.31,65.78Z"/><path class="cls-29" d="M155,65c-.14,0-.2.28-.2.44,0,.32.28.66.46.62s.27-.38.19-.65S155.13,65,155,65Z"/><path class="cls-30" d="M153.67,66.67a1.18,1.18,0,0,1,.51.41,1.41,1.41,0,0,1,.23.64,1.27,1.27,0,0,1-.16.66,1.09,1.09,0,0,1-.49.44,1.55,1.55,0,0,0,.38-1.09A1.78,1.78,0,0,0,153.67,66.67Z"/><path class="cls-31" d="M148.92,75.23a6.21,6.21,0,0,0,1.73.79,6.92,6.92,0,0,0,4.23-.19l.15,3.45a18.23,18.23,0,0,1-3.47-1.86A18.57,18.57,0,0,1,148.92,75.23Z"/></g><path class="cls-13" d="M170.21,185.8l6-1c.59-3.66,1.35-8.81,2-15,1.58-15.27.57-18.58-1-21-1.18-1.82-4-5.22-11-7,5.47.06,11.9.95,14,5,1.21,2.35.27,4.55,0,9a40.46,40.46,0,0,0,2,15,6.19,6.19,0,0,0,8,1c.35-4.61.72-8.39,1-11,1.28-12.26,2.22-15.72,0-20a21.44,21.44,0,0,0-5-6c-2.29-2-3.94-2.75-8-5-5.23-2.9-7.84-4.36-10-6,0,0-7.61-5.79-8-11a8.8,8.8,0,0,1,0-1.4h0s0-.28,0-.6a8.25,8.25,0,0,0,3-1,9.1,9.1,0,0,0,3-3c1.39-2,2.42-3.48,2-5-.17-.59-1-1.58-2.64-3.58-.13-.15-.5-.64-1-1.31a8.65,8.65,0,0,1-.48-.78,11.88,11.88,0,0,1-.9-2.12c-.54-1.65-1.73-5.72-3.19-11.18l-3-.41q1.75,6.14,3.5,12.25L145,95.9q-1.89-6.12-3.77-12.24l-2.4.65a24.71,24.71,0,0,1,2.16,6.1,30.32,30.32,0,0,1,.24,9.39,29.53,29.53,0,0,1-.92,5.74c-.91,3.28-1.68,3.1-2.69,6.32-1.27,4-1,6-2.63,13.59-.11.5,0,.06-.9,4.09-.95,4.33-1.94,7.3-2,9.25-.21,4.82,4.85,9.79,9.16,12,5.77,3,13.66,2.84,21,5a5,5,0,0,1,3,2c1.15,1.89.2,4.38,0,5C164.25,165.65,164.68,171.76,170.21,185.8Z"/><path class="cls-32" d="M121.63,226.33l9.14-.68"/><line class="cls-33" x1="157.68" y1="224.73" x2="168.18" y2="224.27"/><path class="cls-4" d="M138.56,145a1.54,1.54,0,0,0-.46,2.9l19.38,9,33.7-23,2.31-22.36a2,2,0,0,0-.77-.64,2.44,2.44,0,0,0-2.13.18l-30.41,19.85-.64.77-1.36.84Z"/><polygon class="cls-3" points="157.94 153.95 147.44 148.45 159.58 140.23 157.94 153.95"/><polygon class="cls-3" points="150.82 138.14 154.68 141.38 159.46 138.81 159.6 132.36 150.82 138.14"/><path class="cls-14" d="M160.31,132.3q-.76,11.5-1.54,23L138.56,145a1.76,1.76,0,0,0,.25,2.83l18.67,9.07a3.28,3.28,0,0,0,1.42-.12,3.18,3.18,0,0,0,1.35-.84l30.93-22,1.66-21.59Z"/><ellipse class="cls-3" cx="178.35" cy="134.28" rx="2.14" ry="2.85" transform="translate(-11.15 16.26) rotate(-5.06)"/><path class="cls-2" d="M171.08,94.74,169.56,97c-1.55,2.31-1.88,2.89-1.73,3.58a2.72,2.72,0,0,0,1.42,1.55,4.8,4.8,0,0,0,4.33.35,4.69,4.69,0,0,0,2.07-2,9,9,0,0,0,.7-2.45,25.64,25.64,0,0,1,2.23-4.42c.74-1.33,1.12-2,1.25-2.21.69-1.1,2-2.51,1.7-3.92-.05-.22-.17-.47-.39-.49a.55.55,0,0,0-.35.1,7.86,7.86,0,0,0-.87.54l.73-1a1.44,1.44,0,0,0,.29-.51.57.57,0,0,0-.11-.55c-.22-.24-.62-.14-.91,0a4.54,4.54,0,0,0-1.11.78,13.68,13.68,0,0,0,1-1.29,1.45,1.45,0,0,0,.27-.54.58.58,0,0,0-.14-.56c-.5-.48-1.61.9-1.73.78s.86-.82.73-1.65c0-.07-.07-.43-.29-.52-.41-.17-1.14.69-2.33,2.26-1.83,2.41-2.86,4-3.06,3.91s.06-.36.21-1.36c.17-1.18.09-1.57-.08-1.88s-.3-.52-.56-.52-.67.72-1.25,2.21c-1,2.49-1,2.4-1,2.47A8,8,0,0,0,171.08,94.74Z"/><path class="cls-23" d="M136.21,122.8l8,7,8,7q-2,2.49-4,5a62.28,62.28,0,0,1-6-2,77.57,77.57,0,0,1-10-5c-4.8-2.66-6-3.58-7-5a11.59,11.59,0,0,1-2-4c-1-3.7.53-6.28,3-14,0,0,.69-2.37,2.07-7.09C131.41,94,132,91.76,134.21,88.8a14.25,14.25,0,0,1,5.14-4.52A13.19,13.19,0,0,1,145,83c-.06-1.44-.13-2.87-.19-4.31a13.67,13.67,0,0,0,1.64.47,17.94,17.94,0,0,0,8.07-.36c.56-.12,1.39-.32,2.4-.64l.19,4.3a42.79,42.79,0,0,1,4.35.89,12.22,12.22,0,0,1,3.29,1.2,6.41,6.41,0,0,1,2,1.53c.59.74.49,1.09,1.33,5.61a10.91,10.91,0,0,1,.4,2.94c0,.67-.19,1.15.06,1.35.5.39,1.88-.88,2.13-.63s-1.78,2.06-1.95,4.66a2.53,2.53,0,0,0,.35,1.88c1,1.18,3.58.67,5.11-.23a4.31,4.31,0,0,0,1.56-1.42,8.34,8.34,0,0,0,.71-2.18,3.87,3.87,0,0,1,.08,1.88,9.44,9.44,0,0,1-.7,2.46,24.07,24.07,0,0,1-1,2.2,46.45,46.45,0,0,0-2.2,5.22c-.52,1.37-1.12,3.14-2.4,6.57a4.17,4.17,0,0,1-5.8,3,3.71,3.71,0,0,1-2.67-2.86c-.13-.64-.23-1.28-.38-1.91a16.21,16.21,0,0,0-.49-1.78c-.26-.7-.85-1.71-.36-2.44.14-.21.48-.33.69-.46a7.85,7.85,0,0,0,1.28-.92,9.37,9.37,0,0,0,2.79-6.07,13.1,13.1,0,0,0-.1-3.48A9.46,9.46,0,0,0,164,96.27a4,4,0,0,0-1-1.44,2.66,2.66,0,0,0-2.44-.16L142.21,96.8c-.19,1.38-.49,3.47-1,6-.71,3.49-1.43,5.94-2,8C138.43,113.57,137.36,117.62,136.21,122.8Z"/><path class="cls-2" d="M149.6,135.68c1.43.74,2.63,1.27,3.48,1.63a31.45,31.45,0,0,1,4.65,2.16c.85.49,1.81.94,1.8,1.58a.79.79,0,0,1-.36.66c-.27.15-.51,0-1,0a1.7,1.7,0,0,0-1,.3c-.35.35-.1,1.2.42,2.88a7.88,7.88,0,0,0,.93,2.38c.22.27.59.64.48.86s-.47.15-.51.15c-1.2-.09-2-3-2.1-2.93a7.48,7.48,0,0,0,.29,1.7c.13.61.38,1.13.12,1.51-.06.09-.1.15-.18.17-.57.16-1.72-2.28-1.78-2.25s.15.41.31,1a.89.89,0,0,1,0,.68.41.41,0,0,1-.18.16c-.42.12-1.28-1.4-1.3-1.39s.5.64.3,1a.33.33,0,0,1-.17.16c-.28.08-.66-.5-1.14-1.21-1.8-2.67-2-2.72-2.09-3.27a3.26,3.26,0,0,0-.31-.68c-.33-.52-1.46-.6-2-1.14s-.41-1.65-.24-2.64A7.62,7.62,0,0,1,149.6,135.68Z"/><path class="cls-13" d="M138.81,84.31l2.4-.65c.74,1.75,1.47,3.69,2.14,5.84A60.92,60.92,0,0,1,145,95.9l15.58-1.23c-.48-2-1-4-1.61-6.13s-1.25-4.16-1.89-6.12l3,.41c.54,1.61,1.07,3.3,1.57,5,.8,2.79,1.44,5.46,2,8L142.21,97.8a21.57,21.57,0,0,0-.27-3.66,27.62,27.62,0,0,0-1-3.73C140.49,88.86,139.79,86.77,138.81,84.31Z"/></g></g></svg>